<svg width="2122" height="2000" viewBox="0 0 2122 2000" fill="none" xmlns="http://www.w3.org/2000/svg">
<path d="M1585.5 284.602L1036.4 452.102L1261.3 1035.6L1763 819.002L1585.5 284.602Z" fill="#7BAEED"/>
<path d="M456.4 1590.7C292.3 1574.4 201.7 1516 263.9 1343.8C264.6 1341.9 265.3 1339.9 266 1338.1C400.5 1420.4 443.7 1540.4 456.4 1590.7Z" fill="#FFCB56"/>
<path d="M1439.4 1549.6H1498.3L1494.2 1409.8L1439.4 1415.8V1549.6Z" fill="#F674B4"/>
<path d="M1518.8 1549.6L1511.5 1357.3L1576.9 1347.3V1549.6H1518.8Z" fill="#F674B4"/>
<path d="M1599 1394.4V1549.6H1651.6L1645.5 1387L1599 1394.4Z" fill="#F674B4"/>
<path d="M318.301 1069C306.701 1061.5 295.001 1054 283.401 1046.5C279.501 1044 275.901 1050.2 279.801 1052.7C291.401 1060.2 303.101 1067.7 314.701 1075.2C318.601 1077.6 322.201 1071.5 318.301 1069Z" fill="#FFCB56"/>
<path d="M935.2 498.5L893.2 543.4L955.6 561.2L935.2 498.5Z" fill="#F674B4"/>
<path d="M1818.3 1210.6C1811.6 1220.6 1805 1230.6 1798.3 1240.6C1795.7 1244.4 1801.9 1248 1804.5 1244.2C1811.2 1234.2 1817.8 1224.2 1824.5 1214.2C1827 1210.4 1820.8 1206.8 1818.3 1210.6Z" fill="#7BAEED"/>
<path d="M1347.1 1374.6C1341.3 1369.6 1335.5 1364.6 1329.6 1359.6C1326.1 1356.6 1321.1 1361.7 1324.6 1364.6C1330.4 1369.6 1336.2 1374.6 1342.1 1379.6C1345.5 1382.6 1350.6 1377.6 1347.1 1374.6Z" fill="#000200"/>
<path d="M1236.6 1039.2C1235.2 1039.2 1233.8 1038.3 1233.3 1036.9L1015.4 482.399C1015 481.499 1015.1 480.399 1015.5 479.499C1015.9 478.599 1016.7 477.899 1017.7 477.599L1566.8 310.099C1568.6 309.499 1570.6 310.499 1571.2 312.399L1748.6 846.799C1749.2 848.499 1748.4 850.399 1746.7 851.199L1573.3 930.999C1571.5 931.799 1569.4 930.999 1568.6 929.299C1567.8 927.499 1568.6 925.399 1570.3 924.599L1740.8 846.199L1565.5 317.999L1023.4 483.399L1239.9 1034.3C1240.6 1036.1 1239.7 1038.2 1237.9 1038.9C1237.4 1039.1 1237 1039.2 1236.6 1039.2Z" fill="#000200"/>
<path d="M1472.3 828.3C1471 828.3 1469.7 827.6 1469.1 826.3L1444.1 775.5H1399.6C1398.4 775.5 1397.3 774.9 1396.6 773.9L1368.8 730.9L1319.6 747C1317.8 747.6 1315.8 746.6 1315.1 744.8L1284.2 660.1L1236.3 671.2C1234.8 671.6 1233.2 670.9 1232.4 669.5L1195.4 605.3L1161.9 611.5C1160.3 611.8 1158.6 610.9 1157.9 609.3L1123.3 522.5C1122.9 521.5 1123 520.5 1123.4 519.6C1123.9 518.7 1124.7 518 1125.7 517.8L1343.8 463.2C1345.5 462.8 1347.2 463.6 1347.9 465.2L1377.3 533.1L1419.9 517.9C1420.8 517.6 1421.8 517.6 1422.6 518C1423.5 518.4 1424.1 519.2 1424.4 520.1L1449.8 593.9L1494.5 578C1496.3 577.4 1498.2 578.2 1499 580L1529.1 651.5L1574.3 634.3C1576.1 633.6 1578.1 634.5 1578.8 636.2L1606.7 698.8L1648.2 683C1649.9 682.3 1651.9 683.1 1652.7 684.8L1675.5 734.6C1675.9 735.5 1675.9 736.5 1675.6 737.4C1675.3 738.3 1674.6 739 1673.7 739.4L1473.8 828C1473.3 828.2 1472.8 828.3 1472.3 828.3ZM1401.6 768.3H1446.3C1447.7 768.3 1448.9 769.1 1449.5 770.3L1473.9 820L1667.8 734.2L1647.9 690.7L1606.3 706.5C1604.5 707.2 1602.5 706.3 1601.8 704.6L1573.9 642L1528.6 659.2C1526.8 659.9 1524.8 659 1524 657.2L1493.9 585.7L1449 601.7C1448.1 602 1447.1 602 1446.3 601.6C1445.4 601.2 1444.8 600.4 1444.5 599.5L1419.1 525.7L1376.8 540.8C1375 541.4 1373.1 540.6 1372.3 538.9L1342.7 470.7L1131.5 523.6L1163.5 603.9L1196.6 597.7C1198.1 597.4 1199.6 598.1 1200.3 599.4L1237.2 663.5L1285.6 652.3C1287.3 651.9 1289.1 652.9 1289.8 654.6L1320.6 739L1369.1 723.2C1370.6 722.7 1372.3 723.3 1373.2 724.6L1401.6 768.3Z" fill="#000200"/>
<path d="M1197.4 604.898C1195.9 604.898 1194.6 603.998 1194 602.498C1193.3 600.598 1194.3 598.598 1196.2 597.898L1420.2 517.798C1422.1 517.098 1424.1 518.098 1424.8 519.998C1425.5 521.898 1424.5 523.898 1422.6 524.598L1198.6 604.698C1198.2 604.798 1197.8 604.898 1197.4 604.898Z" fill="#000200"/>
<path d="M1286.6 659.498C1285.1 659.498 1283.8 658.598 1283.2 657.098C1282.5 655.198 1283.5 653.198 1285.4 652.498L1494.8 577.798C1496.7 577.098 1498.7 578.098 1499.4 579.998C1500.1 581.898 1499.1 583.898 1497.2 584.598L1287.8 659.298C1287.4 659.398 1287 659.498 1286.6 659.498Z" fill="#000200"/>
<path d="M1370.4 730.201C1369 730.201 1367.7 729.4 1367.1 728.1C1366.3 726.3 1367.1 724.201 1369 723.401L1574.5 634.3C1576.3 633.5 1578.4 634.301 1579.2 636.201C1580 638.001 1579.2 640.101 1577.3 640.901L1371.8 730.001C1371.3 730.101 1370.8 730.201 1370.4 730.201Z" fill="#000200"/>
<path d="M1446.4 775.499C1445 775.499 1443.7 774.699 1443.1 773.299C1442.3 771.499 1443.2 769.399 1445 768.599L1648.4 682.899C1650.2 682.099 1652.3 682.999 1653.1 684.799C1653.9 686.599 1653 688.699 1651.2 689.499L1447.8 775.199C1447.3 775.399 1446.9 775.499 1446.4 775.499Z" fill="#000200"/>
<path d="M1273.2 899.198C1271.9 899.198 1270.6 898.498 1270 897.198L1091.5 535.498C1091.1 534.598 1091 533.598 1091.4 532.598C1091.8 531.698 1092.5 530.898 1093.4 530.598L1125.4 517.898C1127.2 517.198 1129.3 518.098 1130 519.898C1130.7 521.698 1129.8 523.798 1128 524.498L1099.6 535.798L1275 891.198L1471.1 821.398C1472.9 820.698 1475 821.698 1475.7 823.598C1476.4 825.498 1475.4 827.498 1473.5 828.198L1274.4 898.998C1274 899.098 1273.6 899.198 1273.2 899.198Z" fill="#000200"/>
<path d="M893.2 1030.6C892.7 1030.6 892.1 1030.5 891.6 1030.2C889.8 1029.3 889.1 1027.2 890 1025.4L1043.4 724.699C1044.3 722.899 1046.4 722.199 1048.2 723.099C1050 723.999 1050.7 726.099 1049.8 727.899L896.4 1028.6C895.7 1029.8 894.5 1030.6 893.2 1030.6Z" fill="#FF3857"/>
<path d="M1031.2 1108.2C1030.7 1108.2 1030.1 1108.1 1029.6 1107.8C1027.8 1106.9 1027.1 1104.8 1028 1103L1183.4 788.999C1184.3 787.199 1186.4 786.499 1188.2 787.399C1190 788.299 1190.7 790.399 1189.8 792.199L1034.4 1106.2C1033.8 1107.5 1032.5 1108.2 1031.2 1108.2Z" fill="#FF3857"/>
<path d="M1158.3 851.599C1157.8 851.599 1157.3 851.499 1156.8 851.199L1017.2 784.199C1015.4 783.299 1014.7 781.199 1015.5 779.399C1016.3 777.599 1018.5 776.899 1020.3 777.699L1159.9 844.699C1161.7 845.599 1162.4 847.699 1161.6 849.499C1160.9 850.799 1159.6 851.599 1158.3 851.599Z" fill="#FF3857"/>
<path d="M1121.3 925.697C1120.8 925.697 1120.3 925.597 1119.8 925.297L980.2 858.297C978.4 857.397 977.7 855.297 978.5 853.497C979.3 851.697 981.5 850.997 983.3 851.797L1122.9 918.797C1124.7 919.697 1125.4 921.797 1124.6 923.597C1123.9 924.997 1122.6 925.697 1121.3 925.697Z" fill="#FF3857"/>
<path d="M1081.5 1002.4C1081 1002.4 1080.5 1002.3 1080 1002L940.4 935C938.6 934.1 937.9 932 938.7 930.2C939.5 928.4 941.7 927.7 943.5 928.5L1083.1 995.5C1084.9 996.4 1085.6 998.5 1084.8 1000.3C1084.1 1001.6 1082.8 1002.4 1081.5 1002.4Z" fill="#FF3857"/>
<path d="M1050.9 1064.1C1050.4 1064.1 1049.9 1064 1049.4 1063.7L909.8 996.699C908 995.799 907.3 993.699 908.1 991.899C909 990.099 911.1 989.399 912.9 990.199L1052.5 1057.2C1054.3 1058.1 1055 1060.2 1054.2 1062C1053.5 1063.3 1052.2 1064.1 1050.9 1064.1Z" fill="#FF3857"/>
<path d="M632.8 679.599C545.1 711.099 516.6 745.599 539.3 811.199C558 865.399 567.9 876.599 567.9 876.599L572.2 876.099C583.4 870.499 590 869.499 600.9 865.799C601.8 862.299 601.6 869.699 602.5 866.199C606.5 855.499 582 807.599 585.3 781.099C588.1 758.399 605.4 743.499 624.4 732.999C652.4 717.399 684.5 710.399 713.4 696.499C719.4 693.599 729.1 687.599 739.6 682.399C718.3 666.299 685.4 660.699 632.8 679.599Z" fill="#000200"/>
<path d="M767.9 858.699C766.4 858.699 765.1 857.799 764.5 856.299C763.8 854.399 764.8 852.399 766.7 851.699C773.6 849.199 778.7 845.299 780.2 841.199C781.1 838.899 780.8 836.499 779.4 833.999C776.3 828.399 762.1 829.799 755.7 831.299C753.9 831.699 752.1 830.699 751.5 828.999L739.5 795.499C738.8 793.599 739.8 791.6 741.7 790.9C743.5 790.2 745.6 791.199 746.3 793.099L757.3 823.699C764.3 822.499 780.3 820.799 785.7 830.499C788.1 834.799 788.6 839.399 787 843.699C784.7 849.899 778.4 855.1 769.2 858.4C768.7 858.6 768.3 858.699 767.9 858.699Z" fill="#000200"/>
<path d="M755.101 782.901L757.701 790.201C761.101 799.601 775.701 794.401 772.301 784.901L769.701 777.601C766.401 768.301 751.701 773.501 755.101 782.901Z" fill="#000200"/>
<path d="M667.101 814.498L669.701 821.798C673.101 831.198 687.701 825.998 684.301 816.498L681.701 809.198C678.401 799.898 663.701 805.098 667.101 814.498Z" fill="#000200"/>
<path d="M666.801 777.401C660.601 779.001 654.701 781.001 648.901 783.701C644.401 785.901 648.601 792.401 653.101 790.201C658.201 787.701 663.701 786.201 669.201 784.701C674.001 783.601 671.601 776.201 666.801 777.401Z" fill="#000200"/>
<path d="M761.901 743.599C757.101 743.699 752.401 744.599 747.601 744.399C742.701 744.099 741.301 751.799 746.301 751.999C751.801 752.299 757.101 751.399 762.601 751.299C767.601 751.199 766.901 743.499 761.901 743.599Z" fill="#000200"/>
<path d="M693.1 1078.8C687.9 1078.8 682.6 1078.1 677.2 1076.8C646.2 1069.1 605.9 1035.5 594.2 965.899C594.1 965.199 594.2 964.499 594.5 963.799L611.7 926.399C576.2 932.999 554.6 922.299 550.9 912.199C549.1 907.299 547.9 899.599 552.2 891.199C555.1 885.399 560.2 880.099 567.4 875.299L546.7 817.799C522.6 750.699 549.6 705.699 631.7 676.199C704.5 649.999 750.6 665.499 772.4 723.399C777 735.599 781.5 747.299 785.8 758.599C827.4 867.599 852.5 933.399 821.6 969.899C806.2 988.099 783 997.399 764.3 1004.8L738.3 1055.7C726.8 1070.9 710.9 1078.8 693.1 1078.8ZM601.4 965.799C612.7 1031.2 650.1 1062.8 678.9 1069.9C700.2 1075.2 719.6 1068.6 732.3 1052L758.5 1000.5C758.9 999.699 759.6 999.099 760.4 998.799L761.6 998.299C780.5 990.799 801.9 982.199 816.2 965.299C844.3 931.999 819.8 867.699 779.1 761.199C774.8 749.899 770.3 738.199 765.7 725.999C745.5 672.499 702.4 658.399 634 682.999C555.4 711.199 530.6 752.099 553.3 815.499L573.5 871.699C580.3 868.099 588.4 864.799 598 861.899C599.9 861.299 601.9 862.399 602.4 864.299C603 866.199 601.9 868.199 600 868.699C577.9 875.399 563.6 884.299 558.4 894.499C555.9 899.499 555.6 904.599 557.5 909.899C559.7 915.999 579.9 926.899 616.9 918.099C618.2 917.799 619.6 918.199 620.5 919.299C621.4 920.399 621.6 921.799 621 923.099L601.4 965.799Z" fill="#000200"/>
<path d="M739 645.199C732.8 641.299 714.4 633.099 697.9 640.599C663.8 655.999 661.2 664.499 640.3 674.899C630.5 679.799 616.2 684.899 616 697.899C616 699.399 616.2 700.799 616.5 702.099C611.6 708.299 607.8 715.599 604.6 722.499C604.2 723.299 604.2 723.999 604.3 724.699C603.7 725.399 603 726.199 602.4 726.899C599.4 725.899 595.7 729.099 597.8 732.499C614 758.399 651.4 748.699 662.8 724.299C685.2 720.999 706.7 713.099 725.9 700.199C741.2 689.799 765.6 661.899 739 645.199Z" fill="#000200"/>
<path d="M801.001 868.8C796.001 871.4 791.001 874.1 786.001 876.7C781.601 879 785.601 885.7 790.001 883.3C795.001 880.7 800.001 878 805.001 875.4C809.501 873.1 805.401 866.5 801.001 868.8Z" fill="#000200"/>
<path d="M765 1000.8C764.3 999 762.2 998.1 760.4 998.8C741.6 1006.3 719 1002.6 718.8 1002.5C717.5 1002.3 716.1 1002.8 715.3 1003.9C714.5 1005 714.4 1006.4 716.3 1010.3L735.1 1047.8C736.3 1043.5 739.9 1039.5 744.1 1038.3L759.3 1006.7C760.5 1006.3 761.8 1005.9 763 1005.4C764.9 1004.7 765.7 1002.6 765 1000.8Z" fill="#000200"/>
<path d="M513.599 1357C512.699 1357 511.699 1356.6 511.099 1355.9C509.999 1354.7 484.399 1325 547.399 1183.1C548.199 1181.3 550.299 1180.5 552.099 1181.3C553.899 1182.1 554.699 1184.2 553.899 1186C493.699 1321.6 516.199 1350.8 516.399 1351.1C517.599 1352.6 517.499 1354.8 516.099 1356.1C515.299 1356.7 514.399 1357 513.599 1357Z" fill="#000200"/>
<path d="M666.6 1400.7C664.8 1400.7 663.2 1399.3 663.1 1397.5C660 1365.5 609.6 1366.9 609.1 1367C607.4 1367.1 606.1 1366.1 605.6 1364.7C602.5 1356.4 597.5 1350.7 590.1 1347.5C567.4 1337.5 526.3 1351.6 489.2 1366.8C487.4 1367.5 485.3 1366.7 484.5 1364.8C483.8 1363 484.6 1360.9 486.5 1360.1C525.1 1344.4 567.9 1329.8 593 1340.9C601.4 1344.6 607.5 1351 611.4 1359.8C622.7 1359.9 666.9 1362.4 670.2 1396.8C670.4 1398.8 669 1400.5 667 1400.7C666.8 1400.7 666.7 1400.7 666.6 1400.7Z" fill="#000200"/>
<path d="M658.1 1579.6C657.3 1579.6 656.4 1579.3 655.8 1578.7C603.3 1533.5 626.7 1442.9 663.8 1394.9C664.6 1393.9 665.9 1393.4 667.1 1393.6C667.7 1393.7 681.7 1395.7 691.2 1398.2C692.3 1398.5 693.2 1399.3 693.6 1400.3C694 1401.4 693.9 1402.6 693.3 1403.5C627.9 1506.3 685.3 1570.8 687.8 1573.5C689.1 1575 689 1577.2 687.6 1578.5C686.2 1579.8 683.9 1579.7 682.6 1578.3C682 1577.6 620.5 1509 684.7 1403.8C678.5 1402.4 671.6 1401.3 668.2 1400.8C633.6 1447 611.9 1531.4 660.5 1573.2C662 1574.5 662.2 1576.7 660.9 1578.2C660.1 1579.2 659.1 1579.6 658.1 1579.6Z" fill="#000200"/>
<path d="M917.9 1502.3C912.3 1502.3 906.2 1502.2 899.6 1501.8C897.6 1501.7 896.1 1500 896.2 1498.1C896.3 1496.1 897.9 1494.5 899.9 1494.7C947.3 1497.1 966.5 1489.7 971.1 1487.6C971.6 1485.3 972.2 1480.2 969.1 1476.2C964.7 1470.5 954.3 1468 938.8 1469.2C911.9 1471.2 892.5 1464.7 887 1451.9C883.4 1443.6 886.5 1434 895.5 1425.8C907.1 1415.1 912 1416.5 918.7 1423.7C922.4 1427.7 927 1432.7 938.8 1433.3C949.4 1433.9 952.2 1432 952.4 1431.4C953 1429.5 947.3 1419.9 914.9 1401.7C892.8 1389.3 861.7 1393.6 822.2 1399.1C786.3 1404.1 741.6 1410.3 690.1 1405.3C688.1 1405.1 686.7 1403.4 686.9 1401.4C687.1 1399.4 688.8 1398 690.8 1398.2C741.5 1403.1 785.8 1396.9 821.3 1392C862.1 1386.4 894.3 1381.9 918.5 1395.4C963.2 1420.5 960.3 1430.1 959.4 1433.3C957 1441.4 943.1 1440.6 938.6 1440.3C923.9 1439.4 917.8 1432.8 913.7 1428.4C909.8 1424.2 909 1423.3 900.6 1430.9C893.9 1437.1 891.4 1443.5 893.8 1448.9C897 1456.2 910.6 1464 938.6 1461.9C956.8 1460.6 969.1 1463.9 975.1 1471.8C981.6 1480.4 977.9 1490.7 977.8 1491.1C977.5 1491.8 977.1 1492.4 976.4 1492.9C975.4 1493.4 961.4 1502.3 917.9 1502.3Z" fill="#000200"/>
<path d="M901.7 1532.5C899.9 1532.5 898.3 1531.1 898.2 1529.2C898 1527.2 899.5 1525.5 901.5 1525.4C937.8 1522.4 960.3 1519.1 965.4 1491.7C965.8 1489.8 967.6 1488.5 969.6 1488.8C971.5 1489.2 972.8 1491 972.5 1493C966.2 1527.1 935.1 1529.7 902.2 1532.5C901.9 1532.5 901.8 1532.5 901.7 1532.5Z" fill="#000200"/>
<path d="M889.499 1559.4C887.699 1559.4 886.199 1558.1 885.999 1556.3C885.699 1554.3 887.099 1552.6 889.099 1552.3C896.599 1551.3 903.299 1550.9 909.299 1550.6C931.799 1549.3 942.099 1548.7 946.599 1518.8C946.899 1516.9 948.699 1515.5 950.699 1515.8C952.599 1516.1 953.999 1517.9 953.699 1519.9C948.399 1555.6 932.999 1556.5 909.799 1557.8C903.999 1558.1 897.399 1558.5 890.199 1559.5C889.799 1559.4 889.699 1559.4 889.499 1559.4Z" fill="#000200"/>
<path d="M629.3 1579.7C575.1 1579.7 531.4 1577.9 493.9 1574.1C389 1563.7 326.5 1537.2 297.2 1490.7C271.7 1450.2 272 1395.2 298.3 1322.4L299.2 1319.9C299.6 1318.8 300 1317.7 300.4 1316.6C389.8 1071.2 481.3 961.699 596.8 961.699C597.1 961.699 597.3 961.699 597.6 961.699C599.6 961.699 601.2 963.299 601.1 965.299C601.1 967.299 599.5 968.799 597.5 968.799C597.4 968.799 597 968.799 596.7 968.799C484.7 968.799 395.3 1076.9 307 1319.1C306.6 1320.2 306.2 1321.2 305.8 1322.3L304.9 1324.8C279.4 1395.3 278.8 1448.3 303.1 1486.8C331.1 1531.2 391.9 1556.7 494.4 1566.9C541 1571.6 597.4 1573.3 672 1572.2C685.6 1572 697.5 1571.1 712.7 1569.9C731.5 1568.5 754.8 1566.7 790.7 1565.7C801.2 1565.4 811.9 1565.2 822.5 1565C871.4 1564.1 926.7 1563.2 931.6 1548C932.2 1546.1 934.2 1545.1 936.1 1545.7C938 1546.3 939 1548.3 938.4 1550.2C932 1570.3 881.3 1571.1 822.7 1572.2C812.1 1572.4 801.4 1572.6 791 1572.9C755.3 1574 732 1575.7 713.3 1577.1C698 1578.2 686 1579.1 672.2 1579.4C657.3 1579.6 643 1579.7 629.3 1579.7Z" fill="#000200"/>
<path d="M594.5 1377.4C593.4 1377.4 592.3 1376.9 591.6 1375.9C590.5 1374.3 590.8 1372.1 592.4 1370.9L606.9 1360.5C608.5 1359.3 610.7 1359.7 611.9 1361.3C613 1362.9 612.7 1365.1 611.1 1366.3L596.6 1376.7C595.9 1377.2 595.2 1377.4 594.5 1377.4Z" fill="#000200"/>
<path d="M1073.3 1136.7C1072.6 1136.7 1071.9 1136.5 1071.2 1136C1023.3 1101.5 867.8 1001.9 783.8 996.199C781.8 996.099 780.3 994.399 780.5 992.399C780.6 990.399 782.4 988.999 784.3 989.099C886.3 995.999 1073.5 1128.9 1075.4 1130.2C1077 1131.3 1077.4 1133.6 1076.2 1135.2C1075.5 1136.2 1074.4 1136.7 1073.3 1136.7Z" fill="#000200"/>
<path d="M1088.3 1333.3C1019.1 1333.3 943.7 1312.7 879.7 1251.6C878.3 1250.2 878.2 1248 879.6 1246.6C881 1245.2 883.2 1245.1 884.6 1246.5C1017.5 1373.2 1201.1 1321.7 1269.2 1276.9C1306.7 1252.2 1358.8 1183.7 1400.7 1128.7C1422.7 1099.8 1441.7 1074.9 1453.1 1063.7C1458 1058.9 1462.7 1054 1467.2 1049.3C1484 1031.7 1498.4 1016.6 1514.3 1018.3C1524.1 1019.4 1533 1026.9 1541.7 1041.3C1557.1 1066.9 1570.7 1068.3 1574.5 1068C1578 1067.8 1580.8 1066.2 1582 1063.7C1583.1 1061.2 1582.6 1058.2 1580.4 1055.4C1567.9 1039.1 1556.2 1001.8 1567.7 977.099C1575.4 960.599 1596.9 967.399 1624.2 975.999C1641.7 981.499 1661.6 987.799 1681.2 989.099C1697.4 990.199 1703.9 986.899 1704.5 985.199C1704.7 984.699 1704 983.199 1701.4 981.399C1696.8 978.199 1687.7 975.199 1678.1 971.999C1668.9 968.999 1659.3 965.899 1651.7 961.899C1594.1 932.199 1474.1 895.999 1397 925.099C1317.3 955.199 1222.6 1054.6 1221.6 1055.6C1220.5 1056.7 1218.9 1057 1217.5 1056.4C1200.2 1048.4 1184.5 1047.5 1170.6 1053.7C1142.1 1066.5 1130.4 1105.2 1130.3 1105.6C1129.9 1107 1128.6 1108.1 1127.1 1108.1C1126.7 1108.1 1084.8 1111 1073.4 1146.6C1072.8 1148.5 1070.8 1149.5 1068.9 1148.9C1067 1148.3 1066 1146.3 1066.6 1144.4C1077.8 1109.5 1114.3 1102.5 1124.2 1101.2C1127.3 1092.2 1140.2 1059.6 1167.7 1047.2C1182.9 1040.3 1199.9 1040.9 1218.2 1048.9C1231.7 1035 1319.3 946.799 1394.5 918.399C1473.7 888.499 1596.3 925.299 1655 955.599C1662.1 959.299 1671.4 962.299 1680.4 965.199C1690.6 968.499 1700.1 971.699 1705.6 975.499C1712.8 980.599 1712 985.599 1711.3 987.499C1708.9 994.199 1698.1 997.299 1680.8 996.199C1660.2 994.899 1640 988.399 1622.1 982.799C1595.6 974.399 1579 969.799 1574.2 980.099C1564.3 1001.4 1574.4 1035.7 1586.1 1051C1589.8 1055.9 1590.7 1061.7 1588.5 1066.6C1586.2 1071.6 1581.2 1074.7 1575 1075.1C1568.8 1075.4 1552.7 1073.2 1535.7 1044.9C1528.3 1032.5 1521 1026.1 1513.7 1025.3C1501.4 1023.9 1488 1037.9 1472.6 1054.2C1468 1059 1463.3 1064 1458.3 1068.8C1447.2 1079.6 1428.4 1104.3 1406.6 1133C1364.4 1188.5 1311.9 1257.5 1273.4 1282.8C1236.3 1307.1 1166.2 1333.3 1088.3 1333.3Z" fill="#000200"/>
<path d="M1392.3 1149.2C1391.9 1149.2 1391.6 1149.1 1391.2 1149C1390.1 1148.6 1276.8 1111.6 1269.7 1002.3C1269.6 1000.3 1271.1 998.597 1273 998.497C1274.9 998.397 1276.7 999.897 1276.8 1001.8C1283.6 1106.3 1392.3 1141.8 1393.4 1142.2C1395.3 1142.8 1396.3 1144.8 1395.7 1146.7C1395.2 1148.2 1393.8 1149.2 1392.3 1149.2Z" fill="#000200"/>
<path d="M1379.1 1166.3C1378.9 1166.3 1378.7 1166.3 1378.5 1166.3C1377.4 1166.1 1269.8 1147.2 1254.5 1016C1254.3 1014 1255.7 1012.3 1257.6 1012C1259.6 1011.8 1261.3 1013.2 1261.6 1015.1C1276.3 1141.1 1378.7 1159.1 1379.7 1159.2C1381.6 1159.5 1383 1161.3 1382.7 1163.3C1382.3 1165.1 1380.8 1166.3 1379.1 1166.3Z" fill="#000200"/>
<path d="M1567.8 1019.1C1566.7 1019.1 1565.6 1018.6 1564.9 1017.6C1563.7 1016 1564.1 1013.8 1565.7 1012.6C1565.7 1012.6 1571.5 1008.2 1572.2 1001.4C1572.7 996.697 1570.6 991.697 1566.1 986.597C1564.8 985.097 1564.9 982.897 1566.4 981.597C1567.9 980.297 1570.1 980.397 1571.4 981.897C1577.4 988.597 1580.1 995.397 1579.3 1002.2C1578.2 1012.2 1570.2 1018.1 1569.9 1018.3C1569.2 1018.9 1568.5 1019.1 1567.8 1019.1Z" fill="#000200"/>
<path d="M1616.4 1089.2C1615.5 1089.2 1614.6 1089 1613.7 1088.7C1605.1 1085.6 1603.7 1069 1606.9 1054.1C1611.6 1032 1604.5 1001.6 1587.9 972.897C1586.9 971.197 1587.5 968.997 1589.2 967.997C1590.9 966.997 1593.1 967.597 1594.1 969.297C1611.5 999.497 1618.9 1031.8 1613.9 1055.6C1610.6 1071 1613.7 1081.1 1616.1 1082C1617.2 1082.4 1621.7 1080.4 1628.6 1066.9C1642.2 1040.3 1628 989.797 1623.1 983.197C1622.1 982.797 1621.2 981.797 1621 980.597C1620.6 978.697 1621.9 976.797 1623.8 976.397C1625 976.097 1626.8 976.397 1628.6 978.697C1634.7 986.797 1650.1 1040.4 1634.9 1070.1C1628.5 1082.8 1622.3 1089.2 1616.4 1089.2Z" fill="#000200"/>
<path d="M1575.9 1044.6C1574.9 1044.6 1573.9 1044.2 1573.2 1043.3C1571.9 1041.8 1572.1 1039.6 1573.6 1038.3C1584.4 1029.1 1601.6 1011.1 1601.6 1002.1C1601.6 1000.1 1603.2 998.5 1605.2 998.5C1607.2 998.5 1608.8 1000.1 1608.8 1002.1C1608.8 1017.3 1581.4 1041.1 1578.3 1043.7C1577.5 1044.3 1576.7 1044.6 1575.9 1044.6Z" fill="#000200"/>
<path d="M916.5 1402.1C914.9 1402.1 913.4 1401 913 1399.3L870 1211.6C869.6 1209.8 870.6 1208 872.3 1207.4C874 1206.8 875.9 1207.6 876.7 1209.3C890.9 1240.3 951 1293.5 951.6 1294C953.1 1295.3 953.2 1297.6 951.9 1299C950.6 1300.5 948.3 1300.6 946.9 1299.3C944.8 1297.5 904.4 1261.7 881.8 1231L920.1 1397.6C920.5 1399.5 919.3 1401.4 917.4 1401.9C917.1 1402 916.8 1402.1 916.5 1402.1Z" fill="#000200"/>
<path d="M877.301 1219.8L881.301 1247.7C881.301 1247.7 941.301 1292.8 941.901 1292.8C942.401 1292.9 877.301 1219.8 877.301 1219.8Z" fill="#000200"/>
<path d="M1126.8 1136.7C1124.8 1136.7 1123.2 1135.1 1123.2 1133.1V1104.7C1123.2 1102.7 1124.8 1101.1 1126.8 1101.1C1128.8 1101.1 1130.4 1102.7 1130.4 1104.7V1133.1C1130.3 1135.1 1128.7 1136.7 1126.8 1136.7Z" fill="#000200"/>
<path d="M1103.8 1567.3C1101.9 1567.3 1100.3 1565.8 1100.2 1563.9C1100.1 1561.9 1101.6 1560.3 1103.6 1560.2L1260.7 1552.4L1254.5 1448.6C1254.4 1447.6 1254.8 1446.7 1255.5 1445.9C1256.2 1445.2 1257.1 1444.8 1258.1 1444.8H1375.6V1304.6C1375.6 1302.6 1377.2 1301 1379.2 1301H1534.7L1528.7 1162.8C1528.6 1160.9 1530 1159.3 1531.8 1159.1L1667.9 1142.3V1041C1667.9 1040 1668.3 1039.1 1669 1038.4C1669.7 1037.7 1670.6 1037.4 1671.6 1037.4L1785.2 1042.8L1777.7 922.101C1777.6 920.101 1779.1 918.401 1781 918.301C1783 918.301 1784.7 919.701 1784.8 921.601L1792.5 1046.3C1792.6 1047.3 1792.2 1048.3 1791.5 1049C1790.8 1049.7 1789.8 1050.1 1788.8 1050.1L1674.9 1044.7V1145.6C1674.9 1147.4 1673.6 1148.9 1671.8 1149.1L1535.8 1165.8L1541.8 1304.4C1541.8 1305.4 1541.5 1306.3 1540.8 1307C1540.1 1307.7 1539.2 1308.1 1538.2 1308.1H1382.5V1448.3C1382.5 1450.3 1380.9 1451.9 1378.9 1451.9H1261.6L1267.8 1555.5C1267.9 1556.5 1267.5 1557.4 1266.9 1558.1C1266.3 1558.8 1265.4 1559.2 1264.4 1559.3L1103.7 1567.3C1103.9 1567.3 1103.8 1567.3 1103.8 1567.3Z" fill="#000200"/>
<path d="M1816.9 925.501H1741C1739.5 925.501 1738.2 924.601 1737.7 923.301C1737.2 921.901 1737.5 920.401 1738.6 919.401L1778.8 881.301C1779.5 880.601 1780.4 880.301 1781.4 880.301C1782.4 880.301 1783.2 880.701 1783.9 881.401L1819.5 919.501C1820.5 920.501 1820.7 922.101 1820.2 923.401C1819.6 924.701 1818.3 925.501 1816.9 925.501ZM1750 918.401H1808.6L1781.1 888.901L1750 918.401Z" fill="#000200"/>
<path d="M1114.1 1396.9C1113.4 1396.2 1112.5 1395.8 1111.5 1395.8H981.7C980.7 1395.8 979.8 1396.2 979.1 1396.9C978.4 1397.6 978.1 1398.6 978.1 1399.6L988.9 1564C989 1565.9 990.6 1567.3 992.5 1567.3H1103.8C1105.7 1567.3 1107.3 1565.8 1107.4 1563.9L1115.1 1399.5C1115.1 1398.6 1114.7 1397.6 1114.1 1396.9ZM1092 1510.7C1092 1512.7 1090.4 1514.3 1088.4 1514.3C1086.4 1514.3 1084.8 1512.7 1084.8 1510.7V1444.4C1084.8 1442.4 1086.4 1440.8 1088.4 1440.8C1090.4 1440.8 1092 1442.4 1092 1444.4V1510.7Z" fill="#000200"/>
<path d="M983.8 1432.8H955.6C953.6 1432.8 952 1431.2 952 1429.2C952 1427.2 953.6 1425.6 955.6 1425.6H983.8C985.8 1425.6 987.4 1427.2 987.4 1429.2C987.4 1431.2 985.8 1432.8 983.8 1432.8Z" fill="#000200"/>
<path d="M913.4 1468C912 1468 910.7 1467.2 910.2 1465.9C909.9 1465.2 902.6 1447.9 921.1 1429.9C922.5 1428.5 924.8 1428.6 926.1 1430C927.5 1431.4 927.4 1433.7 926 1435C911.2 1449.4 916.4 1462.5 916.7 1463C917.5 1464.8 916.6 1466.9 914.8 1467.7C914.3 1467.9 913.8 1468 913.4 1468Z" fill="#000200"/>
<path d="M949.2 1527.6C947.2 1527.6 945.6 1526 945.6 1524C945.6 1522 947.2 1520.4 949.2 1520.4C983.3 1520.3 989.7 1520.4 990 1520.4C992 1520.4 993.5 1522.1 993.5 1524.1C993.5 1526.1 991.9 1527.7 989.8 1527.6C989.7 1527.6 983.1 1527.4 949.2 1527.6Z" fill="#000200"/>
</svg>
