<svg width="2000" height="2000" viewBox="0 0 2000 2000" fill="none" xmlns="http://www.w3.org/2000/svg">
<path d="M1580 1185.36L1157.78 1181.62L1191.28 1424.03L1592.27 1428.23" fill="url(#paint0_linear_21_294)"/>
<path d="M686.001 1044.99C684.585 1069.19 680.928 1093.61 676.563 1117.46C675.265 1158.95 673.024 1200.32 667.951 1241.7C667.715 1243.8 667.007 1245.55 666.063 1247.07C662.052 1273.49 655.21 1299.2 643.766 1322.46C622.885 1365.12 583.954 1388.96 540.185 1398.55C542.899 1400.53 544.786 1403.69 544.786 1408.01C579.471 1409.42 703.225 1495.9 795.008 1650.77C812.822 1609.27 836.771 1568.37 868.034 1539.97C902.364 1508.76 946.487 1500.35 984.592 1531.08C995.8 1540.08 993.912 1550.14 982.115 1546.04C981.525 1549.08 980.935 1552.01 979.991 1555.04C982.351 1561.36 980.463 1568.84 971.969 1570.12C950.144 1573.63 930.206 1580.76 916.049 1595.25C912.628 1607.17 909.679 1619.33 909.325 1631.6C909.443 1631.6 909.561 1631.6 909.561 1631.72C929.262 1640.95 953.919 1635.81 974.8 1635.46C985.418 1635.22 1167.22 1597.47 1172.41 1606.47C1182.79 1624.47 1167.81 1637.33 1157.42 1651.58C1164.27 1668.3 1158.96 1687.23 1149.52 1705.11C1154 1723.46 1143.74 1741.46 1124.98 1746.72C1124.86 1746.72 1124.86 1746.72 1124.74 1746.72C1121.8 1755.72 1112.59 1787.28 1099.73 1787.51C1087.11 1787.86 257.049 1769.05 257.049 1769.05C244.19 1769.05 248.201 1622.48 248.201 1591.16C248.201 1551.19 220.359 1144.1 238.999 887.443C247.257 774.54 322.406 777.345 396.965 765.774L146.271 523.021L154.766 818.72C154.648 818.72 154.648 818.72 154.766 818.836L161.372 1051.89V1052.24L164.439 1157.08L173.052 1460.02L183.197 1817.9L1523.14 1854.6L686.001 1044.99Z" fill="url(#paint1_linear_21_294)"/>
<path d="M1650.67 987.49C1640.76 999.762 1630.85 1012.15 1620.82 1024.42C1616.81 1029.45 1623.89 1036.46 1627.9 1031.44C1637.81 1019.16 1647.72 1006.77 1657.75 994.503C1661.88 989.594 1654.8 982.464 1650.67 987.49Z" fill="url(#paint2_linear_21_294)"/>
<path d="M95.6613 1085.55L48 1142.23L107.695 1153.92L95.6613 1085.55Z" fill="url(#paint3_linear_21_294)"/>
<path d="M1168.04 282.138L1180.55 350.861L1245.2 339.524L1228.92 270.801L1168.04 282.138Z" fill="url(#paint4_linear_21_294)"/>
<path d="M1141.97 320.24C1122.03 298.968 1102.21 277.813 1082.27 256.542C1077.91 251.867 1070.71 258.879 1075.2 263.554C1095.13 284.826 1114.95 305.981 1134.89 327.252C1139.37 331.927 1146.45 324.915 1141.97 320.24Z" fill="url(#paint5_linear_21_294)"/>
<path d="M998.866 1327.72C881.955 1287.16 755.959 1346.42 713.37 1461.19C711.129 1467.27 720.921 1469.84 723.044 1463.88C763.863 1353.9 884.668 1298.62 996.153 1337.3C1002.41 1339.52 1005 1329.82 998.866 1327.72Z" fill="url(#paint6_linear_21_294)"/>
<path d="M964.655 1429.64C909.325 1419 853.996 1442.96 824.62 1490.64C821.199 1496.14 829.929 1501.16 833.35 1495.67C860.13 1452.08 911.331 1429.4 961.942 1439.22C968.312 1440.39 971.026 1430.8 964.655 1429.64Z" fill="url(#paint7_linear_21_294)"/>
<path d="M1227.62 938.518C1217.59 951.141 1207.56 963.881 1197.65 976.503C1193.76 981.529 1200.84 988.659 1204.73 983.516C1214.76 970.893 1224.79 958.154 1234.7 945.531C1238.71 940.505 1231.63 933.376 1227.62 938.518Z" fill="url(#paint8_linear_21_294)"/>
<path d="M1257.11 985.036C1245.9 991.23 1234.81 997.541 1223.61 1003.74C1217.94 1006.89 1223.02 1015.54 1228.68 1012.38C1239.89 1006.19 1250.98 999.879 1262.18 993.685C1267.85 990.529 1262.77 981.88 1257.11 985.036Z" fill="url(#paint9_linear_21_294)"/>
<path d="M1589.21 1810.54H1589.09L249.145 1773.84C246.432 1773.72 244.308 1771.62 244.19 1768.93L215.876 770.45C215.759 769.982 215.759 769.515 215.876 769.047L207.382 474.167C207.264 471.362 209.506 469.141 212.219 469.024L1381.46 433.61C1383.93 433.61 1386.17 435.364 1386.65 437.818L1594.28 1804.69C1594.52 1806.21 1594.04 1807.62 1593.1 1808.78C1592.04 1809.84 1590.62 1810.54 1589.21 1810.54ZM254.218 1764.02L1583.31 1800.37L1377.21 443.779L217.528 478.959L225.904 769.631C225.904 769.748 225.904 769.748 225.904 769.865L254.218 1764.02Z" fill="#000200"/>
<path d="M1589.21 1810.54C1587.91 1810.54 1586.61 1810.07 1585.67 1809.13L686.945 939.921C684.939 938.051 684.939 934.896 686.827 932.909C688.833 930.922 692.018 930.922 693.905 932.792L1592.63 1801.89C1594.63 1803.76 1594.63 1806.91 1592.75 1808.9C1591.8 1809.95 1590.51 1810.54 1589.21 1810.54Z" fill="#000200"/>
<path d="M432.83 692.142C431.532 692.142 430.234 691.675 429.29 690.74L208.916 477.673C206.91 475.803 206.91 472.647 208.798 470.66C210.803 468.673 213.989 468.673 215.876 470.544L436.251 683.727C438.256 685.597 438.256 688.753 436.369 690.74C435.425 691.675 434.127 692.142 432.83 692.142Z" fill="#000200"/>
<path d="M265.543 1901H110.29C107.458 1901 105.217 1898.78 105.217 1895.97V1770.45C105.217 1767.64 107.458 1765.42 110.29 1765.42C113.121 1765.42 115.363 1767.64 115.363 1770.45V1890.95H265.661C268.492 1890.95 270.734 1893.17 270.734 1895.97C270.616 1898.78 268.374 1901 265.543 1901Z" fill="#000200"/>
<path d="M1467.69 443.545C1465.22 443.545 1463.09 441.792 1462.74 439.22L1448.46 340.576H1342.76C1339.93 340.576 1337.69 338.356 1337.69 335.551C1337.69 332.746 1339.93 330.525 1342.76 330.525H1452.83C1455.31 330.525 1457.43 332.395 1457.78 334.849L1472.65 437.818C1473 440.506 1471.12 443.077 1468.4 443.428C1468.17 443.545 1467.93 443.545 1467.69 443.545Z" fill="#000200"/>
<path d="M795.481 1663.74C793.712 1663.74 791.942 1662.8 790.998 1661.05C705.939 1500.35 618.757 1449.97 547.383 1412.1L569.09 1603.9C569.326 1605.65 568.5 1607.4 567.084 1608.46C565.669 1609.51 563.781 1609.74 562.13 1609.16L487.098 1579.35L436.134 1652.52C435.308 1653.69 434.128 1654.39 432.712 1654.62C431.297 1654.86 429.881 1654.39 428.819 1653.57L246.078 1505.14C243.955 1503.38 237.702 1494.38 239.472 1492.28C241.241 1490.18 250.325 1495.67 252.449 1497.42L430.943 1642.47L481.082 1570.47C482.379 1568.48 484.857 1567.78 487.098 1568.72L558 1596.89L536.175 1404.04C535.939 1402.17 536.765 1400.42 538.299 1399.36C539.832 1398.31 541.838 1398.19 543.49 1399.13C617.577 1438.17 709.832 1486.79 799.728 1656.61C801.026 1659.06 800.082 1662.1 797.605 1663.39C797.133 1663.51 796.307 1663.74 795.481 1663.74Z" fill="#000200"/>
<path d="M528.507 1781.43C525.911 1781.43 523.67 1779.45 523.434 1776.88L509.985 1616.17L481.081 1575.96C479.43 1573.74 480.02 1570.59 482.261 1568.95C484.503 1567.32 487.688 1567.9 489.339 1570.12L519.069 1611.38C519.541 1612.08 519.895 1613.01 520.013 1613.83L533.58 1775.94C533.816 1778.75 531.692 1781.08 528.979 1781.32C528.861 1781.43 528.743 1781.43 528.507 1781.43Z" fill="#000200"/>
<path d="M694.85 1781.43C692.373 1781.43 690.249 1779.56 689.895 1777.11L676.092 1675.43C675.738 1672.74 677.626 1670.17 680.457 1669.82C683.171 1669.35 685.766 1671.34 686.12 1674.14L699.923 1775.82C700.277 1778.51 698.389 1781.08 695.558 1781.43C695.322 1781.43 695.086 1781.43 694.85 1781.43Z" fill="#000200"/>
<path d="M265.661 1117.46C251.976 1117.46 239.707 1115.94 228.971 1112.9C226.258 1112.08 224.724 1109.39 225.55 1106.7C226.376 1104.02 229.089 1102.5 231.802 1103.31C241.948 1106.24 253.745 1107.52 266.84 1107.52C270.144 1107.64 271.913 1109.74 271.913 1112.43C271.913 1115.24 269.672 1117.46 266.959 1117.46C266.487 1117.46 266.133 1117.46 265.661 1117.46Z" fill="#000200"/>
<path d="M485.33 1578.19C484.386 1578.19 483.324 1577.95 482.498 1577.37L236.287 1415.26C233.928 1413.74 233.338 1410.58 234.872 1408.36C236.405 1406.03 239.591 1405.44 241.832 1406.96L481.672 1564.98L498.071 1475.33C498.543 1472.65 501.256 1470.89 503.969 1471.36C506.683 1471.83 508.57 1474.4 507.981 1477.2L490.284 1574.21C489.931 1575.85 488.869 1577.25 487.335 1577.95C486.627 1577.95 486.037 1578.19 485.33 1578.19Z" fill="#000200"/>
<path d="M227.437 1007.83C225.314 1007.83 223.19 1006.42 222.601 1004.2C221.775 1001.52 223.308 998.827 226.022 998.009C246.785 992.048 273.565 990.295 305.89 992.983C308.721 993.217 310.727 995.671 310.491 998.36C310.255 1001.16 307.777 1003.15 305.064 1002.92C274.037 1000.35 248.437 1001.87 228.853 1007.48C228.381 1007.83 227.909 1007.83 227.437 1007.83Z" fill="#000200"/>
<path d="M590.678 1127.62C589.616 1127.62 588.555 1127.62 587.493 1127.62C584.662 1127.51 582.538 1125.17 582.656 1122.48C582.774 1119.68 585.369 1117.81 587.847 1117.69C604.127 1118.27 617.34 1114.3 624.065 1107.05C628.076 1102.73 629.61 1097.12 628.666 1090.58C626.542 1074.8 594.689 1066.97 582.656 1065.21C580.061 1064.86 578.291 1062.64 578.291 1060.07L580.769 986.438C580.886 983.75 583.128 981.646 585.841 981.646C585.959 981.646 585.959 981.646 585.959 981.646C588.791 981.763 590.914 984.1 590.796 986.788L588.437 1055.98C601.414 1058.43 635.508 1066.85 638.576 1089.17C639.873 1098.64 637.396 1107.17 631.379 1113.72C623.239 1122.6 608.492 1127.62 590.678 1127.62Z" fill="#000200"/>
<path d="M502.789 982.815L499.84 998.593C495.946 1018.93 464.094 1013.09 467.869 992.632L470.818 976.854C474.711 956.517 506.682 962.361 502.789 982.815Z" fill="#000200"/>
<path d="M657.569 998.476L654.62 1014.25C650.727 1034.59 618.874 1028.75 622.649 1008.41L625.598 992.632C629.492 972.296 661.462 978.14 657.569 998.476Z" fill="#000200"/>
<path d="M478.25 900.65C465.155 902.988 452.414 906.027 439.909 910.935C430.235 914.676 438.021 928.818 447.577 925.078C458.549 920.753 470.346 918.416 481.907 916.312C492.289 914.442 488.514 898.78 478.25 900.65Z" fill="#000200"/>
<path d="M663.232 916.779C655.21 911.052 646.008 906.611 638.458 900.3C630.554 893.638 618.638 904.624 626.66 911.286C635.39 918.649 645.418 923.792 654.62 930.454C663.114 936.415 671.726 922.74 663.232 916.779Z" fill="#000200"/>
<path d="M483.441 1199.85C471.408 1197.63 455.481 1191.56 455.009 1177.18C454.774 1166.9 438.493 1166.31 438.729 1176.6C439.319 1198.57 458.313 1211.31 478.486 1215.17C488.868 1217.15 493.705 1201.84 483.441 1199.85Z" fill="#000200"/>
<path d="M454.302 683.843C335.62 679.987 257.994 706.868 217.057 766.359C216.703 766.709 216.349 767.177 216.231 767.644C215.405 769.397 215.877 771.618 217.175 773.137C218.237 774.306 219.652 774.774 221.068 774.774L227.439 1002.92V1003.27C241.595 1000.46 256.106 1000.46 270.735 1002.45C284.302 999.762 301.644 998.242 310.492 998.593C338.57 926.246 322.525 833.095 382.338 813.694C427.876 798.85 625.953 797.448 675.148 833.212C677.744 847.588 678.924 863.133 678.688 879.846C678.216 906.845 677.862 932.791 677.508 957.686C674.087 1194.83 672.081 1337.89 590.561 1381.01C521.075 1417.71 398.972 1406.26 397.675 1406.14C395.905 1406.03 394.253 1406.73 393.192 1408.01C392.13 1409.3 391.776 1411.17 392.366 1412.69C410.77 1466.57 498.542 1480.59 502.317 1481.18C502.553 1481.18 502.789 1481.29 503.143 1481.29C505.502 1481.29 507.626 1479.66 508.098 1477.32L520.131 1416.78C520.367 1415.38 520.013 1413.97 519.305 1412.92C546.085 1408.83 573.101 1401.7 595.398 1390.01C682.227 1344.08 684.232 1198.8 687.654 958.037C688.008 933.025 688.362 907.078 688.833 880.197C690.957 753.268 614.274 689.22 454.302 683.843Z" fill="#000200"/>
<path d="M263.891 1112.43L229.325 1113.02L232.393 1188.87C247.611 1166.31 258.111 1141.18 263.891 1112.43Z" fill="#000200"/>
<path d="M744.753 1787.4C744.163 1787.4 743.455 1787.28 742.865 1787.04C740.27 1785.99 739.09 1783.07 740.034 1780.5C744.989 1768.34 749.944 1756.07 754.78 1743.92C798.431 1635.1 839.603 1532.25 901.658 1508.88C923.719 1500.58 947.785 1502.68 972.914 1515.19C975.391 1516.47 976.453 1519.4 975.155 1521.85C973.975 1524.31 970.908 1525.36 968.431 1524.07C945.544 1512.73 924.898 1510.75 905.197 1518.11C847.272 1539.97 806.925 1640.83 764.1 1747.54C759.263 1759.7 754.309 1771.85 749.354 1784.12C748.646 1786.23 746.758 1787.4 744.753 1787.4Z" fill="#000200"/>
<path d="M1012.55 1690.39C1011.37 1690.39 1010.19 1690.39 1009.13 1690.27C1006.3 1690.04 1004.29 1687.7 1004.41 1685.01C1004.65 1682.21 1007.01 1680.22 1009.72 1680.34C1035.56 1681.86 1129.35 1659.42 1155.18 1645.27C1174.65 1634.52 1178.89 1617.81 1174.41 1609.74C1170.87 1603.43 1161.79 1603.2 1150.7 1609.16C1109.64 1631.48 957.576 1641.53 923.127 1641.53C913.1 1641.53 908.263 1636.62 906.021 1632.53C900.948 1623.3 903.78 1607.87 913.336 1593.38C924.425 1576.43 940.116 1566.97 955.098 1568.13C957.812 1568.37 959.935 1570.71 959.699 1573.51C959.463 1576.2 957.104 1578.42 954.273 1578.07C940.942 1577.13 928.79 1588.12 921.712 1598.76C914.515 1609.74 911.566 1621.9 914.751 1627.74C915.223 1628.68 916.875 1631.48 923.01 1631.48C955.806 1631.48 1106.93 1621.43 1145.74 1600.39C1165.56 1589.64 1178.19 1596.07 1183.14 1604.83C1190.57 1618.27 1183.85 1640.83 1160.02 1653.92C1133.83 1668.41 1043.93 1690.39 1012.55 1690.39Z" fill="#000200"/>
<path d="M1007.6 1747.31C1005.47 1747.31 1003.47 1745.9 1002.76 1743.8C1001.94 1741.11 1003.35 1738.31 1006.06 1737.49C1018.45 1733.52 1033.43 1730.59 1049.24 1727.32C1102.33 1716.68 1162.5 1704.65 1152.82 1650.3C1152.35 1647.61 1154.12 1645.04 1156.95 1644.46C1159.67 1643.99 1162.26 1645.74 1162.85 1648.55C1174.29 1712.48 1106.11 1726.15 1051.37 1737.14C1035.79 1740.29 1021.16 1743.22 1009.25 1746.96C1008.66 1747.19 1008.07 1747.31 1007.6 1747.31Z" fill="#000200"/>
<path d="M1000.99 1787.4C998.867 1787.4 996.861 1785.99 996.153 1783.89C995.328 1781.32 996.743 1778.4 999.457 1777.58C1011.84 1773.6 1026.83 1770.68 1042.63 1767.41C1095.72 1756.77 1155.89 1744.74 1146.22 1690.39C1145.74 1687.7 1147.51 1685.13 1150.34 1684.54C1153.06 1684.08 1155.65 1685.83 1156.24 1688.63C1167.69 1752.57 1099.5 1766.24 1044.76 1777.11C1029.19 1780.27 1014.56 1783.19 1002.64 1786.93C1002.05 1787.28 1001.58 1787.4 1000.99 1787.4Z" fill="#000200"/>
<path d="M1093.48 1796.98C1091.36 1796.98 1089.35 1795.58 1088.65 1793.47C1087.82 1790.78 1089.35 1788.1 1091.95 1787.28C1093.13 1786.93 1120.5 1778.28 1120.5 1747.07C1120.5 1744.27 1122.74 1742.05 1125.57 1742.05C1128.4 1742.05 1130.64 1744.27 1130.64 1747.07C1130.64 1785.76 1095.25 1796.75 1094.9 1796.86C1094.43 1796.86 1093.96 1796.98 1093.48 1796.98Z" fill="#000200"/>
<path d="M1197.06 1489.13C1196.12 1487.84 1194.59 1487.14 1193.05 1487.14H979.284C977.042 1487.14 975.037 1488.66 974.447 1490.76L933.038 1634.87C932.566 1636.39 932.92 1638.14 933.982 1639.43C934.926 1640.6 936.341 1641.3 937.875 1641.3C937.993 1641.3 938.111 1641.3 938.229 1641.3L1035.32 1633.82L1160.26 1605.65C1162.02 1605.3 1163.44 1604.02 1163.91 1602.26L1198.01 1493.68C1198.24 1492.05 1198.01 1490.41 1197.06 1489.13Z" fill="#000200"/>
<path d="M944.953 451.843L1021.16 449.389C987.07 465.751 957.222 477.205 948.138 476.621C946.015 468.557 944.953 460.258 944.953 451.843Z" fill="#000200"/>
<path d="M1075.67 624.47C1071.42 624.47 1067.53 623.652 1064.11 622.016C1058.68 619.328 1054.91 614.536 1053.37 608.225C1049.95 594.316 1066.23 581.81 1074.14 576.668L1057.5 538.683C1056.44 536.111 1057.62 533.19 1060.1 532.138C1062.69 531.086 1065.64 532.255 1066.7 534.709L1084.99 576.668C1086.05 579.005 1085.11 581.693 1082.87 582.979C1075.55 587.07 1061.04 598.173 1063.05 605.887C1063.87 609.393 1065.76 611.731 1068.47 613.133C1073.43 615.588 1081.57 614.77 1090.18 611.146C1092.78 609.978 1095.72 611.263 1096.79 613.718C1097.85 616.289 1096.67 619.211 1094.19 620.263C1087.7 623.068 1081.45 624.47 1075.67 624.47Z" fill="#000200"/>
<path d="M1028.95 541.605L1032.96 550.721C1038.15 562.526 1019.63 570.473 1014.44 558.669L1010.43 549.552C1005.24 537.748 1023.76 529.8 1028.95 541.605Z" fill="#000200"/>
<path d="M1143.5 529.683L1147.51 538.8C1152.7 550.604 1134.18 558.552 1128.99 546.747L1124.98 537.631C1119.79 525.826 1138.31 517.879 1143.5 529.683Z" fill="#000200"/>
<path d="M1111.77 480.478C1119.91 478.842 1127.93 477.79 1136.31 477.79C1142.79 477.79 1141.5 487.725 1135.13 487.725C1127.81 487.725 1120.5 489.01 1113.3 490.413C1106.81 491.581 1105.4 481.764 1111.77 480.478Z" fill="#000200"/>
<path d="M987.07 502.1C991.553 497.893 996.862 494.503 1000.99 489.945C1005.36 485.27 1013.5 490.997 1009.13 495.789C1004.29 500.932 998.513 504.905 993.441 509.814C988.84 514.256 982.469 506.542 987.07 502.1Z" fill="#000200"/>
<path d="M1170.28 636.859C1176.77 632.885 1184.56 625.756 1181.49 617.341C1179.25 611.38 1188.57 607.289 1190.69 613.367C1195.41 626.223 1187.27 637.794 1176.54 644.573C1171.11 648.079 1164.74 640.249 1170.28 636.859Z" fill="#000200"/>
<path d="M1277.05 473.349C1275.16 473.349 1273.27 472.297 1272.45 470.427L1261.01 444.129C1259.94 441.558 1261.12 438.636 1263.6 437.584C1266.2 436.416 1269.15 437.701 1270.21 440.156L1281.53 466.336C1282.71 468.907 1281.53 471.829 1279.05 472.881C1278.47 473.232 1277.76 473.349 1277.05 473.349Z" fill="#000200"/>
<path d="M1248.5 743.568C1248.38 741.815 1247.44 740.296 1246.02 739.477C1244.49 738.659 1242.72 738.542 1241.18 739.361C1240.48 739.711 1173 773.605 1124.98 767.995C1069.06 761.567 1035.32 679.753 979.283 544.059C973.384 529.683 967.25 514.84 960.761 499.295C957.34 491.114 954.745 483.166 952.975 475.452C950.969 467.388 950.026 459.44 950.026 451.843C950.026 449.038 947.784 446.818 944.953 446.818C942.121 446.818 939.88 449.038 939.88 451.843C939.88 460.375 940.942 469.141 943.183 477.79C945.071 485.971 947.902 494.503 951.559 503.152C958.048 518.58 964.182 533.54 970.081 547.799C1027.53 686.883 1062.22 770.8 1123.92 777.93C1139.02 779.683 1155.65 777.93 1171.58 774.54C1171.82 775.359 1172.41 776.177 1173.11 776.761L1221.25 817.317C1222.19 818.135 1223.37 818.486 1224.55 818.486C1224.9 818.486 1225.14 818.486 1225.38 818.369C1226.91 818.136 1228.09 817.201 1228.92 815.915C1229.74 814.512 1250.15 778.397 1248.5 743.568Z" fill="#000200"/>
<path d="M1381.57 438.636L1265.61 442.143L1224.43 443.428L1136.19 446C1146.57 460.843 1224.9 500.698 1242.95 488.66C1243.31 488.543 1243.66 488.426 1244.02 488.309C1270.8 475.219 1292.15 471.011 1305.95 475.92C1312.56 478.375 1317.4 482.816 1320.23 489.361C1322 493.335 1324.24 501.399 1320.23 510.866C1315.74 521.502 1304.77 530.385 1288.49 536.579C1288.14 536.696 1287.78 536.93 1287.43 537.164C1246.02 563.695 1264.19 639.431 1315.63 661.17C1348.54 675.078 1383.46 669.702 1414.25 653.924L1381.57 438.636Z" fill="#000200"/>
<path d="M1058.21 722.296C1023.52 659.417 993.205 594.55 967.132 527.813C967.014 527.346 966.66 527.112 966.425 526.761C969.728 523.021 965.481 516.242 960.408 519.047C909.443 547.332 884.197 606.705 905.196 661.871C927.965 721.712 994.502 749.763 1054.67 729.426C1057.74 728.374 1059.98 725.335 1058.21 722.296Z" fill="#000200"/>
<path d="M1263.36 838.005C1247.55 838.005 1233.28 830.875 1220.66 816.733C1218.77 814.629 1219.01 811.473 1221.13 809.72C1223.25 807.85 1226.44 808.084 1228.21 810.188C1241.42 825.031 1256.64 830.641 1273.63 826.901C1320.58 816.382 1371.31 737.958 1385.58 688.636C1386.41 685.948 1389.12 684.428 1391.84 685.246C1394.55 685.948 1396.08 688.753 1395.26 691.441C1380.04 744.386 1327.19 825.265 1275.87 836.719C1271.62 837.537 1267.49 838.005 1263.36 838.005Z" fill="#000200"/>
<path d="M1420.86 702.193C1420.5 702.193 1420.03 702.193 1419.68 702.077L1389.36 694.83C1388.3 694.596 1387.24 693.895 1386.53 692.96L1359.28 657.897C1357.62 655.676 1357.98 652.638 1360.22 650.884C1362.46 649.248 1365.65 649.599 1367.3 651.819L1393.37 685.48L1421.92 692.376C1424.63 693.077 1426.29 695.765 1425.58 698.453C1425.11 700.674 1423.1 702.193 1420.86 702.193Z" fill="#000200"/>
<path d="M1206.62 1375.87C1206.03 1375.87 1205.56 1375.76 1204.97 1375.64C1184.56 1368.63 1190.81 1348.41 1200.96 1314.98C1206.74 1296.16 1213.82 1272.79 1219.48 1243.33C1230.1 1188.75 1278.58 1099.69 1485.63 1117.22C1488.34 1117.46 1490.46 1119.91 1490.23 1122.6C1489.99 1125.29 1487.51 1127.39 1484.8 1127.16C1337.33 1114.65 1246.49 1156.61 1229.39 1245.2C1223.61 1275.24 1216.41 1298.97 1210.51 1317.9C1200.37 1350.98 1197.42 1362.66 1208.15 1366.29C1210.75 1367.22 1212.16 1370.03 1211.22 1372.6C1210.63 1374.59 1208.74 1375.87 1206.62 1375.87Z" fill="#000200"/>
<path d="M1181.25 1309.95C1179.96 1309.95 1178.66 1309.49 1177.71 1308.55C1177.01 1307.85 1173.47 1304.23 1173.35 1295.93C1173.11 1281.79 1183.14 1254.67 1232.34 1205.93C1234.34 1203.95 1237.53 1203.95 1239.41 1205.93C1241.42 1207.92 1241.42 1211.08 1239.41 1212.95C1170.99 1280.73 1184.56 1301.19 1184.79 1301.3C1186.8 1303.17 1186.8 1306.21 1184.91 1308.32C1183.97 1309.49 1182.67 1309.95 1181.25 1309.95Z" fill="#000200"/>
<path d="M1251.8 1413.97C1249.8 1413.97 1247.56 1413.51 1245.08 1412.34C1219.48 1400.3 1223.13 1335.9 1253.93 1259C1254.99 1256.42 1257.94 1255.14 1260.41 1256.19C1263.01 1257.24 1264.31 1260.16 1263.25 1262.62C1232.57 1339.17 1232.22 1395.16 1249.33 1403.22C1251.68 1404.39 1252.63 1403.69 1253.1 1403.45C1258.06 1400.42 1260.89 1384.99 1261.24 1375.52C1261.36 1372.72 1263.95 1370.5 1266.43 1370.73C1269.26 1370.85 1271.39 1373.18 1271.27 1375.87C1271.15 1380.66 1269.62 1405.09 1258.29 1411.99C1256.76 1413.16 1254.52 1413.97 1251.8 1413.97Z" fill="#000200"/>
<path d="M1286.37 1411.87C1283.18 1411.87 1279.17 1410.7 1274.93 1406.96C1252.63 1387.21 1256.99 1339.29 1287.79 1264.49C1288.85 1261.92 1291.8 1260.75 1294.39 1261.8C1296.99 1262.85 1298.17 1265.77 1297.11 1268.35C1259 1360.68 1271.03 1390.13 1281.65 1399.48C1284.95 1402.4 1286.72 1401.94 1287.31 1401.7C1292.5 1400.07 1297.81 1387.68 1299.7 1379.85C1300.41 1377.16 1303.12 1375.52 1305.84 1376.11C1308.55 1376.81 1310.2 1379.5 1309.49 1382.18C1308.43 1386.39 1302.77 1407.43 1290.26 1411.29C1289.2 1411.64 1287.79 1411.87 1286.37 1411.87Z" fill="#000200"/>
<path d="M1324.47 1403.69C1318.1 1403.69 1311.26 1398.78 1303.59 1388.96C1297.46 1381.01 1281.3 1349.69 1331.55 1277.93C1333.09 1275.71 1336.27 1275.12 1338.51 1276.64C1340.75 1278.16 1341.34 1281.32 1339.81 1283.54C1292.27 1351.33 1307.96 1378.09 1311.5 1382.77C1318.46 1391.65 1323.18 1394.1 1325.06 1393.52C1325.77 1393.29 1332.02 1390.48 1333.32 1360.44C1334.15 1341.63 1353.73 1303.88 1372.73 1291.02C1392.19 1277.81 1437.49 1284.01 1514.29 1300.14C1517.01 1300.72 1518.78 1303.41 1518.19 1306.1C1517.6 1308.78 1514.88 1310.42 1512.17 1309.95C1441.74 1295.23 1394.67 1288.21 1378.39 1299.32C1362.58 1310.07 1344.06 1345.25 1343.35 1361.03C1342.29 1386.86 1337.45 1400.3 1328.13 1403.22C1326.95 1403.46 1325.65 1403.69 1324.47 1403.69Z" fill="#000200"/>
<path d="M1216.88 1400.77C1215.7 1400.77 1214.64 1400.65 1213.7 1400.42C1210.39 1399.6 1204.38 1396.68 1202.14 1385.92C1201.55 1383.24 1203.32 1380.55 1206.03 1380.08C1208.74 1379.5 1211.46 1381.25 1211.93 1383.94C1212.75 1387.79 1214.17 1390.25 1215.94 1390.72C1218.18 1391.18 1222.9 1389.2 1228.92 1381.83C1230.69 1379.73 1233.87 1379.38 1235.99 1381.13C1238.12 1382.88 1238.47 1386.04 1236.7 1388.14C1228.68 1398.08 1221.84 1400.77 1216.88 1400.77Z" fill="#000200"/>
<path d="M937.757 913.156C937.403 913.156 936.931 913.156 936.577 913.04C933.864 912.455 932.212 909.767 932.802 907.079C948.61 840.108 1015.86 764.489 1073.78 748.477C1076.49 747.776 1077.32 751.165 1080.03 751.983C1088.17 754.321 1079.21 757.36 1076.49 758.178C1021.52 773.372 957.694 845.368 942.594 909.416C942.004 911.637 939.998 913.156 937.757 913.156Z" fill="#000200"/>
<path d="M1438.91 1453.24C1420.51 1453.24 1398.92 1451.14 1373.91 1445.88C1371.19 1445.3 1369.42 1442.61 1370.01 1439.92C1370.6 1437.23 1373.2 1435.6 1376.03 1436.06C1486.45 1459.32 1526.45 1417.25 1526.92 1416.9C1528.81 1414.79 1531.99 1414.68 1534 1416.55C1536.12 1418.42 1536.24 1421.45 1534.47 1423.56C1533.05 1425.08 1506.86 1453.24 1438.91 1453.24Z" fill="#000200"/>
<path d="M1248.38 1469.72L1059.86 893.053C1059.15 890.949 1057.27 889.664 1055.14 889.547L686.828 887.326C684.233 887.326 681.991 889.313 681.755 891.884L677.744 935.947C677.626 937.466 678.216 938.986 679.278 940.038L1240.12 1474.98C1241.07 1475.92 1242.37 1476.39 1243.66 1476.39C1244.61 1476.39 1245.55 1476.15 1246.38 1475.57C1248.26 1474.28 1249.09 1471.94 1248.38 1469.72Z" fill="#000200"/>
<path d="M1285.31 1516.59C1283.89 1516.59 1282.6 1516.01 1281.53 1514.95C1279.65 1512.85 1279.88 1509.7 1281.89 1507.94L1479.14 1333.8L1465.81 1304.58L1267.97 1488.07C1265.96 1489.94 1262.78 1489.83 1260.89 1487.84C1259 1485.85 1259.12 1482.7 1261.12 1480.83L1464.04 1292.54C1465.22 1291.49 1466.87 1290.9 1468.52 1291.25C1470.17 1291.6 1471.47 1292.66 1472.18 1294.06L1489.88 1332.98C1490.82 1334.96 1490.23 1337.3 1488.58 1338.7L1288.49 1515.31C1287.67 1516.24 1286.49 1516.59 1285.31 1516.59Z" fill="#000200"/>
<path d="M502.527 196.961C502.918 195.086 503.895 193.562 505.457 192.391C507.098 191.141 508.934 190.008 510.965 188.992C513.074 187.977 515.262 187.039 517.527 186.18C519.793 185.242 521.863 184.266 523.738 183.25C525.691 182.234 527.293 181.062 528.543 179.734C529.793 178.328 530.418 176.648 530.418 174.695C530.418 172.195 529.754 170.125 528.426 168.484C527.176 166.844 525.457 165.438 523.27 164.266C521.16 163.094 518.738 162.117 516.004 161.336C513.27 160.555 510.457 159.773 507.566 158.992C504.754 158.133 501.98 157.234 499.246 156.297C496.512 155.281 494.051 154.031 491.863 152.547C489.754 151.062 488.035 149.266 486.707 147.156C485.457 145.047 484.832 142.43 484.832 139.305C484.832 136.727 485.34 134.305 486.355 132.039C487.449 129.695 488.855 127.508 490.574 125.477C492.371 123.367 494.402 121.453 496.668 119.734C499.012 118.016 501.434 116.57 503.934 115.398C506.512 114.227 509.09 113.328 511.668 112.703C514.246 112 516.629 111.648 518.816 111.648H520.105C520.809 111.883 521.746 112.273 522.918 112.82C524.09 113.367 525.223 113.914 526.316 114.461C527.41 114.93 528.348 115.398 529.129 115.867C529.91 116.258 530.301 116.492 530.301 116.57V119.266C528.816 119.422 526.902 119.734 524.559 120.203C522.215 120.594 519.754 121.141 517.176 121.844C514.598 122.547 511.98 123.445 509.324 124.539C506.668 125.555 504.285 126.766 502.176 128.172C500.066 129.578 498.348 131.219 497.02 133.094C495.691 134.891 495.027 136.961 495.027 139.305C495.027 142.664 496.199 145.32 498.543 147.273C500.887 149.148 503.816 150.711 507.332 151.961C510.848 153.211 514.676 154.344 518.816 155.359C523.035 156.297 526.902 157.469 530.418 158.875C533.934 160.203 536.863 162 539.207 164.266C541.551 166.453 542.723 169.422 542.723 173.172C542.723 175.203 542.098 177.352 540.848 179.617C539.676 181.805 538.074 183.992 536.043 186.18C534.09 188.289 531.863 190.32 529.363 192.273C526.863 194.227 524.285 195.945 521.629 197.43C519.051 198.836 516.512 200.008 514.012 200.945C511.512 201.805 509.285 202.234 507.332 202.234C506.707 202.234 506.043 202.156 505.34 202C504.637 201.844 504.012 201.609 503.465 201.297C502.996 200.906 502.605 200.359 502.293 199.656C502.059 198.953 502.137 198.055 502.527 196.961ZM597.918 186.883C594.949 188.914 592.371 190.75 590.184 192.391C588.074 193.953 586.004 195.281 583.973 196.375C581.941 197.469 579.754 198.289 577.41 198.836C575.145 199.383 572.332 199.656 568.973 199.656C561.707 199.656 556.316 197.742 552.801 193.914C549.285 190.008 547.527 184.227 547.527 176.57C547.527 173.602 547.918 170.516 548.699 167.312C549.48 164.109 550.613 160.945 552.098 157.82C553.66 154.617 555.496 151.609 557.605 148.797C559.715 145.906 562.098 143.367 564.754 141.18C567.41 138.992 570.223 137.273 573.191 136.023C576.238 134.695 579.441 134.031 582.801 134.031C588.426 134.578 592.84 135.984 596.043 138.25C599.246 140.438 601.668 143.289 603.309 146.805C604.949 150.242 606.082 154.109 606.707 158.406C607.332 162.625 607.801 167 608.113 171.531C608.504 176.062 608.973 180.594 609.52 185.125C610.066 189.656 611.199 193.836 612.918 197.664C611.902 200.242 610.926 202.039 609.988 203.055C609.129 204.148 608.152 204.344 607.059 203.641C605.965 202.938 604.676 201.219 603.191 198.484C601.785 195.75 600.027 191.883 597.918 186.883ZM557.488 176.805C557.488 181.258 558.309 184.539 559.949 186.648C561.668 188.68 564.676 189.695 568.973 189.695C572.176 189.695 575.223 189.148 578.113 188.055C581.082 186.883 583.66 185.32 585.848 183.367C588.035 181.336 589.793 178.914 591.121 176.102C592.449 173.289 593.113 170.164 593.113 166.727C593.113 165.32 593.152 163.367 593.23 160.867C593.309 158.289 593.152 155.75 592.762 153.25C592.371 150.75 591.629 148.602 590.535 146.805C589.441 144.93 587.801 143.992 585.613 143.992C581.551 143.992 577.801 145.047 574.363 147.156C570.926 149.188 567.957 151.805 565.457 155.008C562.957 158.211 561.004 161.766 559.598 165.672C558.191 169.5 557.488 173.211 557.488 176.805ZM617.723 152.781C617.723 150.828 618.035 149.305 618.66 148.211C619.363 147.117 620.809 146.57 622.996 146.57C623.23 146.57 623.66 146.609 624.285 146.688C624.988 146.688 625.418 146.688 625.574 146.688C626.121 149.109 626.668 151.766 627.215 154.656C627.84 157.469 628.543 160.32 629.324 163.211C630.105 166.102 630.965 168.953 631.902 171.766C632.918 174.578 634.129 177.117 635.535 179.383C636.941 177.898 637.957 176.141 638.582 174.109C639.207 172.078 639.676 170.047 639.988 168.016C640.301 165.906 640.574 163.914 640.809 162.039C641.121 160.086 641.707 158.445 642.566 157.117C643.426 155.711 644.676 154.695 646.316 154.07C648.035 153.445 650.379 153.445 653.348 154.07C656.629 154.07 659.246 154.695 661.199 155.945C663.152 157.117 664.832 158.641 666.238 160.516C667.723 162.312 669.129 164.266 670.457 166.375C671.863 168.406 673.621 170.242 675.73 171.883C676.199 170.867 676.785 169.617 677.488 168.133C678.191 166.57 679.051 164.969 680.066 163.328C681.16 161.609 682.293 159.93 683.465 158.289C684.715 156.57 686.004 155.047 687.332 153.719C688.66 152.312 690.027 151.18 691.434 150.32C692.84 149.383 694.207 148.914 695.535 148.914C698.738 148.914 701.512 149.93 703.855 151.961C706.199 153.914 708.191 156.414 709.832 159.461C711.551 162.43 712.957 165.789 714.051 169.539C715.145 173.211 716.004 176.766 716.629 180.203C717.254 183.641 717.684 186.805 717.918 189.695C718.23 192.508 718.387 194.539 718.387 195.789C718.387 196.805 718.152 197.586 717.684 198.133C717.215 198.68 716.629 199.109 715.926 199.422C715.223 199.656 714.441 199.812 713.582 199.891C712.801 199.969 712.059 200.008 711.355 200.008C711.199 200.008 710.965 200.008 710.652 200.008C710.34 199.93 709.988 199.852 709.598 199.773C709.285 199.695 708.855 199.578 708.309 199.422L700.691 164.383C700.691 164.148 700.379 163.719 699.754 163.094C699.129 162.391 698.66 161.961 698.348 161.805C698.113 161.805 697.918 161.766 697.762 161.688C697.605 161.688 697.488 161.688 697.41 161.688C697.332 161.609 697.254 161.57 697.176 161.57C695.535 161.57 693.973 162.234 692.488 163.562C691.082 164.891 689.754 166.57 688.504 168.602C687.254 170.633 686.082 172.898 684.988 175.398C683.895 177.898 682.918 180.398 682.059 182.898C681.199 185.32 680.418 187.586 679.715 189.695C679.09 191.727 678.582 193.289 678.191 194.383C677.879 194.539 677.254 194.695 676.316 194.852C675.379 194.93 674.754 194.969 674.441 194.969C672.254 194.969 670.574 194.227 669.402 192.742C668.23 191.18 667.254 189.266 666.473 187C665.77 184.734 665.145 182.273 664.598 179.617C664.129 176.883 663.504 174.383 662.723 172.117C662.02 169.852 661.004 167.977 659.676 166.492C658.426 164.93 656.629 164.148 654.285 164.148C653.426 164.148 652.605 165.008 651.824 166.727C651.043 168.445 650.34 170.633 649.715 173.289C649.09 175.867 648.504 178.68 647.957 181.727C647.41 184.695 646.941 187.508 646.551 190.164C646.238 192.742 646.004 194.93 645.848 196.727C645.691 198.523 645.613 199.422 645.613 199.422C645.457 199.656 645.145 199.93 644.676 200.242C644.207 200.477 643.699 200.75 643.152 201.062C642.684 201.375 642.176 201.609 641.629 201.766C641.16 201.922 640.809 202 640.574 202C638.387 202 636.277 201.023 634.246 199.07C632.215 197.039 630.34 194.461 628.621 191.336C626.98 188.133 625.457 184.617 624.051 180.789C622.723 176.961 621.59 173.211 620.652 169.539C619.715 165.867 618.973 162.547 618.426 159.578C617.957 156.609 617.723 154.344 617.723 152.781ZM723.191 169.422C723.191 165.203 723.699 160.984 724.715 156.766C725.73 152.547 727.332 148.758 729.52 145.398C731.785 142.039 734.676 139.305 738.191 137.195C741.785 135.086 746.121 134.031 751.199 134.031C754.09 134.031 756.629 134.578 758.816 135.672C761.004 136.688 762.84 138.055 764.324 139.773C765.809 141.492 766.902 143.523 767.605 145.867C768.387 148.133 768.777 150.516 768.777 153.016C768.777 157 767.84 160.867 765.965 164.617C764.168 168.367 761.707 171.688 758.582 174.578C755.535 177.391 752.02 179.539 748.035 181.023C744.051 182.43 739.988 182.742 735.848 181.961C735.926 184.227 736.668 186.062 738.074 187.469C739.559 188.797 741.316 189.812 743.348 190.516C745.379 191.219 747.488 191.688 749.676 191.922C751.863 192.078 753.816 192.156 755.535 192.156C757.332 192.156 759.012 192 760.574 191.688C762.137 191.375 763.699 191.023 765.262 190.633C766.824 190.242 768.387 189.891 769.949 189.578C771.59 189.266 773.309 189.109 775.105 189.109C775.809 189.109 776.512 189.148 777.215 189.227C777.918 189.305 778.582 189.5 779.207 189.812C779.832 190.047 780.34 190.477 780.73 191.102C781.121 191.648 781.316 192.352 781.316 193.211C781.316 194.695 780.77 195.945 779.676 196.961C778.582 197.898 777.176 198.719 775.457 199.422C773.816 200.125 771.98 200.672 769.949 201.062C767.918 201.375 765.926 201.648 763.973 201.883C762.098 202.039 760.34 202.117 758.699 202.117C757.137 202.195 755.965 202.234 755.184 202.234C750.184 202.234 745.691 201.453 741.707 199.891C737.723 198.25 734.363 196.023 731.629 193.211C728.895 190.32 726.785 186.883 725.301 182.898C723.895 178.836 723.191 174.344 723.191 169.422ZM735.613 161.805C735.613 164.539 735.965 166.531 736.668 167.781C737.449 169.031 739.285 169.656 742.176 169.656C744.207 169.656 746.199 169.305 748.152 168.602C750.105 167.82 751.863 166.766 753.426 165.438C755.066 164.109 756.355 162.547 757.293 160.75C758.23 158.953 758.699 157 758.699 154.891C758.699 153.719 758.582 152.508 758.348 151.258C758.191 150.008 757.801 148.875 757.176 147.859C756.551 146.766 755.73 145.906 754.715 145.281C753.777 144.578 752.527 144.227 750.965 144.227C748.621 144.227 746.473 144.773 744.52 145.867C742.645 146.883 741.043 148.25 739.715 149.969C738.387 151.609 737.371 153.484 736.668 155.594C735.965 157.625 735.613 159.695 735.613 161.805ZM840.027 142.938C840.027 142.703 840.066 142.508 840.145 142.352C840.145 142.195 840.184 142 840.262 141.766C840.574 141.375 841.043 140.867 841.668 140.242C842.293 139.617 842.684 139.305 842.84 139.305H866.395C866.395 138.445 866.277 137.078 866.043 135.203C865.809 133.328 865.574 131.258 865.34 128.992C865.184 126.727 865.145 124.383 865.223 121.961C865.301 119.461 865.613 117.234 866.16 115.281C866.785 113.25 867.723 111.609 868.973 110.359C870.301 109.031 872.137 108.367 874.48 108.367C874.48 116.258 875.027 122.586 876.121 127.352C877.215 132.117 878.66 135.789 880.457 138.367C882.332 140.945 884.441 142.625 886.785 143.406C889.129 144.188 891.512 144.539 893.934 144.461C896.434 144.305 898.855 143.914 901.199 143.289C903.543 142.664 905.613 142.234 907.41 142C909.285 141.766 910.77 141.961 911.863 142.586C912.957 143.133 913.504 144.5 913.504 146.688C913.504 148.328 913.113 149.5 912.332 150.203C911.629 150.906 910.223 151.453 908.113 151.844C907.488 151.922 906.434 152.078 904.949 152.312C903.543 152.469 901.941 152.625 900.145 152.781C898.348 152.938 896.434 153.133 894.402 153.367C892.371 153.523 890.457 153.68 888.66 153.836C886.863 153.992 885.223 154.109 883.738 154.188C882.254 154.188 881.16 154.188 880.457 154.188C880.457 154.578 880.418 155.242 880.34 156.18C880.262 157.117 880.223 157.742 880.223 158.055C880.223 161.492 880.77 164.852 881.863 168.133C882.957 171.336 884.129 174.539 885.379 177.742C886.707 180.945 887.918 184.148 889.012 187.352C890.105 190.555 890.652 193.875 890.652 197.312C890.652 197.938 890.574 198.602 890.418 199.305C890.34 199.93 890.105 200.516 889.715 201.062C889.402 201.531 888.895 201.883 888.191 202.117C887.566 202.43 886.668 202.391 885.496 202C882.527 201.219 880.301 199.539 878.816 196.961C877.41 194.383 876.355 191.336 875.652 187.82C874.949 184.227 874.48 180.438 874.246 176.453C874.012 172.469 873.621 168.758 873.074 165.32C872.605 161.805 871.824 158.836 870.73 156.414C869.637 153.914 867.879 152.391 865.457 151.844L842.84 146.688C842.527 146.688 842.059 146.375 841.434 145.75C840.809 145.047 840.418 144.539 840.262 144.227C840.184 144.07 840.145 143.875 840.145 143.641C840.066 143.484 840.027 143.25 840.027 142.938ZM917.957 152.781C917.957 152.078 917.996 151.375 918.074 150.672C918.152 149.891 918.309 149.227 918.543 148.68C918.777 148.055 919.129 147.547 919.598 147.156C920.145 146.766 920.887 146.57 921.824 146.57C922.605 146.57 923.465 147.195 924.402 148.445C925.418 149.617 926.434 151.141 927.449 153.016C928.465 154.812 929.441 156.805 930.379 158.992C931.395 161.18 932.254 163.211 932.957 165.086C933.738 166.883 934.363 168.445 934.832 169.773C935.301 171.102 935.574 171.805 935.652 171.883C936.668 169.148 937.801 166.18 939.051 162.977C940.301 159.773 941.824 156.805 943.621 154.07C945.496 151.258 947.684 148.914 950.184 147.039C952.762 145.164 955.887 144.227 959.559 144.227C961.434 144.227 963.191 144.539 964.832 145.164C966.551 145.711 968.035 146.57 969.285 147.742C970.613 148.836 971.668 150.164 972.449 151.727C973.23 153.289 973.621 155.086 973.621 157.117C973.621 158.836 972.918 160.047 971.512 160.75C970.184 161.453 968.66 161.805 966.941 161.805H965.77L960.73 156.766C960.574 156.766 960.457 156.727 960.379 156.648C960.223 156.648 960.066 156.648 959.91 156.648C959.832 156.57 959.715 156.531 959.559 156.531C956.824 156.531 954.676 157.312 953.113 158.875C951.629 160.359 950.496 162.234 949.715 164.5C948.934 166.688 948.426 169.031 948.191 171.531C948.035 173.953 947.957 176.18 947.957 178.211C947.957 179.773 948.113 181.375 948.426 183.016C948.738 184.578 949.09 186.141 949.48 187.703C949.871 189.188 950.223 190.75 950.535 192.391C950.848 193.953 951.004 195.594 951.004 197.312C951.004 200.594 949.246 202.234 945.73 202.234C943.777 202.234 941.746 201.219 939.637 199.188C937.527 197.078 935.418 194.422 933.309 191.219C931.277 188.016 929.324 184.5 927.449 180.672C925.574 176.766 923.934 172.977 922.527 169.305C921.121 165.633 919.988 162.312 919.129 159.344C918.348 156.375 917.957 154.188 917.957 152.781ZM1028.23 186.883C1025.26 188.914 1022.68 190.75 1020.5 192.391C1018.39 193.953 1016.32 195.281 1014.29 196.375C1012.25 197.469 1010.07 198.289 1007.72 198.836C1005.46 199.383 1002.64 199.656 999.285 199.656C992.02 199.656 986.629 197.742 983.113 193.914C979.598 190.008 977.84 184.227 977.84 176.57C977.84 173.602 978.23 170.516 979.012 167.312C979.793 164.109 980.926 160.945 982.41 157.82C983.973 154.617 985.809 151.609 987.918 148.797C990.027 145.906 992.41 143.367 995.066 141.18C997.723 138.992 1000.54 137.273 1003.5 136.023C1006.55 134.695 1009.75 134.031 1013.11 134.031C1018.74 134.578 1023.15 135.984 1026.36 138.25C1029.56 140.438 1031.98 143.289 1033.62 146.805C1035.26 150.242 1036.39 154.109 1037.02 158.406C1037.64 162.625 1038.11 167 1038.43 171.531C1038.82 176.062 1039.29 180.594 1039.83 185.125C1040.38 189.656 1041.51 193.836 1043.23 197.664C1042.21 200.242 1041.24 202.039 1040.3 203.055C1039.44 204.148 1038.46 204.344 1037.37 203.641C1036.28 202.938 1034.99 201.219 1033.5 198.484C1032.1 195.75 1030.34 191.883 1028.23 186.883ZM987.801 176.805C987.801 181.258 988.621 184.539 990.262 186.648C991.98 188.68 994.988 189.695 999.285 189.695C1002.49 189.695 1005.54 189.148 1008.43 188.055C1011.39 186.883 1013.97 185.32 1016.16 183.367C1018.35 181.336 1020.11 178.914 1021.43 176.102C1022.76 173.289 1023.43 170.164 1023.43 166.727C1023.43 165.32 1023.46 163.367 1023.54 160.867C1023.62 158.289 1023.46 155.75 1023.07 153.25C1022.68 150.75 1021.94 148.602 1020.85 146.805C1019.75 144.93 1018.11 143.992 1015.93 143.992C1011.86 143.992 1008.11 145.047 1004.68 147.156C1001.24 149.188 998.27 151.805 995.77 155.008C993.27 158.211 991.316 161.766 989.91 165.672C988.504 169.5 987.801 173.211 987.801 176.805ZM1098.31 212.898C1096.67 209.852 1094.83 206.062 1092.8 201.531C1090.85 196.922 1088.82 192.156 1086.71 187.234C1084.6 182.234 1082.37 177.352 1080.03 172.586C1077.76 167.82 1075.46 163.68 1073.11 160.164C1072.18 159.461 1070.89 159.031 1069.25 158.875C1067.61 158.719 1065.89 158.68 1064.09 158.758C1062.29 158.758 1060.5 158.719 1058.7 158.641C1056.98 158.484 1055.46 158.055 1054.13 157.352C1052.88 156.648 1051.94 155.555 1051.32 154.07C1050.69 152.586 1050.57 150.438 1050.96 147.625H1070.65C1071.04 143.25 1071.71 138.914 1072.64 134.617C1073.58 130.32 1074.83 126.219 1076.39 122.312C1078.04 118.406 1079.99 114.773 1082.25 111.414C1084.52 108.055 1087.25 105.164 1090.46 102.742C1093.66 100.32 1097.33 98.4062 1101.47 97C1105.69 95.5938 1110.46 94.8906 1115.77 94.8906C1117.64 94.8906 1119.52 95.3594 1121.39 96.2969C1123.27 97.1562 1124.95 98.3281 1126.43 99.8125C1127.92 101.297 1129.09 102.977 1129.95 104.852C1130.89 106.727 1131.36 108.602 1131.36 110.477C1129.87 110.477 1128.54 110.203 1127.37 109.656C1126.2 109.031 1125.07 108.367 1123.97 107.664C1122.88 106.883 1121.71 106.18 1120.46 105.555C1119.21 104.852 1117.8 104.5 1116.24 104.5C1111.55 104.5 1107.18 105.438 1103.11 107.312C1099.13 109.188 1095.61 111.688 1092.57 114.812C1089.6 117.938 1087.25 121.57 1085.54 125.711C1083.82 129.852 1082.96 134.227 1082.96 138.836C1082.96 139.148 1082.96 139.734 1082.96 140.594C1083.04 141.375 1083.07 142.234 1083.07 143.172C1083.07 144.109 1083.07 145.008 1083.07 145.867C1083.15 146.727 1083.19 147.312 1083.19 147.625C1086.08 148.562 1089.32 149.266 1092.92 149.734C1096.51 150.203 1100.11 150.516 1103.7 150.672C1107.37 150.75 1110.89 150.711 1114.25 150.555C1117.68 150.398 1120.73 150.203 1123.39 149.969C1123.62 150.203 1124.05 150.633 1124.68 151.258C1125.3 151.883 1125.65 152.352 1125.73 152.664C1125.73 152.898 1125.77 153.055 1125.85 153.133C1126 153.602 1126.08 153.836 1126.08 153.836C1126.08 155.477 1125.22 156.766 1123.5 157.703C1121.79 158.641 1119.6 159.344 1116.94 159.812C1114.29 160.203 1111.32 160.477 1108.04 160.633C1104.83 160.789 1101.71 160.945 1098.66 161.102C1095.69 161.18 1093 161.336 1090.57 161.57C1088.23 161.727 1086.59 162.078 1085.65 162.625C1086.67 167.312 1088.46 171.844 1091.04 176.219C1093.7 180.594 1096.39 184.969 1099.13 189.344C1101.86 193.719 1104.29 198.133 1106.39 202.586C1108.5 207.039 1109.56 211.609 1109.56 216.297C1109.25 216.297 1108.5 216.297 1107.33 216.297C1106.24 216.375 1105.07 216.336 1103.82 216.18C1102.57 216.023 1101.36 215.672 1100.18 215.125C1099.09 214.656 1098.46 213.914 1098.31 212.898ZM1181.04 212.898C1179.4 209.852 1177.57 206.062 1175.54 201.531C1173.58 196.922 1171.55 192.156 1169.44 187.234C1167.33 182.234 1165.11 177.352 1162.76 172.586C1160.5 167.82 1158.19 163.68 1155.85 160.164C1154.91 159.461 1153.62 159.031 1151.98 158.875C1150.34 158.719 1148.62 158.68 1146.82 158.758C1145.03 158.758 1143.23 158.719 1141.43 158.641C1139.71 158.484 1138.19 158.055 1136.86 157.352C1135.61 156.648 1134.68 155.555 1134.05 154.07C1133.43 152.586 1133.31 150.438 1133.7 147.625H1153.39C1153.78 143.25 1154.44 138.914 1155.38 134.617C1156.32 130.32 1157.57 126.219 1159.13 122.312C1160.77 118.406 1162.72 114.773 1164.99 111.414C1167.25 108.055 1169.99 105.164 1173.19 102.742C1176.39 100.32 1180.07 98.4062 1184.21 97C1188.43 95.5938 1193.19 94.8906 1198.5 94.8906C1200.38 94.8906 1202.25 95.3594 1204.13 96.2969C1206 97.1562 1207.68 98.3281 1209.17 99.8125C1210.65 101.297 1211.82 102.977 1212.68 104.852C1213.62 106.727 1214.09 108.602 1214.09 110.477C1212.61 110.477 1211.28 110.203 1210.11 109.656C1208.93 109.031 1207.8 108.367 1206.71 107.664C1205.61 106.883 1204.44 106.18 1203.19 105.555C1201.94 104.852 1200.54 104.5 1198.97 104.5C1194.29 104.5 1189.91 105.438 1185.85 107.312C1181.86 109.188 1178.35 111.688 1175.3 114.812C1172.33 117.938 1169.99 121.57 1168.27 125.711C1166.55 129.852 1165.69 134.227 1165.69 138.836C1165.69 139.148 1165.69 139.734 1165.69 140.594C1165.77 141.375 1165.81 142.234 1165.81 143.172C1165.81 144.109 1165.81 145.008 1165.81 145.867C1165.89 146.727 1165.93 147.312 1165.93 147.625C1168.82 148.562 1172.06 149.266 1175.65 149.734C1179.25 150.203 1182.84 150.516 1186.43 150.672C1190.11 150.75 1193.62 150.711 1196.98 150.555C1200.42 150.398 1203.46 150.203 1206.12 149.969C1206.36 150.203 1206.79 150.633 1207.41 151.258C1208.04 151.883 1208.39 152.352 1208.46 152.664C1208.46 152.898 1208.5 153.055 1208.58 153.133C1208.74 153.602 1208.82 153.836 1208.82 153.836C1208.82 155.477 1207.96 156.766 1206.24 157.703C1204.52 158.641 1202.33 159.344 1199.68 159.812C1197.02 160.203 1194.05 160.477 1190.77 160.633C1187.57 160.789 1184.44 160.945 1181.39 161.102C1178.43 161.18 1175.73 161.336 1173.31 161.57C1170.96 161.727 1169.32 162.078 1168.39 162.625C1169.4 167.312 1171.2 171.844 1173.78 176.219C1176.43 180.594 1179.13 184.969 1181.86 189.344C1184.6 193.719 1187.02 198.133 1189.13 202.586C1191.24 207.039 1192.29 211.609 1192.29 216.297C1191.98 216.297 1191.24 216.297 1190.07 216.297C1188.97 216.375 1187.8 216.336 1186.55 216.18C1185.3 216.023 1184.09 215.672 1182.92 215.125C1181.82 214.656 1181.2 213.914 1181.04 212.898ZM1221 158.055C1221 157.586 1221 156.844 1221 155.828C1221.08 154.734 1221.12 153.602 1221.12 152.43C1221.2 151.258 1221.24 150.125 1221.24 149.031C1221.32 147.938 1221.36 147.156 1221.36 146.688C1222.21 145.438 1223.31 144.422 1224.64 143.641C1226.04 142.859 1227.45 142.234 1228.86 141.766C1229.09 145.984 1229.75 150.477 1230.85 155.242C1231.94 160.008 1233.11 164.812 1234.36 169.656C1235.61 174.422 1236.71 179.148 1237.64 183.836C1238.66 188.523 1239.17 192.898 1239.17 196.961C1239.17 200.477 1237.37 202.234 1233.78 202.234C1231.59 202.234 1229.75 201.336 1228.27 199.539C1226.79 197.742 1225.57 195.477 1224.64 192.742C1223.78 189.93 1223.07 186.844 1222.53 183.484C1221.98 180.047 1221.59 176.688 1221.36 173.406C1221.2 170.125 1221.08 167.117 1221 164.383C1221 161.648 1221 159.539 1221 158.055ZM1222.64 114.109C1224.13 114.734 1225.38 115.75 1226.39 117.156C1227.41 118.562 1227.84 119.852 1227.68 121.023C1227.61 122.117 1226.75 122.898 1225.11 123.367C1223.46 123.758 1220.73 123.289 1216.9 121.961C1216.9 119.852 1217.29 118.016 1218.07 116.453C1218.93 114.891 1220.46 114.109 1222.64 114.109ZM1241.39 166.727C1241.39 163.445 1242.1 160.008 1243.5 156.414C1244.99 152.82 1246.94 149.578 1249.36 146.688C1251.79 143.719 1254.56 141.258 1257.68 139.305C1260.89 137.352 1264.25 136.375 1267.76 136.375C1269.56 136.375 1271.36 136.688 1273.15 137.312C1274.95 137.938 1276.55 138.836 1277.96 140.008C1279.44 141.18 1280.61 142.586 1281.47 144.227C1282.41 145.867 1282.88 147.703 1282.88 149.734C1281.47 149.734 1280.18 149.578 1279.01 149.266C1277.92 148.953 1276.82 148.602 1275.73 148.211C1274.64 147.742 1273.54 147.352 1272.45 147.039C1271.43 146.727 1270.3 146.57 1269.05 146.57C1265.85 146.57 1263.23 147.391 1261.2 149.031C1259.25 150.594 1257.68 152.586 1256.51 155.008C1255.34 157.43 1254.52 160.047 1254.05 162.859C1253.66 165.594 1253.46 168.172 1253.46 170.594C1253.46 170.984 1253.46 171.727 1253.46 172.82C1253.54 173.914 1253.58 175.086 1253.58 176.336C1253.66 177.508 1253.7 178.641 1253.7 179.734C1253.78 180.828 1253.86 181.57 1253.93 181.961C1254.79 183.836 1255.61 185.281 1256.39 186.297C1257.25 187.312 1258.15 188.094 1259.09 188.641C1260.03 189.109 1261.04 189.422 1262.14 189.578C1263.23 189.656 1264.52 189.695 1266 189.695C1268.04 189.695 1269.79 189.383 1271.28 188.758C1272.84 188.133 1274.29 187.391 1275.61 186.531C1276.94 185.672 1278.19 184.734 1279.36 183.719C1280.54 182.625 1281.75 181.648 1283 180.789C1284.32 179.852 1285.73 179.109 1287.21 178.562C1288.78 177.938 1290.54 177.625 1292.49 177.625C1292.49 181.453 1291.79 184.852 1290.38 187.82C1289.05 190.789 1287.14 193.328 1284.64 195.438C1282.21 197.547 1279.32 199.188 1275.96 200.359C1272.68 201.453 1269.09 202 1265.18 202C1261.51 202 1258.19 200.75 1255.22 198.25C1252.33 195.75 1249.83 192.703 1247.72 189.109C1245.69 185.438 1244.13 181.57 1243.04 177.508C1241.94 173.445 1241.39 169.852 1241.39 166.727ZM1370.77 196.961C1368.35 189.93 1366.04 183.367 1363.86 177.273C1361.75 171.102 1359.87 165.086 1358.23 159.227C1356.67 153.289 1355.42 147.273 1354.48 141.18C1353.54 135.086 1353.07 128.562 1353.07 121.609C1353.07 121.062 1353.07 120.086 1353.07 118.68C1353.15 117.195 1353.19 115.672 1353.19 114.109C1353.19 112.547 1353.19 111.062 1353.19 109.656C1353.27 108.172 1353.31 107.156 1353.31 106.609C1354.01 105.047 1355.22 103.602 1356.94 102.273C1358.74 100.945 1360.54 100.281 1362.33 100.281C1362.33 106.062 1362.41 112.234 1362.57 118.797C1362.72 125.281 1363.19 131.766 1363.97 138.25C1364.83 144.734 1366.16 151.102 1367.96 157.352C1369.83 163.523 1372.45 169.188 1375.81 174.344C1375.89 172.469 1375.96 170.398 1376.04 168.133C1376.12 165.867 1376.32 163.602 1376.63 161.336C1377.02 159.07 1377.61 156.883 1378.39 154.773C1379.17 152.664 1380.3 150.789 1381.79 149.148C1383.35 147.508 1385.34 146.219 1387.76 145.281C1390.26 144.344 1393.39 143.914 1397.14 143.992C1400.5 143.992 1403.5 144.617 1406.16 145.867C1408.89 147.117 1411.16 148.836 1412.96 151.023C1414.83 153.133 1416.24 155.633 1417.18 158.523C1418.19 161.336 1418.7 164.344 1418.7 167.547C1418.7 171.844 1417.64 176.062 1415.54 180.203C1413.43 184.344 1410.61 188.055 1407.1 191.336C1403.66 194.617 1399.79 197.273 1395.5 199.305C1391.2 201.258 1386.82 202.234 1382.37 202.234C1380.11 202.234 1377.92 201.844 1375.81 201.062C1373.7 200.203 1372.02 198.836 1370.77 196.961ZM1398.54 154.188C1396.98 155.047 1395.34 156.062 1393.62 157.234C1391.9 158.406 1390.3 160.242 1388.82 162.742C1387.41 165.164 1386.2 168.484 1385.18 172.703C1384.17 176.922 1383.54 182.508 1383.31 189.461C1383.46 189.461 1383.86 189.5 1384.48 189.578C1385.18 189.656 1385.65 189.695 1385.89 189.695C1388 189.695 1390.38 189.031 1393.04 187.703C1395.77 186.375 1398.39 184.734 1400.89 182.781C1403.46 180.828 1405.69 178.68 1407.57 176.336C1409.44 173.914 1410.57 171.609 1410.96 169.422C1411.2 168.094 1410.93 166.57 1410.14 164.852C1409.36 163.133 1408.31 161.492 1406.98 159.93C1405.73 158.289 1404.32 156.922 1402.76 155.828C1401.28 154.734 1399.87 154.188 1398.54 154.188ZM1425.85 154.188C1425.85 153.719 1425.85 152.898 1425.85 151.727C1425.93 150.477 1425.96 149.188 1425.96 147.859C1425.96 146.531 1425.96 145.32 1425.96 144.227C1426.04 143.055 1426.08 142.234 1426.08 141.766C1426.63 140.828 1427.25 139.93 1427.96 139.07C1428.74 138.133 1429.52 137.508 1430.3 137.195C1431.16 136.805 1432.06 136.727 1433 136.961C1434.01 137.195 1435.03 137.977 1436.04 139.305V140.242V141.766C1435.96 142.156 1435.81 143.094 1435.57 144.578C1435.34 145.984 1435.07 147.547 1434.75 149.266C1434.44 150.984 1434.13 152.586 1433.82 154.07C1433.58 155.477 1433.46 156.375 1433.46 156.766C1433.46 158.25 1433.62 160.125 1433.93 162.391C1434.25 164.578 1434.68 166.883 1435.22 169.305C1435.85 171.727 1436.59 174.148 1437.45 176.57C1438.39 178.992 1439.48 181.18 1440.73 183.133C1441.98 185.008 1443.35 186.57 1444.83 187.82C1446.39 189.07 1448.19 189.695 1450.22 189.695C1452.72 189.695 1454.91 189.031 1456.79 187.703C1458.74 186.375 1460.42 184.656 1461.82 182.547C1463.23 180.438 1464.36 178.055 1465.22 175.398C1466.16 172.742 1466.9 170.086 1467.45 167.43C1468 164.695 1468.39 162.078 1468.62 159.578C1468.86 157.078 1468.97 154.891 1468.97 153.016C1468.97 151.141 1468.82 149.383 1468.5 147.742C1468.27 146.023 1467.96 144.344 1467.57 142.703C1467.18 141.062 1466.82 139.461 1466.51 137.898C1466.28 136.258 1466.16 134.617 1466.16 132.977C1466.16 131.492 1466.67 130.438 1467.68 129.812C1468.78 129.188 1469.99 128.875 1471.32 128.875C1472.96 128.875 1474.29 129.383 1475.3 130.398C1476.32 131.336 1477.1 132.547 1477.64 134.031C1478.27 135.516 1478.66 137.234 1478.82 139.188C1479.05 141.062 1479.17 142.938 1479.17 144.812C1479.17 146.688 1479.13 148.484 1479.05 150.203C1478.97 151.844 1478.93 153.172 1478.93 154.188C1478.93 156.844 1478.74 159.852 1478.35 163.211C1477.96 166.57 1477.25 170.047 1476.24 173.641C1475.3 177.156 1474.09 180.633 1472.61 184.07C1471.2 187.508 1469.44 190.594 1467.33 193.328C1465.3 195.984 1462.92 198.133 1460.18 199.773C1457.53 201.414 1454.52 202.234 1451.16 202.234C1447.64 202.234 1444.56 201.414 1441.9 199.773C1439.25 198.055 1436.98 195.828 1435.11 193.094C1433.31 190.281 1431.79 187.117 1430.54 183.602C1429.29 180.086 1428.31 176.57 1427.61 173.055C1426.98 169.539 1426.51 166.141 1426.2 162.859C1425.96 159.5 1425.85 156.609 1425.85 154.188ZM1483.5 142.938C1483.5 142.703 1483.54 142.508 1483.62 142.352C1483.62 142.195 1483.66 142 1483.74 141.766C1484.05 141.375 1484.52 140.867 1485.14 140.242C1485.77 139.617 1486.16 139.305 1486.32 139.305H1509.87C1509.87 138.445 1509.75 137.078 1509.52 135.203C1509.29 133.328 1509.05 131.258 1508.82 128.992C1508.66 126.727 1508.62 124.383 1508.7 121.961C1508.78 119.461 1509.09 117.234 1509.64 115.281C1510.26 113.25 1511.2 111.609 1512.45 110.359C1513.78 109.031 1515.61 108.367 1517.96 108.367C1517.96 116.258 1518.5 122.586 1519.6 127.352C1520.69 132.117 1522.14 135.789 1523.93 138.367C1525.81 140.945 1527.92 142.625 1530.26 143.406C1532.61 144.188 1534.99 144.539 1537.41 144.461C1539.91 144.305 1542.33 143.914 1544.68 143.289C1547.02 142.664 1549.09 142.234 1550.89 142C1552.76 141.766 1554.25 141.961 1555.34 142.586C1556.43 143.133 1556.98 144.5 1556.98 146.688C1556.98 148.328 1556.59 149.5 1555.81 150.203C1555.11 150.906 1553.7 151.453 1551.59 151.844C1550.96 151.922 1549.91 152.078 1548.43 152.312C1547.02 152.469 1545.42 152.625 1543.62 152.781C1541.82 152.938 1539.91 153.133 1537.88 153.367C1535.85 153.523 1533.93 153.68 1532.14 153.836C1530.34 153.992 1528.7 154.109 1527.21 154.188C1525.73 154.188 1524.64 154.188 1523.93 154.188C1523.93 154.578 1523.89 155.242 1523.82 156.18C1523.74 157.117 1523.7 157.742 1523.7 158.055C1523.7 161.492 1524.25 164.852 1525.34 168.133C1526.43 171.336 1527.61 174.539 1528.86 177.742C1530.18 180.945 1531.39 184.148 1532.49 187.352C1533.58 190.555 1534.13 193.875 1534.13 197.312C1534.13 197.938 1534.05 198.602 1533.89 199.305C1533.82 199.93 1533.58 200.516 1533.19 201.062C1532.88 201.531 1532.37 201.883 1531.67 202.117C1531.04 202.43 1530.14 202.391 1528.97 202C1526 201.219 1523.78 199.539 1522.29 196.961C1520.89 194.383 1519.83 191.336 1519.13 187.82C1518.43 184.227 1517.96 180.438 1517.72 176.453C1517.49 172.469 1517.1 168.758 1516.55 165.32C1516.08 161.805 1515.3 158.836 1514.21 156.414C1513.11 153.914 1511.36 152.391 1508.93 151.844L1486.32 146.688C1486 146.688 1485.54 146.375 1484.91 145.75C1484.29 145.047 1483.89 144.539 1483.74 144.227C1483.66 144.07 1483.62 143.875 1483.62 143.641C1483.54 143.484 1483.5 143.25 1483.5 142.938ZM1612.88 152.781C1612.88 150.828 1613.19 149.305 1613.82 148.211C1614.52 147.117 1615.96 146.57 1618.15 146.57C1618.39 146.57 1618.82 146.609 1619.44 146.688C1620.14 146.688 1620.57 146.688 1620.73 146.688C1621.28 149.109 1621.82 151.766 1622.37 154.656C1623 157.469 1623.7 160.32 1624.48 163.211C1625.26 166.102 1626.12 168.953 1627.06 171.766C1628.07 174.578 1629.29 177.117 1630.69 179.383C1632.1 177.898 1633.11 176.141 1633.74 174.109C1634.36 172.078 1634.83 170.047 1635.14 168.016C1635.46 165.906 1635.73 163.914 1635.96 162.039C1636.28 160.086 1636.86 158.445 1637.72 157.117C1638.58 155.711 1639.83 154.695 1641.47 154.07C1643.19 153.445 1645.54 153.445 1648.5 154.07C1651.79 154.07 1654.4 154.695 1656.36 155.945C1658.31 157.117 1659.99 158.641 1661.39 160.516C1662.88 162.312 1664.29 164.266 1665.61 166.375C1667.02 168.406 1668.78 170.242 1670.89 171.883C1671.36 170.867 1671.94 169.617 1672.64 168.133C1673.35 166.57 1674.21 164.969 1675.22 163.328C1676.32 161.609 1677.45 159.93 1678.62 158.289C1679.87 156.57 1681.16 155.047 1682.49 153.719C1683.82 152.312 1685.18 151.18 1686.59 150.32C1688 149.383 1689.36 148.914 1690.69 148.914C1693.89 148.914 1696.67 149.93 1699.01 151.961C1701.36 153.914 1703.35 156.414 1704.99 159.461C1706.71 162.43 1708.11 165.789 1709.21 169.539C1710.3 173.211 1711.16 176.766 1711.79 180.203C1712.41 183.641 1712.84 186.805 1713.07 189.695C1713.39 192.508 1713.54 194.539 1713.54 195.789C1713.54 196.805 1713.31 197.586 1712.84 198.133C1712.37 198.68 1711.79 199.109 1711.08 199.422C1710.38 199.656 1709.6 199.812 1708.74 199.891C1707.96 199.969 1707.21 200.008 1706.51 200.008C1706.36 200.008 1706.12 200.008 1705.81 200.008C1705.5 199.93 1705.14 199.852 1704.75 199.773C1704.44 199.695 1704.01 199.578 1703.46 199.422L1695.85 164.383C1695.85 164.148 1695.54 163.719 1694.91 163.094C1694.29 162.391 1693.82 161.961 1693.5 161.805C1693.27 161.805 1693.07 161.766 1692.92 161.688C1692.76 161.688 1692.64 161.688 1692.57 161.688C1692.49 161.609 1692.41 161.57 1692.33 161.57C1690.69 161.57 1689.13 162.234 1687.64 163.562C1686.24 164.891 1684.91 166.57 1683.66 168.602C1682.41 170.633 1681.24 172.898 1680.14 175.398C1679.05 177.898 1678.07 180.398 1677.21 182.898C1676.36 185.32 1675.57 187.586 1674.87 189.695C1674.25 191.727 1673.74 193.289 1673.35 194.383C1673.04 194.539 1672.41 194.695 1671.47 194.852C1670.54 194.93 1669.91 194.969 1669.6 194.969C1667.41 194.969 1665.73 194.227 1664.56 192.742C1663.39 191.18 1662.41 189.266 1661.63 187C1660.93 184.734 1660.3 182.273 1659.75 179.617C1659.29 176.883 1658.66 174.383 1657.88 172.117C1657.18 169.852 1656.16 167.977 1654.83 166.492C1653.58 164.93 1651.79 164.148 1649.44 164.148C1648.58 164.148 1647.76 165.008 1646.98 166.727C1646.2 168.445 1645.5 170.633 1644.87 173.289C1644.25 175.867 1643.66 178.68 1643.11 181.727C1642.57 184.695 1642.1 187.508 1641.71 190.164C1641.39 192.742 1641.16 194.93 1641 196.727C1640.85 198.523 1640.77 199.422 1640.77 199.422C1640.61 199.656 1640.3 199.93 1639.83 200.242C1639.36 200.477 1638.86 200.75 1638.31 201.062C1637.84 201.375 1637.33 201.609 1636.79 201.766C1636.32 201.922 1635.96 202 1635.73 202C1633.54 202 1631.43 201.023 1629.4 199.07C1627.37 197.039 1625.5 194.461 1623.78 191.336C1622.14 188.133 1620.61 184.617 1619.21 180.789C1617.88 176.961 1616.75 173.211 1615.81 169.539C1614.87 165.867 1614.13 162.547 1613.58 159.578C1613.11 156.609 1612.88 154.344 1612.88 152.781ZM1718.35 178.211C1718.35 173.367 1719.48 168.875 1721.75 164.734C1724.01 160.516 1726.98 156.922 1730.65 153.953C1734.4 150.906 1738.58 148.523 1743.19 146.805C1747.88 145.086 1752.61 144.227 1757.37 144.227C1760.03 144.227 1762.37 145.086 1764.4 146.805C1766.51 148.523 1768.27 150.633 1769.68 153.133C1771.08 155.555 1772.14 158.133 1772.84 160.867C1773.62 163.602 1774.01 165.984 1774.01 168.016C1774.01 172.391 1772.96 176.648 1770.85 180.789C1768.74 184.852 1766 188.484 1762.64 191.688C1759.29 194.812 1755.5 197.352 1751.28 199.305C1747.06 201.258 1742.84 202.234 1738.62 202.234C1734.87 202.234 1731.71 201.609 1729.13 200.359C1726.55 199.031 1724.48 197.312 1722.92 195.203C1721.36 193.016 1720.18 190.477 1719.4 187.586C1718.7 184.617 1718.35 181.492 1718.35 178.211ZM1728.31 179.383C1728.31 181.414 1728.46 183.211 1728.78 184.773C1729.17 186.258 1729.79 187.547 1730.65 188.641C1731.59 189.734 1732.8 190.594 1734.29 191.219C1735.77 191.766 1737.61 192.039 1739.79 192.039C1742.68 192.039 1745.57 191.258 1748.46 189.695C1751.36 188.055 1753.93 186.023 1756.2 183.602C1758.54 181.102 1760.42 178.367 1761.82 175.398C1763.23 172.43 1763.93 169.539 1763.93 166.727C1763.93 165.477 1763.82 164.109 1763.58 162.625C1763.35 161.141 1762.96 159.773 1762.41 158.523C1761.86 157.273 1761.08 156.219 1760.07 155.359C1759.05 154.5 1757.76 154.07 1756.2 154.07C1754.79 154.07 1753.11 154.539 1751.16 155.477C1749.29 156.414 1747.29 157.625 1745.18 159.109C1743.15 160.594 1741.12 162.273 1739.09 164.148C1737.14 166.023 1735.34 167.898 1733.7 169.773C1732.06 171.648 1730.73 173.445 1729.71 175.164C1728.78 176.883 1728.31 178.289 1728.31 179.383ZM1778.58 152.781C1778.58 152.078 1778.62 151.375 1778.7 150.672C1778.78 149.891 1778.93 149.227 1779.17 148.68C1779.4 148.055 1779.75 147.547 1780.22 147.156C1780.77 146.766 1781.51 146.57 1782.45 146.57C1783.23 146.57 1784.09 147.195 1785.03 148.445C1786.04 149.617 1787.06 151.141 1788.07 153.016C1789.09 154.812 1790.07 156.805 1791 158.992C1792.02 161.18 1792.88 163.211 1793.58 165.086C1794.36 166.883 1794.99 168.445 1795.46 169.773C1795.93 171.102 1796.2 171.805 1796.28 171.883C1797.29 169.148 1798.43 166.18 1799.68 162.977C1800.93 159.773 1802.45 156.805 1804.25 154.07C1806.12 151.258 1808.31 148.914 1810.81 147.039C1813.39 145.164 1816.51 144.227 1820.18 144.227C1822.06 144.227 1823.82 144.539 1825.46 145.164C1827.18 145.711 1828.66 146.57 1829.91 147.742C1831.24 148.836 1832.29 150.164 1833.07 151.727C1833.86 153.289 1834.25 155.086 1834.25 157.117C1834.25 158.836 1833.54 160.047 1832.14 160.75C1830.81 161.453 1829.29 161.805 1827.57 161.805H1826.39L1821.36 156.766C1821.2 156.766 1821.08 156.727 1821 156.648C1820.85 156.648 1820.69 156.648 1820.54 156.648C1820.46 156.57 1820.34 156.531 1820.18 156.531C1817.45 156.531 1815.3 157.312 1813.74 158.875C1812.25 160.359 1811.12 162.234 1810.34 164.5C1809.56 166.688 1809.05 169.031 1808.82 171.531C1808.66 173.953 1808.58 176.18 1808.58 178.211C1808.58 179.773 1808.74 181.375 1809.05 183.016C1809.36 184.578 1809.71 186.141 1810.11 187.703C1810.5 189.188 1810.85 190.75 1811.16 192.391C1811.47 193.953 1811.63 195.594 1811.63 197.312C1811.63 200.594 1809.87 202.234 1806.36 202.234C1804.4 202.234 1802.37 201.219 1800.26 199.188C1798.15 197.078 1796.04 194.422 1793.93 191.219C1791.9 188.016 1789.95 184.5 1788.07 180.672C1786.2 176.766 1784.56 172.977 1783.15 169.305C1781.75 165.633 1780.61 162.312 1779.75 159.344C1778.97 156.375 1778.58 154.188 1778.58 152.781ZM1838.46 169.422C1838.46 165.203 1838.97 160.984 1839.99 156.766C1841 152.547 1842.61 148.758 1844.79 145.398C1847.06 142.039 1849.95 139.305 1853.46 137.195C1857.06 135.086 1861.39 134.031 1866.47 134.031C1869.36 134.031 1871.9 134.578 1874.09 135.672C1876.28 136.688 1878.11 138.055 1879.6 139.773C1881.08 141.492 1882.18 143.523 1882.88 145.867C1883.66 148.133 1884.05 150.516 1884.05 153.016C1884.05 157 1883.11 160.867 1881.24 164.617C1879.44 168.367 1876.98 171.688 1873.86 174.578C1870.81 177.391 1867.29 179.539 1863.31 181.023C1859.32 182.43 1855.26 182.742 1851.12 181.961C1851.2 184.227 1851.94 186.062 1853.35 187.469C1854.83 188.797 1856.59 189.812 1858.62 190.516C1860.65 191.219 1862.76 191.688 1864.95 191.922C1867.14 192.078 1869.09 192.156 1870.81 192.156C1872.61 192.156 1874.29 192 1875.85 191.688C1877.41 191.375 1878.97 191.023 1880.54 190.633C1882.1 190.242 1883.66 189.891 1885.22 189.578C1886.86 189.266 1888.58 189.109 1890.38 189.109C1891.08 189.109 1891.79 189.148 1892.49 189.227C1893.19 189.305 1893.86 189.5 1894.48 189.812C1895.11 190.047 1895.61 190.477 1896 191.102C1896.39 191.648 1896.59 192.352 1896.59 193.211C1896.59 194.695 1896.04 195.945 1894.95 196.961C1893.86 197.898 1892.45 198.719 1890.73 199.422C1889.09 200.125 1887.25 200.672 1885.22 201.062C1883.19 201.375 1881.2 201.648 1879.25 201.883C1877.37 202.039 1875.61 202.117 1873.97 202.117C1872.41 202.195 1871.24 202.234 1870.46 202.234C1865.46 202.234 1860.96 201.453 1856.98 199.891C1853 198.25 1849.64 196.023 1846.9 193.211C1844.17 190.32 1842.06 186.883 1840.57 182.898C1839.17 178.836 1838.46 174.344 1838.46 169.422ZM1850.89 161.805C1850.89 164.539 1851.24 166.531 1851.94 167.781C1852.72 169.031 1854.56 169.656 1857.45 169.656C1859.48 169.656 1861.47 169.305 1863.43 168.602C1865.38 167.82 1867.14 166.766 1868.7 165.438C1870.34 164.109 1871.63 162.547 1872.57 160.75C1873.5 158.953 1873.97 157 1873.97 154.891C1873.97 153.719 1873.86 152.508 1873.62 151.258C1873.46 150.008 1873.07 148.875 1872.45 147.859C1871.82 146.766 1871 145.906 1869.99 145.281C1869.05 144.578 1867.8 144.227 1866.24 144.227C1863.89 144.227 1861.75 144.773 1859.79 145.867C1857.92 146.883 1856.32 148.25 1854.99 149.969C1853.66 151.609 1852.64 153.484 1851.94 155.594C1851.24 157.625 1850.89 159.695 1850.89 161.805Z" fill="#000200" fill-opacity="0.8"/>
<path d="M1641.62 557.803C1640.15 557.477 1639.3 556.745 1639.05 555.605C1638.81 554.385 1638.69 553.245 1638.69 552.188C1637.79 551.048 1637.67 550.072 1638.32 549.258C1638.97 548.444 1640.03 547.834 1641.49 547.427C1643.04 546.938 1644.87 546.613 1646.99 546.45C1649.1 546.287 1651.14 546.247 1653.09 546.328C1655.12 546.328 1656.92 546.532 1658.46 546.938C1660.09 547.264 1661.19 547.63 1661.76 548.037C1662.57 542.829 1662.94 538.475 1662.86 534.976C1662.86 531.395 1662.53 528.424 1661.88 526.064C1661.31 523.623 1660.46 521.67 1659.32 520.205C1658.18 518.659 1656.92 517.397 1655.53 516.421C1654.15 515.363 1652.72 514.427 1651.26 513.613C1649.79 512.718 1648.37 511.742 1646.99 510.684C1645.68 509.544 1644.5 508.161 1643.45 506.533C1642.39 504.906 1641.58 502.79 1641.01 500.186C1641.01 497.988 1641.49 496.076 1642.47 494.448C1643.45 492.739 1644.67 491.274 1646.13 490.054C1647.68 488.833 1649.31 487.775 1651.02 486.88C1652.81 485.985 1654.43 485.13 1655.9 484.316C1657.44 483.503 1658.71 482.729 1659.68 481.997C1660.66 481.183 1661.15 480.288 1661.15 479.312V458.315C1661.15 457.664 1661.51 457.176 1662.25 456.851C1663.06 456.444 1663.95 456.077 1664.93 455.752C1665.99 455.426 1666.92 455.223 1667.74 455.142C1668.63 455.06 1669.24 455.02 1669.57 455.02C1669.57 459.007 1669.73 463.117 1670.06 467.349C1670.47 471.499 1671.44 475.487 1672.99 479.312C1673.72 479.312 1675.06 479.434 1677.02 479.678C1679.05 479.922 1681.17 480.207 1683.36 480.532C1685.64 480.776 1687.76 481.021 1689.71 481.265C1691.75 481.509 1693.17 481.672 1693.98 481.753C1694.15 481.834 1694.47 481.997 1694.96 482.241C1695.53 482.485 1696.06 482.77 1696.55 483.096C1697.12 483.421 1697.65 483.706 1698.13 483.95C1698.62 484.194 1698.95 484.398 1699.11 484.561C1699.6 486.025 1699.92 487.45 1700.09 488.833C1700.25 490.135 1699.64 491.112 1698.26 491.763C1696.87 492.414 1694.39 492.536 1690.81 492.129C1687.31 491.722 1682.22 490.461 1675.55 488.345C1674.66 488.345 1674.01 488.874 1673.6 489.932C1673.19 490.99 1672.91 492.17 1672.74 493.472C1672.58 494.774 1672.5 495.994 1672.5 497.134C1672.58 498.192 1672.62 498.761 1672.62 498.843C1672.62 499.087 1672.62 499.535 1672.62 500.186C1672.7 500.837 1672.74 501.488 1672.74 502.139C1672.83 502.79 1672.87 503.441 1672.87 504.092C1672.95 504.661 1672.99 505.109 1672.99 505.435C1673.88 505.597 1675.39 505.841 1677.5 506.167C1679.7 506.411 1682.14 506.818 1684.83 507.388C1687.51 507.957 1690.32 508.69 1693.25 509.585C1696.18 510.48 1698.87 511.579 1701.31 512.881C1703.83 514.102 1705.87 515.607 1707.41 517.397C1708.96 519.106 1709.73 521.1 1709.73 523.379C1709.73 527.855 1708.71 531.842 1706.68 535.342C1704.64 538.76 1702.04 541.812 1698.87 544.497C1695.77 547.183 1692.36 549.624 1688.61 551.821C1684.95 554.019 1681.45 556.012 1678.11 557.803V561.709C1678.11 563.499 1678.24 565.249 1678.48 566.958C1678.81 568.748 1679.17 570.498 1679.58 572.207C1679.99 573.997 1680.31 575.747 1680.56 577.456C1680.88 579.246 1681.04 581.037 1681.04 582.827C1681.04 584.943 1680.68 586.53 1679.95 587.588C1679.21 588.727 1677.71 589.297 1675.43 589.297C1674.45 589.297 1673.72 589.215 1673.23 589.053C1672.74 588.971 1672.34 588.727 1672.01 588.32C1671.69 587.995 1671.4 587.466 1671.16 586.733C1670.99 586.001 1670.71 585.024 1670.3 583.804C1670.06 582.99 1669.65 581.606 1669.08 579.653C1668.59 577.7 1668.06 575.584 1667.49 573.306C1666.92 571.108 1666.4 569.033 1665.91 567.08C1665.5 565.127 1665.26 563.743 1665.18 562.93L1641.62 557.803ZM1672.38 517.886C1672.38 522.524 1672.62 527.041 1673.11 531.436C1673.68 535.749 1674.49 540.143 1675.55 544.619H1676.77C1678.73 544.619 1680.84 544.131 1683.12 543.154C1685.4 542.096 1687.55 540.754 1689.59 539.126C1691.62 537.417 1693.29 535.586 1694.59 533.633C1695.98 531.598 1696.67 529.604 1696.67 527.651C1696.67 524.803 1695.77 522.728 1693.98 521.426C1692.27 520.042 1690.16 519.106 1687.64 518.618C1685.19 518.049 1682.55 517.804 1679.7 517.886C1676.85 517.886 1674.41 517.886 1672.38 517.886ZM1651.75 499.941C1651.75 502.383 1652.48 504.051 1653.94 504.946C1655.49 505.841 1657.44 506.289 1659.8 506.289V494.448C1658.91 494.448 1657.97 494.53 1657 494.692C1656.1 494.855 1655.25 495.181 1654.43 495.669C1653.7 496.076 1653.05 496.646 1652.48 497.378C1651.99 498.029 1651.75 498.883 1651.75 499.941ZM1717.42 557.803C1715.96 557.477 1715.1 556.745 1714.86 555.605C1714.61 554.385 1714.49 553.245 1714.49 552.188C1713.6 551.048 1713.47 550.072 1714.13 549.258C1714.78 548.444 1715.83 547.834 1717.3 547.427C1718.85 546.938 1720.68 546.613 1722.79 546.45C1724.91 546.287 1726.94 546.247 1728.9 546.328C1730.93 546.328 1732.72 546.532 1734.27 546.938C1735.89 547.264 1736.99 547.63 1737.56 548.037C1738.38 542.829 1738.74 538.475 1738.66 534.976C1738.66 531.395 1738.34 528.424 1737.69 526.064C1737.12 523.623 1736.26 521.67 1735.12 520.205C1733.98 518.659 1732.72 517.397 1731.34 516.421C1729.95 515.363 1728.53 514.427 1727.06 513.613C1725.6 512.718 1724.18 511.742 1722.79 510.684C1721.49 509.544 1720.31 508.161 1719.25 506.533C1718.19 504.906 1717.38 502.79 1716.81 500.186C1716.81 497.988 1717.3 496.076 1718.28 494.448C1719.25 492.739 1720.47 491.274 1721.94 490.054C1723.48 488.833 1725.11 487.775 1726.82 486.88C1728.61 485.985 1730.24 485.13 1731.7 484.316C1733.25 483.503 1734.51 482.729 1735.49 481.997C1736.46 481.183 1736.95 480.288 1736.95 479.312V458.315C1736.95 457.664 1737.32 457.176 1738.05 456.851C1738.87 456.444 1739.76 456.077 1740.74 455.752C1741.79 455.426 1742.73 455.223 1743.54 455.142C1744.44 455.06 1745.05 455.02 1745.38 455.02C1745.38 459.007 1745.54 463.117 1745.86 467.349C1746.27 471.499 1747.25 475.487 1748.79 479.312C1749.53 479.312 1750.87 479.434 1752.82 479.678C1754.86 479.922 1756.97 480.207 1759.17 480.532C1761.45 480.776 1763.56 481.021 1765.52 481.265C1767.55 481.509 1768.98 481.672 1769.79 481.753C1769.95 481.834 1770.28 481.997 1770.77 482.241C1771.34 482.485 1771.86 482.77 1772.35 483.096C1772.92 483.421 1773.45 483.706 1773.94 483.95C1774.43 484.194 1774.75 484.398 1774.92 484.561C1775.4 486.025 1775.73 487.45 1775.89 488.833C1776.06 490.135 1775.45 491.112 1774.06 491.763C1772.68 492.414 1770.2 492.536 1766.62 492.129C1763.12 491.722 1758.03 490.461 1751.36 488.345C1750.46 488.345 1749.81 488.874 1749.4 489.932C1749 490.99 1748.71 492.17 1748.55 493.472C1748.39 494.774 1748.31 495.994 1748.31 497.134C1748.39 498.192 1748.43 498.761 1748.43 498.843C1748.43 499.087 1748.43 499.535 1748.43 500.186C1748.51 500.837 1748.55 501.488 1748.55 502.139C1748.63 502.79 1748.67 503.441 1748.67 504.092C1748.75 504.661 1748.79 505.109 1748.79 505.435C1749.69 505.597 1751.19 505.841 1753.31 506.167C1755.51 506.411 1757.95 506.818 1760.63 507.388C1763.32 507.957 1766.13 508.69 1769.06 509.585C1771.99 510.48 1774.67 511.579 1777.11 512.881C1779.64 514.102 1781.67 515.607 1783.22 517.397C1784.76 519.106 1785.54 521.1 1785.54 523.379C1785.54 527.855 1784.52 531.842 1782.48 535.342C1780.45 538.76 1777.85 541.812 1774.67 544.497C1771.58 547.183 1768.16 549.624 1764.42 551.821C1760.76 554.019 1757.26 556.012 1753.92 557.803V561.709C1753.92 563.499 1754.04 565.249 1754.29 566.958C1754.61 568.748 1754.98 570.498 1755.39 572.207C1755.79 573.997 1756.12 575.747 1756.36 577.456C1756.69 579.246 1756.85 581.037 1756.85 582.827C1756.85 584.943 1756.48 586.53 1755.75 587.588C1755.02 588.727 1753.51 589.297 1751.23 589.297C1750.26 589.297 1749.53 589.215 1749.04 589.053C1748.55 588.971 1748.14 588.727 1747.82 588.32C1747.49 587.995 1747.21 587.466 1746.96 586.733C1746.8 586.001 1746.51 585.024 1746.11 583.804C1745.86 582.99 1745.46 581.606 1744.89 579.653C1744.4 577.7 1743.87 575.584 1743.3 573.306C1742.73 571.108 1742.2 569.033 1741.71 567.08C1741.31 565.127 1741.06 563.743 1740.98 562.93L1717.42 557.803ZM1748.18 517.886C1748.18 522.524 1748.43 527.041 1748.92 531.436C1749.49 535.749 1750.3 540.143 1751.36 544.619H1752.58C1754.53 544.619 1756.65 544.131 1758.93 543.154C1761.2 542.096 1763.36 540.754 1765.4 539.126C1767.43 537.417 1769.1 535.586 1770.4 533.633C1771.78 531.598 1772.48 529.604 1772.48 527.651C1772.48 524.803 1771.58 522.728 1769.79 521.426C1768.08 520.042 1765.96 519.106 1763.44 518.618C1761 518.049 1758.36 517.804 1755.51 517.886C1752.66 517.886 1750.22 517.886 1748.18 517.886ZM1727.55 499.941C1727.55 502.383 1728.29 504.051 1729.75 504.946C1731.3 505.841 1733.25 506.289 1735.61 506.289V494.448C1734.71 494.448 1733.78 494.53 1732.8 494.692C1731.91 494.855 1731.05 495.181 1730.24 495.669C1729.51 496.076 1728.86 496.646 1728.29 497.378C1727.8 498.029 1727.55 498.883 1727.55 499.941ZM1793.23 557.803C1791.76 557.477 1790.91 556.745 1790.66 555.605C1790.42 554.385 1790.3 553.245 1790.3 552.188C1789.4 551.048 1789.28 550.072 1789.93 549.258C1790.58 548.444 1791.64 547.834 1793.1 547.427C1794.65 546.938 1796.48 546.613 1798.6 546.45C1800.71 546.287 1802.75 546.247 1804.7 546.328C1806.74 546.328 1808.53 546.532 1810.07 546.938C1811.7 547.264 1812.8 547.63 1813.37 548.037C1814.18 542.829 1814.55 538.475 1814.47 534.976C1814.47 531.395 1814.14 528.424 1813.49 526.064C1812.92 523.623 1812.07 521.67 1810.93 520.205C1809.79 518.659 1808.53 517.397 1807.14 516.421C1805.76 515.363 1804.34 514.427 1802.87 513.613C1801.41 512.718 1799.98 511.742 1798.6 510.684C1797.3 509.544 1796.12 508.161 1795.06 506.533C1794 504.906 1793.19 502.79 1792.62 500.186C1792.62 497.988 1793.1 496.076 1794.08 494.448C1795.06 492.739 1796.28 491.274 1797.74 490.054C1799.29 488.833 1800.92 487.775 1802.63 486.88C1804.42 485.985 1806.04 485.13 1807.51 484.316C1809.06 483.503 1810.32 482.729 1811.29 481.997C1812.27 481.183 1812.76 480.288 1812.76 479.312V458.315C1812.76 457.664 1813.12 457.176 1813.86 456.851C1814.67 456.444 1815.57 456.077 1816.54 455.752C1817.6 455.426 1818.54 455.223 1819.35 455.142C1820.25 455.06 1820.86 455.02 1821.18 455.02C1821.18 459.007 1821.34 463.117 1821.67 467.349C1822.08 471.499 1823.05 475.487 1824.6 479.312C1825.33 479.312 1826.67 479.434 1828.63 479.678C1830.66 479.922 1832.78 480.207 1834.98 480.532C1837.25 480.776 1839.37 481.021 1841.32 481.265C1843.36 481.509 1844.78 481.672 1845.6 481.753C1845.76 481.834 1846.08 481.997 1846.57 482.241C1847.14 482.485 1847.67 482.77 1848.16 483.096C1848.73 483.421 1849.26 483.706 1849.75 483.95C1850.23 484.194 1850.56 484.398 1850.72 484.561C1851.21 486.025 1851.54 487.45 1851.7 488.833C1851.86 490.135 1851.25 491.112 1849.87 491.763C1848.48 492.414 1846 492.536 1842.42 492.129C1838.92 491.722 1833.84 490.461 1827.16 488.345C1826.27 488.345 1825.62 488.874 1825.21 489.932C1824.8 490.99 1824.52 492.17 1824.35 493.472C1824.19 494.774 1824.11 495.994 1824.11 497.134C1824.19 498.192 1824.23 498.761 1824.23 498.843C1824.23 499.087 1824.23 499.535 1824.23 500.186C1824.31 500.837 1824.35 501.488 1824.35 502.139C1824.44 502.79 1824.48 503.441 1824.48 504.092C1824.56 504.661 1824.6 505.109 1824.6 505.435C1825.49 505.597 1827 505.841 1829.12 506.167C1831.31 506.411 1833.75 506.818 1836.44 507.388C1839.13 507.957 1841.93 508.69 1844.86 509.585C1847.79 510.48 1850.48 511.579 1852.92 512.881C1855.44 514.102 1857.48 515.607 1859.02 517.397C1860.57 519.106 1861.34 521.1 1861.34 523.379C1861.34 527.855 1860.33 531.842 1858.29 535.342C1856.26 538.76 1853.65 541.812 1850.48 544.497C1847.39 547.183 1843.97 549.624 1840.22 551.821C1836.56 554.019 1833.06 556.012 1829.73 557.803V561.709C1829.73 563.499 1829.85 565.249 1830.09 566.958C1830.42 568.748 1830.78 570.498 1831.19 572.207C1831.6 573.997 1831.92 575.747 1832.17 577.456C1832.49 579.246 1832.66 581.037 1832.66 582.827C1832.66 584.943 1832.29 586.53 1831.56 587.588C1830.82 588.727 1829.32 589.297 1827.04 589.297C1826.06 589.297 1825.33 589.215 1824.84 589.053C1824.35 588.971 1823.95 588.727 1823.62 588.32C1823.3 587.995 1823.01 587.466 1822.77 586.733C1822.61 586.001 1822.32 585.024 1821.91 583.804C1821.67 582.99 1821.26 581.606 1820.69 579.653C1820.2 577.7 1819.68 575.584 1819.11 573.306C1818.54 571.108 1818.01 569.033 1817.52 567.08C1817.11 565.127 1816.87 563.743 1816.79 562.93L1793.23 557.803ZM1823.99 517.886C1823.99 522.524 1824.23 527.041 1824.72 531.436C1825.29 535.749 1826.1 540.143 1827.16 544.619H1828.38C1830.34 544.619 1832.45 544.131 1834.73 543.154C1837.01 542.096 1839.17 540.754 1841.2 539.126C1843.24 537.417 1844.9 535.586 1846.21 533.633C1847.59 531.598 1848.28 529.604 1848.28 527.651C1848.28 524.803 1847.39 522.728 1845.6 521.426C1843.89 520.042 1841.77 519.106 1839.25 518.618C1836.81 518.049 1834.16 517.804 1831.31 517.886C1828.46 517.886 1826.02 517.886 1823.99 517.886ZM1803.36 499.941C1803.36 502.383 1804.09 504.051 1805.56 504.946C1807.1 505.841 1809.06 506.289 1811.42 506.289V494.448C1810.52 494.448 1809.58 494.53 1808.61 494.692C1807.71 494.855 1806.86 495.181 1806.04 495.669C1805.31 496.076 1804.66 496.646 1804.09 497.378C1803.6 498.029 1803.36 498.883 1803.36 499.941Z" fill="#000200" fill-opacity="0.8"/>
<path d="M1777.23 246C1811.3 294.16 1828.42 352.993 1770.91 408.16" stroke="#000200" stroke-opacity="0.8" stroke-width="12" stroke-miterlimit="10" stroke-linecap="round" stroke-linejoin="round"/>
<path d="M1773.86 411.877C1768.32 408.001 1760.68 373.499 1757.36 362.882" stroke="#000200" stroke-opacity="0.8" stroke-width="12" stroke-miterlimit="10" stroke-linecap="round" stroke-linejoin="round"/>
<path d="M1774.12 412.331C1787.05 408.066 1815.34 396.803 1826.12 389.489" stroke="#000200" stroke-opacity="0.8" stroke-width="12" stroke-miterlimit="10" stroke-linecap="round" stroke-linejoin="round"/>
<defs>
<linearGradient id="paint0_linear_21_294" x1="1157.78" y1="1275.98" x2="1549.24" y2="1437.91" gradientUnits="userSpaceOnUse">
<stop stop-color="#FF6105"/>
<stop offset="1" stop-color="#FF2327"/>
</linearGradient>
<linearGradient id="paint1_linear_21_294" x1="834.707" y1="523.021" x2="834.707" y2="1854.6" gradientUnits="userSpaceOnUse">
<stop stop-color="#0451E5"/>
<stop offset="1" stop-color="#2072FF"/>
</linearGradient>
<linearGradient id="paint2_linear_21_294" x1="1619.63" y1="1003.91" x2="1659.65" y2="1011.71" gradientUnits="userSpaceOnUse">
<stop stop-color="#FF6105"/>
<stop offset="1" stop-color="#FF2327"/>
</linearGradient>
<linearGradient id="paint3_linear_21_294" x1="48" y1="1111.71" x2="108.445" y2="1124.1" gradientUnits="userSpaceOnUse">
<stop stop-color="#FF6105"/>
<stop offset="1" stop-color="#FF2327"/>
</linearGradient>
<linearGradient id="paint4_linear_21_294" x1="1168.04" y1="301.433" x2="1245.49" y2="318.955" gradientUnits="userSpaceOnUse">
<stop stop-color="#FF6105"/>
<stop offset="1" stop-color="#FF2327"/>
</linearGradient>
<linearGradient id="paint5_linear_21_294" x1="1073.78" y1="283.234" x2="1143.8" y2="298.745" gradientUnits="userSpaceOnUse">
<stop stop-color="#FF6105"/>
<stop offset="1" stop-color="#FF2327"/>
</linearGradient>
<linearGradient id="paint6_linear_21_294" x1="713.039" y1="1373.23" x2="967.66" y2="1486.8" gradientUnits="userSpaceOnUse">
<stop stop-color="#FF6105"/>
<stop offset="1" stop-color="#FF2327"/>
</linearGradient>
<linearGradient id="paint7_linear_21_294" x1="823.84" y1="1454.27" x2="947.874" y2="1513.6" gradientUnits="userSpaceOnUse">
<stop stop-color="#FF6105"/>
<stop offset="1" stop-color="#FF2327"/>
</linearGradient>
<linearGradient id="paint8_linear_21_294" x1="1216.2" y1="936.737" x2="1216.2" y2="985.297" gradientUnits="userSpaceOnUse">
<stop stop-color="#0451E5"/>
<stop offset="1" stop-color="#2072FF"/>
</linearGradient>
<linearGradient id="paint9_linear_21_294" x1="1242.9" y1="984.354" x2="1242.9" y2="1013.07" gradientUnits="userSpaceOnUse">
<stop stop-color="#0451E5"/>
<stop offset="1" stop-color="#2072FF"/>
</linearGradient>
</defs>
</svg>
