<svg xmlns="http://www.w3.org/2000/svg" viewBox="0 0 24 24"><path fill="#303C42" d="M20.49 3.51c-4.681-4.68-12.294-4.68-16.975 0C1.248 5.778 0 8.793 0 12s1.248 6.22 3.515 8.488A11.883 11.883 0 0 0 11.953 24c.97 0 1.953-.118 2.928-.358a.5.5 0 0 0 .274-.795 2.964 2.964 0 0 1-.652-1.844c0-.62.194-1.22.561-1.736a.5.5 0 0 0 .073-.43 2.96 2.96 0 0 1-.134-.835 3.004 3.004 0 0 1 3-3.001c.254 0 .52.043.836.134a.5.5 0 0 0 .43-.073 2.992 2.992 0 0 1 3.58.09.5.5 0 0 0 .794-.274c1.015-4.126-.163-8.376-3.154-11.368z"/><path fill="#7D665F" d="M22.814 13.958a3.98 3.98 0 0 0-3.93.167A3.665 3.665 0 0 0 18 14.01c-2.206 0-4 1.795-4 4 0 .285.036.571.112.885a3.961 3.961 0 0 0-.612 2.115c0 .636.153 1.252.447 1.815a10.91 10.91 0 0 1-9.725-3.036c-4.29-4.29-4.29-11.268 0-15.557A10.965 10.965 0 0 1 12 1.017c2.816 0 5.634 1.072 7.778 3.216a10.906 10.906 0 0 1 3.036 9.725z"/><path fill="#FAB13B" d="M22.814 13.958a3.98 3.98 0 0 0-3.93.167A3.665 3.665 0 0 0 18 14.01c-2.206 0-4 1.795-4 4 0 .285.036.571.112.885a3.961 3.961 0 0 0-.612 2.115c0 .636.153 1.252.447 1.815a10.91 10.91 0 0 1-9.725-3.036c-4.29-4.29-4.29-11.268 0-15.557A10.965 10.965 0 0 1 12 1.017c2.816 0 5.634 1.072 7.778 3.216a10.906 10.906 0 0 1 3.036 9.725z" opacity=".8"/><path fill="#6D4C41" d="M4 8.011a1.001 1.001 0 0 0 0 2 1.001 1.001 0 0 0 0-2z"/><circle cx="9.506" cy="6.506" r="1.494" fill="#303C42"/><circle cx="9.506" cy="6.506" r=".494" fill="#8D6E63"/><circle cx="16" cy="7" r="2" fill="#303C42"/><circle cx="16" cy="7" r="1" fill="#6D4C41"/><path fill="#6D4C41" d="M19 10.011a1 1 0 1 0 1.998-.002 1 1 0 0 0-1.998.002z"/><circle cx="8.5" cy="12.5" r="2.5" fill="#303C42"/><circle cx="8.5" cy="12.5" r="1.5" fill="#8D6E63"/><path fill="#5D4037" d="M10 17a1.001 1.001 0 0 0 0 2 1.001 1.001 0 0 0 0-2z"/><linearGradient id="a" x1="1.117" x2="22.674" y1="6.927" y2="16.979" gradientUnits="userSpaceOnUse"><stop offset="0" stop-color="#FFF" stop-opacity=".2"/><stop offset="1" stop-color="#FFF" stop-opacity="0"/></linearGradient><path fill="url(#a)" d="M20.49 3.51c-4.681-4.68-12.294-4.68-16.975 0C1.248 5.778 0 8.793 0 12s1.248 6.22 3.515 8.488A11.883 11.883 0 0 0 11.953 24c.97 0 1.953-.118 2.928-.358a.5.5 0 0 0 .274-.795 2.964 2.964 0 0 1-.652-1.844c0-.62.194-1.22.561-1.736a.5.5 0 0 0 .073-.43 2.96 2.96 0 0 1-.134-.835 3.004 3.004 0 0 1 3-3.001c.254 0 .52.043.836.134a.5.5 0 0 0 .43-.073 2.992 2.992 0 0 1 3.58.09.5.5 0 0 0 .794-.274c1.015-4.126-.163-8.376-3.154-11.368z"/></svg>