<svg width="150" height="14" viewBox="0 0 150 14" fill="none" xmlns="http://www.w3.org/2000/svg">
<path d="M3.23985 12.9034C2.48479 13.6387 1.27657 13.6227 0.541221 12.8677C-0.194127 12.1126 -0.178139 10.9044 0.576922 10.169L11.0186 0H13.6815L22.7917 8.87235L31.9019 0H34.5648L43.675 8.87235L52.7852 0H55.4482L64.5583 8.87235L73.6685 0H76.3315L85.4417 8.87235L94.5518 0H97.2148L106.325 8.87235L115.435 0H118.098L127.208 8.87235L136.318 0H138.981L149.423 10.169C150.178 10.9044 150.194 12.1126 149.459 12.8677C148.723 13.6227 147.515 13.6387 146.76 12.9034L137.65 4.03103L128.54 12.9034H125.877L116.767 4.03103L107.656 12.9034H104.993L95.8833 4.03103L86.7731 12.9034H84.1102L75 4.03103L65.8898 12.9034H63.2269L54.1167 4.03103L45.0065 12.9034H42.3436L33.2333 4.03103L24.1232 12.9034H21.4602L12.35 4.03103L3.23985 12.9034Z" fill="#2072ff"/>
</svg>
