<svg width="3013" height="500" viewBox="0 0 3013 500" fill="none" xmlns="http://www.w3.org/2000/svg">
<circle cx="272" cy="250" r="250" fill="#4C39B6"/>
<path fill-rule="evenodd" clip-rule="evenodd" d="M134.488 309.55C101.837 276.9 101.837 223.963 134.488 191.313L213.313 112.488C245.963 79.8374 298.9 79.8374 331.55 112.488C346.725 127.662 354.847 147.218 355.917 167.083C375.782 168.153 395.338 176.275 410.512 191.45C443.163 224.1 443.163 277.037 410.512 309.687L331.687 388.512C299.037 421.163 246.1 421.163 213.45 388.512C198.275 373.338 190.153 353.782 189.083 333.917C169.218 332.847 149.662 324.725 134.488 309.55ZM260.615 222.836L348.629 222.836C353.897 222.314 359.286 223.288 364.106 225.759C373.254 230.33 379.536 239.784 379.536 250.705C379.536 259.851 375.13 267.968 368.325 273.05L292.275 349.1C281.391 359.983 263.746 359.983 252.862 349.1C241.979 338.216 241.979 320.571 252.862 309.687L283.975 278.574L193.743 278.574C182.822 278.574 173.368 272.292 168.798 263.144C163.426 252.667 165.127 239.499 173.9 230.725L252.725 151.9C263.609 141.017 281.254 141.017 292.138 151.9C303.021 162.784 303.021 180.429 292.138 191.313L260.615 222.836Z" fill="white"/>
</svg>
