<svg width="1897" height="500" viewBox="0 0 1897 500" fill="none" xmlns="http://www.w3.org/2000/svg">
<g clip-path="url(#clip0_110_30)">
<circle cx="250" cy="250" r="250" fill="url(#paint0_linear_110_30)"/>
<path fill-rule="evenodd" clip-rule="evenodd" d="M112.488 309.551C79.8374 276.9 79.8374 223.963 112.488 191.313L191.313 112.488C223.963 79.8375 276.9 79.8375 309.55 112.488C324.725 127.662 332.847 147.219 333.917 167.084C353.782 168.153 373.338 176.275 388.512 191.45C421.163 224.1 421.163 277.037 388.512 309.687L309.687 388.512C277.037 421.163 224.1 421.163 191.45 388.512C176.275 373.338 168.153 353.782 167.083 333.917C147.218 332.847 127.662 324.725 112.488 309.551ZM238.615 222.836L326.629 222.836C331.897 222.314 337.286 223.289 342.106 225.759C351.254 230.33 357.536 239.784 357.536 250.705C357.536 259.851 353.13 267.968 346.325 273.05L270.275 349.1C259.391 359.983 241.746 359.983 230.862 349.1C219.979 338.216 219.979 320.571 230.862 309.687L261.975 278.574L171.743 278.574C160.822 278.574 151.368 272.292 146.798 263.144C141.426 252.667 143.127 239.499 151.9 230.725L230.725 151.9C241.609 141.017 259.254 141.017 270.138 151.9C281.021 162.784 281.021 180.43 270.138 191.313L238.615 222.836Z" fill="white"/>
<path d="M706.492 163.308V280.896C706.492 299.1 701.326 313.122 690.994 322.962C680.826 332.802 667.05 337.722 649.666 337.722C631.462 337.722 616.866 332.556 605.878 322.224C594.89 311.892 589.396 297.214 589.396 278.19H631.216C631.216 285.406 632.692 290.9 635.644 294.672C638.596 298.28 642.86 300.084 648.436 300.084C653.52 300.084 657.456 298.444 660.244 295.164C663.032 291.884 664.426 287.128 664.426 280.896V163.308H706.492ZM848.711 163.308V280.896C848.711 299.1 843.545 313.122 833.213 322.962C823.045 332.802 809.269 337.722 791.885 337.722C773.681 337.722 759.085 332.556 748.097 322.224C737.109 311.892 731.615 297.214 731.615 278.19H773.435C773.435 285.406 774.911 290.9 777.863 294.672C780.815 298.28 785.079 300.084 790.655 300.084C795.739 300.084 799.675 298.444 802.463 295.164C805.251 291.884 806.645 287.128 806.645 280.896V163.308H848.711ZM976.886 197.01V231.942H1033.22V264.414H976.886V302.298H1040.6V336H934.82V163.308H1040.6V197.01H976.886ZM1132.61 163.308C1150.81 163.308 1166.72 166.916 1180.33 174.132C1193.94 181.348 1204.44 191.516 1211.82 204.636C1219.36 217.592 1223.14 232.598 1223.14 249.654C1223.14 266.546 1219.36 281.552 1211.82 294.672C1204.44 307.792 1193.86 317.96 1180.09 325.176C1166.47 332.392 1150.65 336 1132.61 336H1067.91V163.308H1132.61ZM1129.9 299.592C1145.81 299.592 1158.19 295.246 1167.05 286.554C1175.9 277.862 1180.33 265.562 1180.33 249.654C1180.33 233.746 1175.9 221.364 1167.05 212.508C1158.19 203.652 1145.81 199.224 1129.9 199.224H1109.98V299.592H1129.9ZM1287.97 163.308V266.628C1287.97 276.96 1290.51 284.914 1295.6 290.49C1300.68 296.066 1308.14 298.854 1317.98 298.854C1327.82 298.854 1335.37 296.066 1340.62 290.49C1345.86 284.914 1348.49 276.96 1348.49 266.628V163.308H1390.55V266.382C1390.55 281.798 1387.27 294.836 1380.71 305.496C1374.15 316.156 1365.3 324.192 1354.15 329.604C1343.16 335.016 1330.86 337.722 1317.25 337.722C1303.63 337.722 1291.42 335.098 1280.59 329.85C1269.93 324.438 1261.49 316.402 1255.25 305.742C1249.02 294.918 1245.91 281.798 1245.91 266.382V163.308H1287.97Z" fill="url(#paint1_linear_110_30)"/>
</g>
<defs>
<linearGradient id="paint0_linear_110_30" x1="250" y1="0" x2="250" y2="500" gradientUnits="userSpaceOnUse">
<stop stop-color="#0451E5"/>
<stop offset="1" stop-color="#2072FF"/>
</linearGradient>
<linearGradient id="paint1_linear_110_30" x1="1359" y1="107" x2="1359" y2="393" gradientUnits="userSpaceOnUse">
<stop stop-color="#0451E5"/>
<stop offset="1" stop-color="#2072FF"/>
</linearGradient>
<clipPath id="clip0_110_30">
<rect width="1897" height="500" fill="white"/>
</clipPath>
</defs>
</svg>
