<svg width="500" height="500" viewBox="0 0 500 500" fill="none" xmlns="http://www.w3.org/2000/svg">
<circle cx="250" cy="250" r="250" fill="#4C39B6"/>
<path fill-rule="evenodd" clip-rule="evenodd" d="M112.488 309.55C79.8374 276.9 79.8374 223.963 112.488 191.313L191.313 112.488C223.963 79.8374 276.9 79.8374 309.55 112.488C324.725 127.662 332.847 147.218 333.917 167.083C353.782 168.153 373.338 176.275 388.512 191.45C421.163 224.1 421.163 277.037 388.512 309.687L309.687 388.512C277.037 421.163 224.1 421.163 191.45 388.512C176.275 373.338 168.153 353.782 167.083 333.917C147.218 332.847 127.662 324.725 112.488 309.55ZM238.615 222.836L326.629 222.836C331.897 222.314 337.286 223.288 342.106 225.759C351.254 230.33 357.536 239.784 357.536 250.705C357.536 259.851 353.13 267.968 346.325 273.05L270.275 349.1C259.391 359.983 241.746 359.983 230.862 349.1C219.979 338.216 219.979 320.571 230.862 309.687L261.975 278.574L171.743 278.574C160.822 278.574 151.368 272.292 146.798 263.144C141.426 252.667 143.127 239.499 151.9 230.725L230.725 151.9C241.609 141.017 259.254 141.017 270.138 151.9C281.021 162.784 281.021 180.429 270.138 191.313L238.615 222.836Z" fill="white"/>
</svg>
