<svg width="750" height="750" viewBox="0 0 750 750" fill="none" xmlns="http://www.w3.org/2000/svg">
<circle cx="375" cy="375" r="375" fill="url(#paint0_linear_108_5)"/>
<path d="M182.15 391.346C181.271 403.509 176.768 413.084 168.642 420.072C160.567 427.059 149.905 430.553 136.655 430.553C122.163 430.553 110.75 425.688 102.417 415.957C94.1362 406.175 89.9956 392.77 89.9956 375.741V368.832C89.9956 357.962 91.9106 348.387 95.7407 340.106C99.5708 331.825 105.031 325.484 112.122 321.085C119.265 316.634 127.546 314.408 136.966 314.408C150.009 314.408 160.516 317.902 168.486 324.889C176.457 331.876 181.063 341.685 182.306 354.313H159.015C158.445 347.016 156.401 341.736 152.881 338.476C149.414 335.163 144.108 333.507 136.966 333.507C129.202 333.507 123.379 336.302 119.498 341.892C115.667 347.43 113.701 356.047 113.597 367.745V376.285C113.597 388.5 115.435 397.428 119.109 403.069C122.836 408.711 128.685 411.532 136.655 411.532C143.85 411.532 149.207 409.901 152.726 406.641C156.297 403.328 158.342 398.23 158.859 391.346H182.15ZM256.061 399.343C256.061 394.943 254.508 391.579 251.402 389.25C248.297 386.869 242.707 384.385 234.633 381.797C226.559 379.157 220.167 376.569 215.457 374.033C202.621 367.098 196.203 357.755 196.203 346.006C196.203 339.899 197.911 334.464 201.327 329.703C204.794 324.889 209.737 321.137 216.155 318.445C222.625 315.754 229.871 314.408 237.894 314.408C245.968 314.408 253.162 315.883 259.477 318.833C265.791 321.732 270.682 325.847 274.15 331.178C277.669 336.509 279.429 342.564 279.429 349.345H256.138C256.138 344.169 254.508 340.158 251.247 337.311C247.986 334.413 243.406 332.963 237.505 332.963C231.812 332.963 227.387 334.18 224.229 336.612C221.072 338.993 219.494 342.15 219.494 346.084C219.494 349.759 221.331 352.838 225.006 355.323C228.732 357.807 234.193 360.136 241.387 362.31C254.637 366.295 264.29 371.238 270.346 377.139C276.401 383.039 279.429 390.389 279.429 399.188C279.429 408.97 275.729 416.656 268.327 422.246C260.926 427.784 250.962 430.553 238.437 430.553C229.742 430.553 221.823 428.974 214.68 425.817C207.538 422.608 202.077 418.234 198.299 412.696C194.572 407.158 192.709 400.74 192.709 393.442H216.078C216.078 405.916 223.531 412.153 238.437 412.153C243.975 412.153 248.297 411.04 251.402 408.814C254.508 406.537 256.061 403.38 256.061 399.343ZM426.784 429H403.493L358.153 354.624V429H334.862V315.961H358.153L403.57 390.492V315.961H426.784V429ZM442.156 386.222C442.156 377.889 443.76 370.462 446.969 363.94C450.178 357.419 454.785 352.373 460.789 348.801C466.844 345.23 473.857 343.444 481.828 343.444C493.163 343.444 502.402 346.912 509.544 353.848C516.739 360.783 520.75 370.203 521.578 382.107L521.733 387.853C521.733 400.74 518.136 411.092 510.942 418.907C503.748 426.671 494.095 430.553 481.983 430.553C469.872 430.553 460.193 426.671 452.947 418.907C445.753 411.144 442.156 400.585 442.156 387.231V386.222ZM464.593 387.853C464.593 395.823 466.094 401.931 469.096 406.175C472.098 410.367 476.394 412.463 481.983 412.463C487.418 412.463 491.662 410.393 494.716 406.252C497.77 402.06 499.296 395.383 499.296 386.222C499.296 378.407 497.77 372.351 494.716 368.055C491.662 363.759 487.366 361.611 481.828 361.611C476.342 361.611 472.098 363.759 469.096 368.055C466.094 372.299 464.593 378.898 464.593 387.853ZM562.415 324.346V344.997H576.778V361.456H562.415V403.38C562.415 406.485 563.01 408.711 564.201 410.057C565.391 411.402 567.668 412.075 571.033 412.075C573.517 412.075 575.717 411.894 577.632 411.532V428.534C573.232 429.88 568.704 430.553 564.045 430.553C548.311 430.553 540.289 422.608 539.978 406.718V361.456H527.711V344.997H539.978V324.346H562.415ZM627.94 430.553C615.622 430.553 605.581 426.774 597.817 419.218C590.105 411.661 586.25 401.594 586.25 389.017V386.843C586.25 378.407 587.88 370.876 591.141 364.251C594.401 357.574 599.008 352.45 604.96 348.879C610.964 345.256 617.796 343.444 625.456 343.444C636.946 343.444 645.978 347.067 652.551 354.313C659.176 361.56 662.489 371.833 662.489 385.135V394.296H608.997C609.722 399.783 611.896 404.182 615.519 407.495C619.193 410.807 623.826 412.463 629.416 412.463C638.059 412.463 644.813 409.332 649.679 403.069L660.703 415.414C657.339 420.175 652.784 423.902 647.039 426.593C641.294 429.233 634.928 430.553 627.94 430.553ZM625.378 361.611C620.927 361.611 617.304 363.112 614.509 366.114C611.766 369.116 610.006 373.412 609.23 379.002H640.44V377.216C640.336 372.248 638.991 368.417 636.403 365.726C633.815 362.983 630.14 361.611 625.378 361.611Z" fill="white"/>
<defs>
<linearGradient id="paint0_linear_108_5" x1="375" y1="0" x2="375" y2="750" gradientUnits="userSpaceOnUse">
<stop stop-color="#0451E5"/>
<stop offset="1" stop-color="#2072FF"/>
</linearGradient>
</defs>
</svg>
