<svg width="750" height="750" viewBox="0 0 750 750" fill="none" xmlns="http://www.w3.org/2000/svg">
<circle cx="375" cy="375" r="375" fill="url(#paint0_linear_108_4)"/>
<path d="M177.57 391.346C176.69 403.509 172.187 413.084 164.061 420.072C155.987 427.059 145.325 430.553 132.075 430.553C117.583 430.553 106.17 425.688 97.8369 415.957C89.5557 406.175 85.415 392.77 85.415 375.741V368.832C85.415 357.962 87.3301 348.387 91.1602 340.106C94.9902 331.825 100.451 325.484 107.542 321.085C114.684 316.634 122.965 314.408 132.385 314.408C145.428 314.408 155.935 317.902 163.906 324.889C171.876 331.876 176.483 341.685 177.725 354.313H154.434C153.865 347.016 151.82 341.736 148.301 338.476C144.833 335.163 139.528 333.507 132.385 333.507C124.622 333.507 118.799 336.302 114.917 341.892C111.087 347.43 109.12 356.047 109.017 367.745V376.285C109.017 388.5 110.854 397.428 114.529 403.069C118.255 408.711 124.104 411.532 132.075 411.532C139.269 411.532 144.626 409.901 148.146 406.641C151.717 403.328 153.761 398.23 154.279 391.346H177.57ZM256.682 405.709H215.845L208.081 429H183.315L225.394 315.961H246.977L289.289 429H264.523L256.682 405.709ZM222.133 386.843H250.393L236.186 344.531L222.133 386.843ZM431.364 429H408.073L362.733 354.624V429H339.442V315.961H362.733L408.151 390.492V315.961H431.364V429ZM446.736 386.222C446.736 377.889 448.341 370.462 451.55 363.94C454.759 357.419 459.365 352.373 465.369 348.801C471.425 345.23 478.438 343.444 486.409 343.444C497.744 343.444 506.982 346.912 514.125 353.848C521.319 360.783 525.331 370.203 526.159 382.107L526.314 387.853C526.314 400.74 522.717 411.092 515.522 418.907C508.328 426.671 498.675 430.553 486.564 430.553C474.453 430.553 464.774 426.671 457.528 418.907C450.333 411.144 446.736 400.585 446.736 387.231V386.222ZM469.173 387.853C469.173 395.823 470.674 401.931 473.676 406.175C476.678 410.367 480.974 412.463 486.564 412.463C491.999 412.463 496.243 410.393 499.296 406.252C502.35 402.06 503.877 395.383 503.877 386.222C503.877 378.407 502.35 372.351 499.296 368.055C496.243 363.759 491.947 361.611 486.409 361.611C480.922 361.611 476.678 363.759 473.676 368.055C470.674 372.299 469.173 378.898 469.173 387.853ZM566.996 324.346V344.997H581.358V361.456H566.996V403.38C566.996 406.485 567.591 408.711 568.781 410.057C569.972 411.402 572.249 412.075 575.613 412.075C578.098 412.075 580.297 411.894 582.212 411.532V428.534C577.813 429.88 573.284 430.553 568.626 430.553C552.892 430.553 544.869 422.608 544.559 406.718V361.456H532.292V344.997H544.559V324.346H566.996ZM632.521 430.553C620.203 430.553 610.162 426.774 602.398 419.218C594.686 411.661 590.83 401.594 590.83 389.017V386.843C590.83 378.407 592.46 370.876 595.721 364.251C598.982 357.574 603.588 352.45 609.541 348.879C615.544 345.256 622.376 343.444 630.037 343.444C641.527 343.444 650.559 347.067 657.132 354.313C663.757 361.56 667.069 371.833 667.069 385.135V394.296H613.578C614.302 399.783 616.476 404.182 620.099 407.495C623.774 410.807 628.406 412.463 633.996 412.463C642.64 412.463 649.394 409.332 654.259 403.069L665.284 415.414C661.919 420.175 657.365 423.902 651.62 426.593C645.875 429.233 639.508 430.553 632.521 430.553ZM629.959 361.611C625.508 361.611 621.885 363.112 619.09 366.114C616.347 369.116 614.587 373.412 613.811 379.002H645.021V377.216C644.917 372.248 643.571 368.417 640.983 365.726C638.396 362.983 634.721 361.611 629.959 361.611Z" fill="white"/>
<defs>
<linearGradient id="paint0_linear_108_4" x1="375" y1="0" x2="375" y2="750" gradientUnits="userSpaceOnUse">
<stop stop-color="#0451E5"/>
<stop offset="1" stop-color="#2072FF"/>
</linearGradient>
</defs>
</svg>
