<svg width="750" height="750" viewBox="0 0 750 750" fill="none" xmlns="http://www.w3.org/2000/svg">
<circle cx="375" cy="375" r="375" fill="url(#paint0_linear_108_5)"/>
<path d="M192.166 391.346C191.286 403.509 186.783 413.084 178.657 420.072C170.583 427.059 159.92 430.553 146.67 430.553C132.178 430.553 120.766 425.688 112.433 415.957C104.151 406.175 100.011 392.77 100.011 375.741V368.832C100.011 357.962 101.926 348.387 105.756 340.106C109.586 331.825 115.046 325.484 122.137 321.085C129.28 316.634 137.561 314.408 146.981 314.408C160.024 314.408 170.531 317.902 178.501 324.889C186.472 331.876 191.079 341.685 192.321 354.313H169.03C168.46 347.016 166.416 341.736 162.896 338.476C159.429 335.163 154.124 333.507 146.981 333.507C139.217 333.507 133.395 336.302 129.513 341.892C125.683 347.43 123.716 356.047 123.612 367.745V376.285C123.612 388.5 125.45 397.428 129.125 403.069C132.851 408.711 138.7 411.532 146.67 411.532C153.865 411.532 159.222 409.901 162.741 406.641C166.312 403.328 168.357 398.23 168.875 391.346H192.166ZM266.076 399.343C266.076 394.943 264.523 391.579 261.417 389.25C258.312 386.869 252.722 384.385 244.648 381.797C236.574 379.157 230.182 376.569 225.472 374.033C212.636 367.098 206.218 357.755 206.218 346.006C206.218 339.899 207.926 334.464 211.342 329.703C214.81 324.889 219.752 321.137 226.17 318.445C232.64 315.754 239.886 314.408 247.909 314.408C255.983 314.408 263.177 315.883 269.492 318.833C275.806 321.732 280.697 325.847 284.165 331.178C287.685 336.509 289.444 342.564 289.444 349.345H266.153C266.153 344.169 264.523 340.158 261.262 337.311C258.001 334.413 253.421 332.963 247.521 332.963C241.827 332.963 237.402 334.18 234.245 336.612C231.087 338.993 229.509 342.15 229.509 346.084C229.509 349.759 231.346 352.838 235.021 355.323C238.748 357.807 244.208 360.136 251.402 362.31C264.652 366.295 274.305 371.238 280.361 377.139C286.417 383.039 289.444 390.389 289.444 399.188C289.444 408.97 285.744 416.656 278.342 422.246C270.941 427.784 260.978 430.553 248.452 430.553C239.757 430.553 231.838 428.974 224.695 425.817C217.553 422.608 212.092 418.234 208.314 412.696C204.587 407.158 202.724 400.74 202.724 393.442H226.093C226.093 405.916 233.546 412.153 248.452 412.153C253.99 412.153 258.312 411.04 261.417 408.814C264.523 406.537 266.076 403.38 266.076 399.343ZM437.575 375.042C437.575 385.601 435.867 394.788 432.451 402.604C429.035 410.367 424.299 416.604 418.244 421.314L437.032 436.065L422.203 449.186L398.136 429.854C395.393 430.32 392.546 430.553 389.596 430.553C380.228 430.553 371.869 428.301 364.519 423.798C357.169 419.295 351.476 412.877 347.439 404.544C343.402 396.16 341.357 386.533 341.306 375.664V370.074C341.306 358.946 343.298 349.164 347.284 340.727C351.321 332.239 356.988 325.743 364.286 321.24C371.636 316.686 380.021 314.408 389.44 314.408C398.86 314.408 407.219 316.686 414.517 321.24C421.867 325.743 427.534 332.239 431.52 340.727C435.557 349.164 437.575 358.92 437.575 369.996V375.042ZM413.974 369.918C413.974 358.066 411.852 349.06 407.607 342.901C403.363 336.742 397.308 333.662 389.44 333.662C381.625 333.662 375.595 336.716 371.351 342.823C367.107 348.879 364.959 357.781 364.907 369.53V375.042C364.907 386.584 367.029 395.539 371.273 401.905C375.518 408.271 381.625 411.454 389.596 411.454C397.411 411.454 403.415 408.4 407.607 402.293C411.8 396.134 413.922 387.18 413.974 375.431V369.918ZM503.489 420.46C497.951 427.188 490.291 430.553 480.508 430.553C471.502 430.553 464.619 427.965 459.857 422.789C455.147 417.613 452.74 410.031 452.637 400.042V344.997H475.074V399.265C475.074 408.012 479.059 412.386 487.03 412.386C494.638 412.386 499.866 409.746 502.712 404.467V344.997H525.227V429H504.11L503.489 420.46ZM565.831 429H543.316V344.997H565.831V429ZM541.997 323.259C541.997 319.895 543.109 317.125 545.335 314.952C547.612 312.778 550.692 311.691 554.574 311.691C558.404 311.691 561.458 312.778 563.735 314.952C566.012 317.125 567.151 319.895 567.151 323.259C567.151 326.675 565.986 329.47 563.657 331.644C561.38 333.817 558.352 334.904 554.574 334.904C550.795 334.904 547.742 333.817 545.413 331.644C543.135 329.47 541.997 326.675 541.997 323.259ZM610.162 410.911H651.231V429H581.514V415.336L621.031 363.164H582.678V344.997H649.989V358.273L610.162 410.911Z" fill="white"/>
<defs>
<linearGradient id="paint0_linear_108_5" x1="375" y1="0" x2="375" y2="750" gradientUnits="userSpaceOnUse">
<stop stop-color="#0451E5"/>
<stop offset="1" stop-color="#2072FF"/>
</linearGradient>
</defs>
</svg>
