<svg width="750" height="750" viewBox="0 0 750 750" fill="none" xmlns="http://www.w3.org/2000/svg">
<circle cx="375" cy="375" r="375" fill="url(#paint0_linear_108_8)"/>
<path d="M187.585 391.346C186.705 403.509 182.202 413.084 174.076 420.072C166.002 427.059 155.34 430.553 142.09 430.553C127.598 430.553 116.185 425.688 107.852 415.957C99.5708 406.175 95.4302 392.77 95.4302 375.741V368.832C95.4302 357.962 97.3452 348.387 101.175 340.106C105.005 331.825 110.466 325.484 117.557 321.085C124.699 316.634 132.98 314.408 142.4 314.408C155.443 314.408 165.95 317.902 173.921 324.889C181.892 331.876 186.498 341.685 187.74 354.313H164.449C163.88 347.016 161.835 341.736 158.316 338.476C154.848 335.163 149.543 333.507 142.4 333.507C134.637 333.507 128.814 336.302 124.932 341.892C121.102 347.43 119.135 356.047 119.032 367.745V376.285C119.032 388.5 120.869 397.428 124.544 403.069C128.271 408.711 134.119 411.532 142.09 411.532C149.284 411.532 154.641 409.901 158.161 406.641C161.732 403.328 163.776 398.23 164.294 391.346H187.585ZM266.697 405.709H225.86L218.096 429H193.33L235.409 315.961H256.992L299.304 429H274.538L266.697 405.709ZM232.148 386.843H260.408L246.201 344.531L232.148 386.843ZM442.156 375.042C442.156 385.601 440.448 394.788 437.032 402.604C433.616 410.367 428.88 416.604 422.824 421.314L441.612 436.065L426.784 449.186L402.716 429.854C399.973 430.32 397.126 430.553 394.176 430.553C384.808 430.553 376.449 428.301 369.1 423.798C361.75 419.295 356.057 412.877 352.02 404.544C347.982 396.16 345.938 386.533 345.886 375.664V370.074C345.886 358.946 347.879 349.164 351.864 340.727C355.901 332.239 361.569 325.743 368.867 321.24C376.216 316.686 384.601 314.408 394.021 314.408C403.441 314.408 411.8 316.686 419.098 321.24C426.447 325.743 432.115 332.239 436.1 340.727C440.137 349.164 442.156 358.92 442.156 369.996V375.042ZM418.554 369.918C418.554 358.066 416.432 349.06 412.188 342.901C407.944 336.742 401.888 333.662 394.021 333.662C386.206 333.662 380.176 336.716 375.932 342.823C371.688 348.879 369.54 357.781 369.488 369.53V375.042C369.488 386.584 371.61 395.539 375.854 401.905C380.098 408.271 386.206 411.454 394.176 411.454C401.992 411.454 407.996 408.4 412.188 402.293C416.38 396.134 418.502 387.18 418.554 375.431V369.918ZM508.069 420.46C502.531 427.188 494.871 430.553 485.089 430.553C476.083 430.553 469.199 427.965 464.438 422.789C459.728 417.613 457.321 410.031 457.217 400.042V344.997H479.654V399.265C479.654 408.012 483.64 412.386 491.61 412.386C499.219 412.386 504.446 409.746 507.293 404.467V344.997H529.808V429H508.69L508.069 420.46ZM570.412 429H547.897V344.997H570.412V429ZM546.577 323.259C546.577 319.895 547.69 317.125 549.916 314.952C552.193 312.778 555.272 311.691 559.154 311.691C562.984 311.691 566.038 312.778 568.315 314.952C570.593 317.125 571.731 319.895 571.731 323.259C571.731 326.675 570.567 329.47 568.238 331.644C565.96 333.817 562.933 334.904 559.154 334.904C555.376 334.904 552.322 333.817 549.993 331.644C547.716 329.47 546.577 326.675 546.577 323.259ZM614.742 410.911H655.812V429H586.094V415.336L625.611 363.164H587.259V344.997H654.57V358.273L614.742 410.911Z" fill="white"/>
<defs>
<linearGradient id="paint0_linear_108_8" x1="375" y1="0" x2="375" y2="750" gradientUnits="userSpaceOnUse">
<stop stop-color="#0451E5"/>
<stop offset="1" stop-color="#2072FF"/>
</linearGradient>
</defs>
</svg>
