<svg width="1920" height="650" viewBox="0 0 1920 650" fill="none" xmlns="http://www.w3.org/2000/svg">
<rect width="1920" height="650" rx="25" fill="url(#paint0_linear_109_27)"/>
<path d="M291 500C387.65 500 466 421.65 466 325C466 228.35 387.65 150 291 150C194.35 150 116 228.35 116 325C116 421.65 194.35 500 291 500Z" fill="url(#paint1_linear_109_27)"/>
<path d="M439.166 262.291C431 243.041 419.333 225.833 404.75 211.25C389.875 196.375 372.666 185 353.708 176.833C333.875 168.375 312.875 164.292 291 164.292C269.416 164.292 248.125 168.667 228.291 176.833C209.041 184.708 191.833 196.375 177.25 211.25C162.375 226.125 151 243.333 142.833 262.291C134.375 282.125 130.292 303.125 130.292 325C130.292 346.875 134.666 367.875 142.833 387.708C151 406.958 162.666 424.166 177.25 438.75C192.125 453.625 209.333 465 228.291 473.166C248.125 481.625 269.125 485.708 291 485.708C312.583 485.708 333.875 481.333 353.708 473.166C372.666 465 389.875 453.333 404.75 438.75C419.625 423.875 431 406.666 439.166 387.708C447.625 367.875 451.708 346.875 451.708 325C451.708 303.125 447.625 282.125 439.166 262.291V262.291ZM326 469.375C316.666 453.625 292.166 409.583 292.166 376.916C292.166 301.667 342.625 366.125 342.625 306.041C342.625 291.75 335.625 241.583 291.875 231.083C281.083 216.791 255.708 203.083 215.458 208.625C215.458 208.625 222.166 210.666 229.75 214.458C229.75 214.458 215.167 216.5 214.583 226.417C214.583 226.417 243.458 224.958 259.792 230.208C222.167 235.167 202.916 255 206.416 290.875C211.375 341.916 232.958 432.916 240.541 464.708C183.375 444.291 142.25 389.458 142.25 325C142.25 243.041 208.75 176.25 291 176.25C373.25 176.25 439.75 242.75 439.75 325C439.458 395 391.041 453.625 326 469.375Z" fill="white"/>
<path fill-rule="evenodd" clip-rule="evenodd" d="M282.833 349.208C282.833 329.958 309.083 323.833 319 323.833C345.833 323.833 383.75 306.625 393.083 306.917C402.708 307.208 408.833 311 408.833 315.375C408.833 321.792 355.166 346 334.458 343.958C314.625 342.208 309.958 344.25 309.958 352.417C309.958 359.417 324.25 365.833 340 365.833C363.625 365.833 386.666 355.333 393.666 360.292C399.791 364.667 377.625 380.417 352.25 380.417C326.875 380.417 282.833 368.458 282.833 349.208V349.208Z" fill="white"/>
<path d="M329.5 267.541C322.5 258.5 309.958 258.208 305.583 268.708C312.291 263.458 320.458 262.291 329.5 267.541Z" fill="url(#paint2_linear_109_27)"/>
<path d="M251.625 267.833C242 262 225.958 261.417 226.833 279.792C231.5 268.417 237.917 266.375 251.625 267.833Z" fill="url(#paint3_linear_109_27)"/>
<path d="M323.667 284.75C318.417 284.75 314.042 289.125 314.042 294.375C314.042 299.625 318.417 304 323.667 304C328.917 304 333.292 299.625 333.292 294.375C333.292 289.125 328.917 284.75 323.667 284.75ZM327.167 293.792C325.709 293.792 324.25 292.625 324.25 290.875C324.25 289.417 325.417 287.958 327.167 287.958C328.917 287.958 330.084 289.125 330.084 290.875C329.792 292.333 328.625 293.792 327.167 293.792Z" fill="url(#paint4_linear_109_27)"/>
<path d="M249 290C242.875 290 237.917 294.958 237.917 301.083C237.917 307.208 242.875 312.167 249 312.167C255.125 312.167 260.084 307.208 260.084 301.083C260.084 294.958 255.125 290 249 290ZM253.084 300.208C251.334 300.208 249.875 298.75 249.875 297C249.875 295.25 251.334 293.792 253.084 293.792C254.834 293.792 256.292 295.25 256.292 297C256.292 298.75 254.834 300.208 253.084 300.208Z" fill="url(#paint5_linear_109_27)"/>
<path d="M224.792 242.75C210.792 252.958 204.375 268.708 206.417 290.875C211.375 341.917 232.958 433.208 240.542 465C243.167 465.875 245.792 466.75 248.417 467.625C243.75 448.375 221.292 354.458 211.375 282.417C208.75 263.167 216.333 251.792 224.792 242.75V242.75Z" fill="white"/>
<path d="M259.5 230.208C260.667 230.208 261.542 229.917 261.542 229.917C246.375 222.625 222.459 222.333 216.042 222.333C215.459 223.5 214.875 224.958 214.875 226.417C214.584 226.708 242.875 224.958 259.5 230.208V230.208Z" fill="white"/>
<path d="M232.084 214.458C227.417 211.25 223.625 209.208 221.292 208.042C219.25 208.333 217.5 208.333 215.458 208.625C215.458 208.625 222.167 210.666 229.75 214.458C229.75 214.458 229.459 214.458 229.167 214.458C231.209 214.458 232.084 214.458 232.084 214.458Z" fill="white"/>
<path d="M349.625 408.417C344.667 407.25 325.417 420.958 318.125 426.208C317.834 424.75 317.542 423.583 317.25 423C316.375 420.083 297.709 421.833 293.334 426.5C281.667 420.958 258.334 410.167 258.042 416.875C257.167 425.625 258.042 462.083 262.709 464.708C266.209 466.75 286.042 455.958 295.959 450.417C295.959 450.417 295.959 450.417 296.25 450.417C302.375 451.875 313.75 450.417 317.834 447.792C318.417 447.5 318.709 446.917 319 446.333C328.042 449.833 347.584 456.833 351.667 455.375C356.917 453.917 355.75 409.875 349.625 408.417V408.417Z" fill="url(#paint6_linear_109_27)"/>
<path d="M296.25 450.416C290.125 449.25 292.167 443.125 292.167 428.833C290.709 429.708 289.542 430.875 289.542 432.041C289.542 446.333 287.209 452.75 293.625 453.625C299.75 455.083 311.125 453.625 315.792 451C316.667 450.416 316.959 449.541 317.25 448.083C312.875 450.708 302.084 451.875 296.25 450.416V450.416Z" fill="white"/>
<path d="M633.708 217.343C633.708 212.943 632.156 209.579 629.05 207.25C625.945 204.869 620.355 202.385 612.281 199.797C604.207 197.157 597.814 194.569 593.104 192.033C580.269 185.098 573.851 175.755 573.851 164.006C573.851 157.899 575.559 152.464 578.975 147.703C582.442 142.889 587.385 139.137 593.803 136.445C600.273 133.754 607.519 132.408 615.542 132.408C623.616 132.408 630.81 133.883 637.125 136.833C643.439 139.732 648.33 143.847 651.798 149.178C655.317 154.509 657.077 160.564 657.077 167.345H633.786C633.786 162.169 632.156 158.158 628.895 155.311C625.634 152.413 621.054 150.963 615.153 150.963C609.46 150.963 605.035 152.18 601.877 154.612C598.72 156.993 597.142 160.15 597.142 164.084C597.142 167.759 598.979 170.838 602.654 173.323C606.38 175.807 611.841 178.136 619.035 180.31C632.285 184.295 641.938 189.238 647.994 195.139C654.049 201.039 657.077 208.389 657.077 217.188C657.077 226.97 653.376 234.656 645.975 240.246C638.574 245.784 628.61 248.553 616.085 248.553C607.39 248.553 599.471 246.974 592.328 243.817C585.186 240.608 579.725 236.234 575.947 230.696C572.22 225.158 570.357 218.74 570.357 211.442H593.726C593.726 223.916 601.179 230.153 616.085 230.153C621.623 230.153 625.945 229.04 629.05 226.814C632.156 224.537 633.708 221.38 633.708 217.343ZM736.732 223.709H695.896L688.132 247H663.366L705.445 133.961H727.028L769.34 247H744.574L736.732 223.709ZM702.184 204.843H730.444L716.236 162.531L702.184 204.843ZM810.332 133.961L839.368 215.945L868.249 133.961H898.838V247H875.469V216.101L877.798 162.764L847.287 247H831.294L800.86 162.842L803.189 216.101V247H779.898V133.961H810.332ZM942.47 207.172V247H919.179V133.961H963.276C971.765 133.961 979.218 135.514 985.636 138.619C992.105 141.725 997.074 146.15 1000.54 151.895C1004.01 157.588 1005.74 164.084 1005.74 171.382C1005.74 182.458 1001.94 191.205 994.331 197.623C986.774 203.989 976.293 207.172 962.888 207.172H942.47ZM942.47 188.307H963.276C969.436 188.307 974.12 186.857 977.329 183.959C980.589 181.061 982.22 176.92 982.22 171.537C982.22 165.999 980.589 161.522 977.329 158.106C974.068 154.69 969.565 152.93 963.82 152.827H942.47V188.307ZM1045.11 228.29H1094.56V247H1021.81V133.961H1045.11V228.29ZM1176 198.011H1131.28V228.29H1183.76V247H1107.99V133.961H1183.61V152.827H1131.28V179.767H1176V198.011ZM1328.95 247H1305.65L1260.31 172.624V247H1237.02V133.961H1260.31L1305.73 208.492V133.961H1328.95V247ZM1417.3 198.011H1372.58V228.29H1425.06V247H1349.29V133.961H1424.9V152.827H1372.58V179.767H1417.3V198.011ZM1526.76 214.393L1541.98 133.961H1565.19L1540.12 247H1516.67L1498.27 171.382L1479.87 247H1456.42L1431.35 133.961H1454.56L1469.86 214.237L1488.49 133.961H1508.21L1526.76 214.393ZM1636.46 217.343C1636.46 212.943 1634.91 209.579 1631.81 207.25C1628.7 204.869 1623.11 202.385 1615.04 199.797C1606.96 197.157 1600.57 194.569 1595.86 192.033C1583.02 185.098 1576.61 175.755 1576.61 164.006C1576.61 157.899 1578.31 152.464 1581.73 147.703C1585.2 142.889 1590.14 139.137 1596.56 136.445C1603.03 133.754 1610.27 132.408 1618.3 132.408C1626.37 132.408 1633.57 133.883 1639.88 136.833C1646.19 139.732 1651.09 143.847 1654.55 149.178C1658.07 154.509 1659.83 160.564 1659.83 167.345H1636.54C1636.54 162.169 1634.91 158.158 1631.65 155.311C1628.39 152.413 1623.81 150.963 1617.91 150.963C1612.22 150.963 1607.79 152.18 1604.63 154.612C1601.48 156.993 1599.9 160.15 1599.9 164.084C1599.9 167.759 1601.73 170.838 1605.41 173.323C1609.14 175.807 1614.6 178.136 1621.79 180.31C1635.04 184.295 1644.69 189.238 1650.75 195.139C1656.81 201.039 1659.83 208.389 1659.83 217.188C1659.83 226.97 1656.13 234.656 1648.73 240.246C1641.33 245.784 1631.37 248.553 1618.84 248.553C1610.15 248.553 1602.23 246.974 1595.08 243.817C1587.94 240.608 1582.48 236.234 1578.7 230.696C1574.98 225.158 1573.11 218.74 1573.11 211.442H1596.48C1596.48 223.916 1603.93 230.153 1618.84 230.153C1624.38 230.153 1628.7 229.04 1631.81 226.814C1634.91 224.537 1636.46 221.38 1636.46 217.343Z" fill="white"/>
<path d="M571.257 299.68H582.244V336.594C582.244 339.987 581.487 342.99 579.973 345.603C578.484 348.19 576.372 350.192 573.638 351.608C570.903 353.024 567.815 353.732 564.373 353.732C558.733 353.732 554.338 352.304 551.189 349.448C548.04 346.567 546.465 342.502 546.465 337.253H557.524C557.524 339.865 558.074 341.794 559.172 343.039C560.271 344.284 562.004 344.907 564.373 344.907C566.472 344.907 568.145 344.187 569.39 342.746C570.635 341.306 571.257 339.255 571.257 336.594V299.68ZM613.152 299.68H624.138V336.594C624.138 339.987 623.381 342.99 621.868 345.603C620.378 348.19 618.267 350.192 615.532 351.608C612.798 353.024 609.709 353.732 606.267 353.732C600.627 353.732 596.233 352.304 593.083 349.448C589.934 346.567 588.359 342.502 588.359 337.253H599.419C599.419 339.865 599.968 341.794 601.067 343.039C602.166 344.284 603.899 344.907 606.267 344.907C608.367 344.907 610.039 344.187 611.284 342.746C612.529 341.306 613.152 339.255 613.152 336.594V299.68ZM665.63 329.892H644.536V344.174H669.292V353H633.55V299.68H669.219V308.579H644.536V321.286H665.63V329.892ZM672.661 332.895C672.661 326.718 674.041 321.799 676.799 318.137C679.583 314.475 683.379 312.644 688.188 312.644C692.046 312.644 695.232 314.084 697.747 316.965V296.75H708.367V353H698.809L698.296 348.789C695.659 352.084 692.266 353.732 688.115 353.732C683.452 353.732 679.705 351.901 676.873 348.239C674.065 344.553 672.661 339.438 672.661 332.895ZM683.245 333.664C683.245 337.375 683.892 340.219 685.186 342.197C686.479 344.174 688.359 345.163 690.825 345.163C694.097 345.163 696.404 343.784 697.747 341.025V325.388C696.428 322.629 694.146 321.25 690.898 321.25C685.796 321.25 683.245 325.388 683.245 333.664ZM740.3 348.972C737.688 352.146 734.075 353.732 729.46 353.732C725.212 353.732 721.965 352.512 719.719 350.07C717.498 347.629 716.362 344.052 716.313 339.34V313.376H726.897V338.974C726.897 343.1 728.777 345.163 732.537 345.163C736.125 345.163 738.591 343.918 739.934 341.428V313.376H750.554V353H740.593L740.3 348.972ZM788.384 353H777.764V313.376H788.384V353ZM777.141 303.122C777.141 301.535 777.666 300.229 778.716 299.204C779.79 298.178 781.243 297.666 783.074 297.666C784.88 297.666 786.321 298.178 787.395 299.204C788.469 300.229 789.006 301.535 789.006 303.122C789.006 304.733 788.457 306.052 787.358 307.077C786.284 308.103 784.856 308.615 783.074 308.615C781.292 308.615 779.851 308.103 778.752 307.077C777.678 306.052 777.141 304.733 777.141 303.122ZM818.596 342.05C818.596 340.756 817.949 339.743 816.655 339.011C815.386 338.254 813.335 337.583 810.503 336.997C801.079 335.019 796.367 331.015 796.367 324.985C796.367 321.469 797.82 318.54 800.725 316.196C803.655 313.828 807.476 312.644 812.188 312.644C817.217 312.644 821.233 313.828 824.236 316.196C827.263 318.564 828.777 321.64 828.777 325.424H818.193C818.193 323.911 817.705 322.666 816.729 321.689C815.752 320.688 814.226 320.188 812.151 320.188C810.369 320.188 808.989 320.59 808.013 321.396C807.036 322.202 806.548 323.227 806.548 324.472C806.548 325.644 807.097 326.596 808.196 327.329C809.319 328.037 811.199 328.659 813.835 329.196C816.472 329.709 818.694 330.295 820.5 330.954C826.091 333.005 828.887 336.557 828.887 341.611C828.887 345.224 827.336 348.154 824.236 350.4C821.135 352.622 817.131 353.732 812.224 353.732C808.904 353.732 805.95 353.146 803.362 351.975C800.798 350.778 798.784 349.155 797.319 347.104C795.854 345.029 795.122 342.795 795.122 340.402H805.156C805.254 342.282 805.95 343.723 807.244 344.724C808.538 345.725 810.271 346.225 812.444 346.225C814.47 346.225 815.996 345.847 817.021 345.09C818.071 344.309 818.596 343.295 818.596 342.05ZM877.373 353C876.885 352.048 876.531 350.864 876.311 349.448C873.748 352.304 870.415 353.732 866.313 353.732C862.432 353.732 859.209 352.609 856.646 350.363C854.106 348.117 852.837 345.285 852.837 341.867C852.837 337.668 854.387 334.445 857.488 332.199C860.613 329.953 865.117 328.818 871.001 328.793H875.872V326.523C875.872 324.692 875.396 323.227 874.443 322.128C873.516 321.03 872.039 320.48 870.012 320.48C868.23 320.48 866.826 320.908 865.801 321.762C864.8 322.617 864.299 323.789 864.299 325.278H853.716C853.716 322.983 854.424 320.859 855.84 318.906C857.256 316.953 859.258 315.427 861.846 314.328C864.434 313.205 867.339 312.644 870.562 312.644C875.444 312.644 879.314 313.876 882.17 316.342C885.051 318.784 886.492 322.226 886.492 326.669V343.845C886.516 347.604 887.041 350.449 888.066 352.377V353H877.373ZM868.621 345.639C870.183 345.639 871.624 345.297 872.942 344.614C874.26 343.906 875.237 342.966 875.872 341.794V334.982H871.917C866.619 334.982 863.799 336.813 863.457 340.476L863.42 341.098C863.42 342.417 863.884 343.503 864.812 344.357C865.74 345.212 867.009 345.639 868.621 345.639ZM924.468 353H913.848V296.75H924.468V353ZM951.458 353.732C945.647 353.732 940.911 351.95 937.249 348.386C933.611 344.821 931.792 340.073 931.792 334.14V333.115C931.792 329.135 932.561 325.583 934.099 322.458C935.637 319.309 937.81 316.892 940.618 315.207C943.45 313.498 946.672 312.644 950.286 312.644C955.706 312.644 959.966 314.353 963.066 317.771C966.191 321.188 967.754 326.035 967.754 332.309V336.63H942.522C942.864 339.218 943.889 341.293 945.598 342.856C947.332 344.418 949.517 345.2 952.153 345.2C956.23 345.2 959.417 343.723 961.711 340.769L966.912 346.591C965.325 348.837 963.176 350.595 960.466 351.865C957.756 353.11 954.753 353.732 951.458 353.732ZM950.249 321.213C948.149 321.213 946.44 321.921 945.122 323.337C943.828 324.753 942.998 326.779 942.632 329.416H957.354V328.574C957.305 326.23 956.67 324.423 955.449 323.154C954.229 321.86 952.495 321.213 950.249 321.213ZM996.758 353C996.27 352.048 995.916 350.864 995.696 349.448C993.132 352.304 989.8 353.732 985.698 353.732C981.816 353.732 978.594 352.609 976.03 350.363C973.491 348.117 972.222 345.285 972.222 341.867C972.222 337.668 973.772 334.445 976.873 332.199C979.998 329.953 984.502 328.818 990.386 328.793H995.256V326.523C995.256 324.692 994.78 323.227 993.828 322.128C992.9 321.03 991.423 320.48 989.397 320.48C987.615 320.48 986.211 320.908 985.186 321.762C984.185 322.617 983.684 323.789 983.684 325.278H973.101C973.101 322.983 973.809 320.859 975.225 318.906C976.641 316.953 978.643 315.427 981.23 314.328C983.818 313.205 986.724 312.644 989.946 312.644C994.829 312.644 998.699 313.876 1001.56 316.342C1004.44 318.784 1005.88 322.226 1005.88 326.669V343.845C1005.9 347.604 1006.43 350.449 1007.45 352.377V353H996.758ZM988.005 345.639C989.568 345.639 991.008 345.297 992.327 344.614C993.645 343.906 994.622 342.966 995.256 341.794V334.982H991.301C986.003 334.982 983.184 336.813 982.842 340.476L982.805 341.098C982.805 342.417 983.269 343.503 984.197 344.357C985.125 345.212 986.394 345.639 988.005 345.639ZM1036.27 323.3C1034.83 323.105 1033.56 323.007 1032.46 323.007C1028.46 323.007 1025.83 324.362 1024.59 327.072V353H1014.01V313.376H1024L1024.3 318.1C1026.42 314.462 1029.36 312.644 1033.12 312.644C1034.29 312.644 1035.39 312.802 1036.42 313.12L1036.27 323.3ZM1051.14 313.376L1051.47 317.954C1054.3 314.414 1058.1 312.644 1062.86 312.644C1067.06 312.644 1070.18 313.876 1072.23 316.342C1074.28 318.808 1075.33 322.495 1075.38 327.402V353H1064.8V327.658C1064.8 325.412 1064.31 323.789 1063.33 322.788C1062.36 321.762 1060.73 321.25 1058.46 321.25C1055.49 321.25 1053.25 322.519 1051.76 325.058V353H1041.18V313.376H1051.14ZM1094.61 353H1083.99V313.376H1094.61V353ZM1083.37 303.122C1083.37 301.535 1083.89 300.229 1084.94 299.204C1086.02 298.178 1087.47 297.666 1089.3 297.666C1091.11 297.666 1092.55 298.178 1093.62 299.204C1094.69 300.229 1095.23 301.535 1095.23 303.122C1095.23 304.733 1094.68 306.052 1093.58 307.077C1092.51 308.103 1091.08 308.615 1089.3 308.615C1087.52 308.615 1086.08 308.103 1084.98 307.077C1083.9 306.052 1083.37 304.733 1083.37 303.122ZM1113.1 313.376L1113.43 317.954C1116.26 314.414 1120.06 312.644 1124.82 312.644C1129.02 312.644 1132.15 313.876 1134.2 316.342C1136.25 318.808 1137.3 322.495 1137.35 327.402V353H1126.76V327.658C1126.76 325.412 1126.27 323.789 1125.3 322.788C1124.32 321.762 1122.7 321.25 1120.43 321.25C1117.45 321.25 1115.21 322.519 1113.73 325.058V353H1103.14V313.376H1113.1ZM1143.86 332.895C1143.86 326.816 1145.31 321.921 1148.19 318.21C1151.09 314.499 1155 312.644 1159.9 312.644C1164.25 312.644 1167.63 314.133 1170.05 317.111L1170.49 313.376H1180.08V351.682C1180.08 355.148 1179.29 358.164 1177.7 360.727C1176.14 363.291 1173.93 365.244 1171.07 366.586C1168.22 367.929 1164.87 368.601 1161.04 368.601C1158.13 368.601 1155.3 368.015 1152.54 366.843C1149.79 365.695 1147.7 364.206 1146.28 362.375L1150.97 355.93C1153.61 358.884 1156.8 360.361 1160.56 360.361C1163.37 360.361 1165.56 359.604 1167.12 358.09C1168.68 356.601 1169.46 354.477 1169.46 351.718V349.594C1167.02 352.353 1163.81 353.732 1159.83 353.732C1155.07 353.732 1151.21 351.877 1148.26 348.166C1145.33 344.431 1143.86 339.487 1143.86 333.334V332.895ZM1154.45 333.664C1154.45 337.253 1155.17 340.073 1156.61 342.124C1158.05 344.15 1160.03 345.163 1162.54 345.163C1165.76 345.163 1168.07 343.955 1169.46 341.538V324.875C1168.05 322.458 1165.76 321.25 1162.61 321.25C1160.08 321.25 1158.07 322.287 1156.61 324.362C1155.17 326.438 1154.45 329.538 1154.45 333.664ZM1229.89 353C1229.4 352.048 1229.05 350.864 1228.83 349.448C1226.26 352.304 1222.93 353.732 1218.83 353.732C1214.95 353.732 1211.72 352.609 1209.16 350.363C1206.62 348.117 1205.35 345.285 1205.35 341.867C1205.35 337.668 1206.9 334.445 1210 332.199C1213.13 329.953 1217.63 328.818 1223.52 328.793H1228.39V326.523C1228.39 324.692 1227.91 323.227 1226.96 322.128C1226.03 321.03 1224.55 320.48 1222.53 320.48C1220.74 320.48 1219.34 320.908 1218.32 321.762C1217.31 322.617 1216.81 323.789 1216.81 325.278H1206.23C1206.23 322.983 1206.94 320.859 1208.35 318.906C1209.77 316.953 1211.77 315.427 1214.36 314.328C1216.95 313.205 1219.85 312.644 1223.08 312.644C1227.96 312.644 1231.83 313.876 1234.69 316.342C1237.57 318.784 1239.01 322.226 1239.01 326.669V343.845C1239.03 347.604 1239.56 350.449 1240.58 352.377V353H1229.89ZM1221.14 345.639C1222.7 345.639 1224.14 345.297 1225.46 344.614C1226.77 343.906 1227.75 342.966 1228.39 341.794V334.982H1224.43C1219.13 334.982 1216.31 336.813 1215.97 340.476L1215.94 341.098C1215.94 342.417 1216.4 343.503 1217.33 344.357C1218.25 345.212 1219.52 345.639 1221.14 345.639ZM1282.81 333.554C1282.81 339.658 1281.41 344.553 1278.63 348.239C1275.87 351.901 1272.14 353.732 1267.42 353.732C1263.42 353.732 1260.19 352.341 1257.72 349.558V368.234H1247.14V313.376H1256.95L1257.32 317.258C1259.88 314.182 1263.23 312.644 1267.35 312.644C1272.23 312.644 1276.03 314.45 1278.74 318.063C1281.45 321.677 1282.81 326.657 1282.81 333.005V333.554ZM1272.22 332.785C1272.22 329.099 1271.56 326.254 1270.24 324.252C1268.95 322.25 1267.06 321.25 1264.57 321.25C1261.25 321.25 1258.96 322.519 1257.72 325.058V341.281C1259.01 343.894 1261.32 345.2 1264.64 345.2C1269.69 345.2 1272.22 341.062 1272.22 332.785ZM1325.07 333.554C1325.07 339.658 1323.67 344.553 1320.89 348.239C1318.13 351.901 1314.4 353.732 1309.69 353.732C1305.68 353.732 1302.45 352.341 1299.98 349.558V368.234H1289.4V313.376H1299.21L1299.58 317.258C1302.14 314.182 1305.49 312.644 1309.61 312.644C1314.49 312.644 1318.29 314.45 1321 318.063C1323.71 321.677 1325.07 326.657 1325.07 333.005V333.554ZM1314.48 332.785C1314.48 329.099 1313.82 326.254 1312.5 324.252C1311.21 322.25 1309.32 321.25 1306.83 321.25C1303.51 321.25 1301.23 322.519 1299.98 325.058V341.281C1301.27 343.894 1303.58 345.2 1306.9 345.2C1311.96 345.2 1314.48 341.062 1314.48 332.785ZM1363.01 303.635V313.376H1369.78V321.14H1363.01V340.915C1363.01 342.38 1363.29 343.43 1363.85 344.064C1364.41 344.699 1365.48 345.017 1367.07 345.017C1368.24 345.017 1369.28 344.931 1370.18 344.76V352.78C1368.11 353.415 1365.97 353.732 1363.77 353.732C1356.35 353.732 1352.57 349.985 1352.42 342.49V321.14H1346.64V313.376H1352.42V303.635H1363.01ZM1372.93 332.822C1372.93 328.891 1373.69 325.388 1375.2 322.312C1376.71 319.235 1378.89 316.855 1381.72 315.17C1384.58 313.486 1387.88 312.644 1391.64 312.644C1396.99 312.644 1401.35 314.279 1404.72 317.551C1408.11 320.822 1410 325.266 1410.39 330.881L1410.47 333.591C1410.47 339.67 1408.77 344.553 1405.38 348.239C1401.98 351.901 1397.43 353.732 1391.72 353.732C1386 353.732 1381.44 351.901 1378.02 348.239C1374.63 344.577 1372.93 339.597 1372.93 333.298V332.822ZM1383.51 333.591C1383.51 337.351 1384.22 340.231 1385.64 342.233C1387.05 344.211 1389.08 345.2 1391.72 345.2C1394.28 345.2 1396.28 344.223 1397.72 342.27C1399.16 340.292 1399.88 337.143 1399.88 332.822C1399.88 329.135 1399.16 326.279 1397.72 324.252C1396.28 322.226 1394.26 321.213 1391.64 321.213C1389.06 321.213 1387.05 322.226 1385.64 324.252C1384.22 326.254 1383.51 329.367 1383.51 333.591ZM1446.83 353H1436.21V313.376H1446.83V353ZM1435.59 303.122C1435.59 301.535 1436.11 300.229 1437.16 299.204C1438.24 298.178 1439.69 297.666 1441.52 297.666C1443.33 297.666 1444.77 298.178 1445.84 299.204C1446.92 300.229 1447.45 301.535 1447.45 303.122C1447.45 304.733 1446.9 306.052 1445.81 307.077C1444.73 308.103 1443.3 308.615 1441.52 308.615C1439.74 308.615 1438.3 308.103 1437.2 307.077C1436.13 306.052 1435.59 304.733 1435.59 303.122ZM1465.51 313.376L1465.84 317.807C1468.65 314.365 1472.44 312.644 1477.23 312.644C1482.33 312.644 1485.83 314.658 1487.74 318.686C1490.52 314.658 1494.49 312.644 1499.64 312.644C1503.94 312.644 1507.13 313.901 1509.23 316.416C1511.33 318.906 1512.38 322.666 1512.38 327.695V353H1501.76V327.731C1501.76 325.485 1501.32 323.85 1500.44 322.824C1499.57 321.774 1498.02 321.25 1495.79 321.25C1492.62 321.25 1490.42 322.763 1489.2 325.791L1489.24 353H1478.65V327.768C1478.65 325.473 1478.2 323.813 1477.3 322.788C1476.4 321.762 1474.86 321.25 1472.69 321.25C1469.68 321.25 1467.51 322.495 1466.17 324.985V353H1455.58V313.376H1465.51ZM1556.22 333.554C1556.22 339.658 1554.83 344.553 1552.04 348.239C1549.28 351.901 1545.55 353.732 1540.84 353.732C1536.83 353.732 1533.6 352.341 1531.13 349.558V368.234H1520.55V313.376H1530.36L1530.73 317.258C1533.29 314.182 1536.64 312.644 1540.76 312.644C1545.65 312.644 1549.44 314.45 1552.15 318.063C1554.86 321.677 1556.22 326.657 1556.22 333.005V333.554ZM1545.63 332.785C1545.63 329.099 1544.98 326.254 1543.66 324.252C1542.36 322.25 1540.47 321.25 1537.98 321.25C1534.66 321.25 1532.38 322.519 1531.13 325.058V341.281C1532.43 343.894 1534.73 345.2 1538.05 345.2C1543.11 345.2 1545.63 341.062 1545.63 332.785ZM1585.08 323.3C1583.64 323.105 1582.37 323.007 1581.27 323.007C1577.26 323.007 1574.64 324.362 1573.39 327.072V353H1562.81V313.376H1572.81L1573.1 318.1C1575.22 314.462 1578.17 312.644 1581.93 312.644C1583.1 312.644 1584.2 312.802 1585.22 313.12L1585.08 323.3ZM1587.24 332.822C1587.24 328.891 1587.99 325.388 1589.51 322.312C1591.02 319.235 1593.19 316.855 1596.03 315.17C1598.88 313.486 1602.19 312.644 1605.95 312.644C1611.3 312.644 1615.65 314.279 1619.02 317.551C1622.42 320.822 1624.31 325.266 1624.7 330.881L1624.77 333.591C1624.77 339.67 1623.08 344.553 1619.68 348.239C1616.29 351.901 1611.74 353.732 1606.02 353.732C1600.31 353.732 1595.74 351.901 1592.33 348.239C1588.93 344.577 1587.24 339.597 1587.24 333.298V332.822ZM1597.82 333.591C1597.82 337.351 1598.53 340.231 1599.94 342.233C1601.36 344.211 1603.39 345.2 1606.02 345.2C1608.59 345.2 1610.59 344.223 1612.03 342.27C1613.47 340.292 1614.19 337.143 1614.19 332.822C1614.19 329.135 1613.47 326.279 1612.03 324.252C1610.59 322.226 1608.56 321.213 1605.95 321.213C1603.36 321.213 1601.36 322.226 1599.94 324.252C1598.53 326.254 1597.82 329.367 1597.82 333.591ZM1645.54 340.073L1652.9 313.376H1663.96L1650.59 353H1640.48L1627.12 313.376H1638.18L1645.54 340.073ZM1686.37 353.732C1680.56 353.732 1675.82 351.95 1672.16 348.386C1668.52 344.821 1666.7 340.073 1666.7 334.14V333.115C1666.7 329.135 1667.47 325.583 1669.01 322.458C1670.55 319.309 1672.72 316.892 1675.53 315.207C1678.36 313.498 1681.58 312.644 1685.2 312.644C1690.62 312.644 1694.88 314.353 1697.98 317.771C1701.1 321.188 1702.67 326.035 1702.67 332.309V336.63H1677.43C1677.78 339.218 1678.8 341.293 1680.51 342.856C1682.24 344.418 1684.43 345.2 1687.07 345.2C1691.14 345.2 1694.33 343.723 1696.62 340.769L1701.82 346.591C1700.24 348.837 1698.09 350.595 1695.38 351.865C1692.67 353.11 1689.67 353.732 1686.37 353.732ZM1685.16 321.213C1683.06 321.213 1681.35 321.921 1680.03 323.337C1678.74 324.753 1677.91 326.779 1677.54 329.416H1692.27V328.574C1692.22 326.23 1691.58 324.423 1690.36 323.154C1689.14 321.86 1687.41 321.213 1685.16 321.213ZM570.525 430.05C570.525 428.756 569.878 427.743 568.584 427.011C567.314 426.254 565.264 425.583 562.432 424.997C553.008 423.019 548.296 419.015 548.296 412.985C548.296 409.469 549.749 406.54 552.654 404.196C555.583 401.828 559.404 400.644 564.116 400.644C569.146 400.644 573.162 401.828 576.165 404.196C579.192 406.564 580.706 409.64 580.706 413.424H570.122C570.122 411.911 569.634 410.666 568.657 409.689C567.681 408.688 566.155 408.188 564.08 408.188C562.297 408.188 560.918 408.59 559.941 409.396C558.965 410.202 558.477 411.227 558.477 412.472C558.477 413.644 559.026 414.596 560.125 415.329C561.248 416.037 563.127 416.659 565.764 417.196C568.401 417.709 570.623 418.295 572.429 418.954C578.02 421.005 580.815 424.557 580.815 429.611C580.815 433.224 579.265 436.154 576.165 438.4C573.064 440.622 569.06 441.732 564.153 441.732C560.833 441.732 557.878 441.146 555.291 439.975C552.727 438.778 550.713 437.155 549.248 435.104C547.783 433.029 547.051 430.795 547.051 428.402H557.085C557.183 430.282 557.878 431.723 559.172 432.724C560.466 433.725 562.2 434.225 564.373 434.225C566.399 434.225 567.925 433.847 568.95 433.09C570 432.309 570.525 431.295 570.525 430.05ZM600.334 391.635V401.376H607.109V409.14H600.334V428.915C600.334 430.38 600.615 431.43 601.177 432.064C601.738 432.699 602.812 433.017 604.399 433.017C605.571 433.017 606.609 432.931 607.512 432.76V440.78C605.437 441.415 603.301 441.732 601.104 441.732C593.682 441.732 589.897 437.985 589.751 430.49V409.14H583.965V401.376H589.751V391.635H600.334ZM636.736 436.972C634.124 440.146 630.51 441.732 625.896 441.732C621.648 441.732 618.401 440.512 616.155 438.07C613.933 435.629 612.798 432.052 612.749 427.34V401.376H623.333V426.974C623.333 431.1 625.212 433.163 628.972 433.163C632.561 433.163 635.027 431.918 636.37 429.428V401.376H646.99V441H637.029L636.736 436.972ZM653.325 420.895C653.325 414.718 654.705 409.799 657.463 406.137C660.247 402.475 664.043 400.644 668.853 400.644C672.71 400.644 675.896 402.084 678.411 404.965V384.75H689.031V441H679.473L678.96 436.789C676.323 440.084 672.93 441.732 668.779 441.732C664.116 441.732 660.369 439.901 657.537 436.239C654.729 432.553 653.325 427.438 653.325 420.895ZM663.909 421.664C663.909 425.375 664.556 428.219 665.85 430.197C667.144 432.174 669.023 433.163 671.489 433.163C674.761 433.163 677.068 431.784 678.411 429.025V413.388C677.092 410.629 674.81 409.25 671.562 409.25C666.46 409.25 663.909 413.388 663.909 421.664ZM715.471 441.732C709.661 441.732 704.924 439.95 701.262 436.386C697.625 432.821 695.806 428.073 695.806 422.14V421.115C695.806 417.135 696.575 413.583 698.113 410.458C699.651 407.309 701.824 404.892 704.631 403.207C707.463 401.498 710.686 400.644 714.299 400.644C719.719 400.644 723.979 402.353 727.08 405.771C730.205 409.188 731.768 414.035 731.768 420.309V424.63H706.536C706.877 427.218 707.903 429.293 709.612 430.856C711.345 432.418 713.53 433.2 716.167 433.2C720.244 433.2 723.43 431.723 725.725 428.769L730.925 434.591C729.338 436.837 727.19 438.595 724.48 439.865C721.77 441.11 718.767 441.732 715.471 441.732ZM714.263 409.213C712.163 409.213 710.454 409.921 709.136 411.337C707.842 412.753 707.012 414.779 706.646 417.416H721.367V416.574C721.318 414.23 720.684 412.423 719.463 411.154C718.242 409.86 716.509 409.213 714.263 409.213ZM747.551 401.376L747.881 405.954C750.713 402.414 754.509 400.644 759.27 400.644C763.469 400.644 766.594 401.876 768.645 404.342C770.696 406.808 771.746 410.495 771.794 415.402V441H761.211V415.658C761.211 413.412 760.723 411.789 759.746 410.788C758.77 409.762 757.146 409.25 754.875 409.25C751.897 409.25 749.663 410.519 748.174 413.058V441H737.59V401.376H747.551ZM792.522 391.635V401.376H799.297V409.14H792.522V428.915C792.522 430.38 792.803 431.43 793.364 432.064C793.926 432.699 795 433.017 796.587 433.017C797.759 433.017 798.796 432.931 799.7 432.76V440.78C797.625 441.415 795.488 441.732 793.291 441.732C785.869 441.732 782.085 437.985 781.938 430.49V409.14H776.152V401.376H781.938V391.635H792.522ZM826.653 430.05C826.653 428.756 826.006 427.743 824.712 427.011C823.442 426.254 821.392 425.583 818.56 424.997C809.136 423.019 804.424 419.015 804.424 412.985C804.424 409.469 805.876 406.54 808.782 404.196C811.711 401.828 815.532 400.644 820.244 400.644C825.273 400.644 829.29 401.828 832.292 404.196C835.32 406.564 836.833 409.64 836.833 413.424H826.25C826.25 411.911 825.762 410.666 824.785 409.689C823.809 408.688 822.283 408.188 820.208 408.188C818.425 408.188 817.046 408.59 816.069 409.396C815.093 410.202 814.604 411.227 814.604 412.472C814.604 413.644 815.154 414.596 816.252 415.329C817.375 416.037 819.255 416.659 821.892 417.196C824.529 417.709 826.75 418.295 828.557 418.954C834.148 421.005 836.943 424.557 836.943 429.611C836.943 433.224 835.393 436.154 832.292 438.4C829.192 440.622 825.188 441.732 820.281 441.732C816.96 441.732 814.006 441.146 811.418 439.975C808.855 438.778 806.841 437.155 805.376 435.104C803.911 433.029 803.179 430.795 803.179 428.402H813.213C813.311 430.282 814.006 431.723 815.3 432.724C816.594 433.725 818.328 434.225 820.5 434.225C822.527 434.225 824.053 433.847 825.078 433.09C826.128 432.309 826.653 431.295 826.653 430.05ZM880.706 441.732C874.895 441.732 870.159 439.95 866.497 436.386C862.859 432.821 861.04 428.073 861.04 422.14V421.115C861.04 417.135 861.809 413.583 863.347 410.458C864.885 407.309 867.058 404.892 869.866 403.207C872.698 401.498 875.92 400.644 879.534 400.644C884.954 400.644 889.214 402.353 892.314 405.771C895.439 409.188 897.002 414.035 897.002 420.309V424.63H871.77C872.112 427.218 873.137 429.293 874.846 430.856C876.58 432.418 878.765 433.2 881.401 433.2C885.479 433.2 888.665 431.723 890.959 428.769L896.16 434.591C894.573 436.837 892.424 438.595 889.714 439.865C887.004 441.11 884.001 441.732 880.706 441.732ZM879.497 409.213C877.397 409.213 875.688 409.921 874.37 411.337C873.076 412.753 872.246 414.779 871.88 417.416H886.602V416.574C886.553 414.23 885.918 412.423 884.697 411.154C883.477 409.86 881.743 409.213 879.497 409.213ZM912.786 401.376L913.115 405.954C915.947 402.414 919.744 400.644 924.504 400.644C928.704 400.644 931.829 401.876 933.879 404.342C935.93 406.808 936.98 410.495 937.029 415.402V441H926.445V415.658C926.445 413.412 925.957 411.789 924.98 410.788C924.004 409.762 922.38 409.25 920.11 409.25C917.131 409.25 914.897 410.519 913.408 413.058V441H902.825V401.376H912.786ZM943.547 420.895C943.547 414.816 944.988 409.921 947.869 406.21C950.774 402.499 954.68 400.644 959.587 400.644C963.933 400.644 967.314 402.133 969.731 405.111L970.171 401.376H979.766V439.682C979.766 443.148 978.972 446.164 977.385 448.727C975.823 451.291 973.613 453.244 970.757 454.586C967.9 455.929 964.556 456.601 960.723 456.601C957.817 456.601 954.985 456.015 952.227 454.843C949.468 453.695 947.38 452.206 945.964 450.375L950.652 443.93C953.289 446.884 956.487 448.361 960.247 448.361C963.054 448.361 965.239 447.604 966.802 446.09C968.364 444.601 969.146 442.477 969.146 439.718V437.594C966.704 440.353 963.494 441.732 959.514 441.732C954.753 441.732 950.896 439.877 947.942 436.166C945.012 432.431 943.547 427.487 943.547 421.334V420.895ZM954.131 421.664C954.131 425.253 954.851 428.073 956.292 430.124C957.732 432.15 959.709 433.163 962.224 433.163C965.447 433.163 967.754 431.955 969.146 429.538V412.875C967.729 410.458 965.447 409.25 962.297 409.25C959.758 409.25 957.756 410.287 956.292 412.362C954.851 414.438 954.131 417.538 954.131 421.664ZM1010.89 441C1010.41 440.048 1010.05 438.864 1009.83 437.448C1007.27 440.304 1003.94 441.732 999.834 441.732C995.952 441.732 992.729 440.609 990.166 438.363C987.627 436.117 986.357 433.285 986.357 429.867C986.357 425.668 987.908 422.445 991.008 420.199C994.133 417.953 998.638 416.818 1004.52 416.793H1009.39V414.523C1009.39 412.692 1008.92 411.227 1007.96 410.128C1007.04 409.03 1005.56 408.48 1003.53 408.48C1001.75 408.48 1000.35 408.908 999.321 409.762C998.32 410.617 997.82 411.789 997.82 413.278H987.236C987.236 410.983 987.944 408.859 989.36 406.906C990.776 404.953 992.778 403.427 995.366 402.328C997.954 401.205 1000.86 400.644 1004.08 400.644C1008.96 400.644 1012.83 401.876 1015.69 404.342C1018.57 406.784 1020.01 410.226 1020.01 414.669V431.845C1020.04 435.604 1020.56 438.449 1021.59 440.377V441H1010.89ZM1002.14 433.639C1003.7 433.639 1005.14 433.297 1006.46 432.614C1007.78 431.906 1008.76 430.966 1009.39 429.794V422.982H1005.44C1000.14 422.982 997.319 424.813 996.978 428.476L996.941 429.098C996.941 430.417 997.405 431.503 998.333 432.357C999.26 433.212 1000.53 433.639 1002.14 433.639ZM1026.6 420.895C1026.6 414.816 1028.04 409.921 1030.93 406.21C1033.83 402.499 1037.74 400.644 1042.64 400.644C1046.99 400.644 1050.37 402.133 1052.79 405.111L1053.23 401.376H1062.82V439.682C1062.82 443.148 1062.03 446.164 1060.44 448.727C1058.88 451.291 1056.67 453.244 1053.81 454.586C1050.96 455.929 1047.61 456.601 1043.78 456.601C1040.87 456.601 1038.04 456.015 1035.28 454.843C1032.52 453.695 1030.44 452.206 1029.02 450.375L1033.71 443.93C1036.35 446.884 1039.54 448.361 1043.3 448.361C1046.11 448.361 1048.3 447.604 1049.86 446.09C1051.42 444.601 1052.2 442.477 1052.2 439.718V437.594C1049.76 440.353 1046.55 441.732 1042.57 441.732C1037.81 441.732 1033.95 439.877 1031 436.166C1028.07 432.431 1026.6 427.487 1026.6 421.334V420.895ZM1037.19 421.664C1037.19 425.253 1037.91 428.073 1039.35 430.124C1040.79 432.15 1042.77 433.163 1045.28 433.163C1048.5 433.163 1050.81 431.955 1052.2 429.538V412.875C1050.79 410.458 1048.5 409.25 1045.35 409.25C1042.81 409.25 1040.81 410.287 1039.35 412.362C1037.91 414.438 1037.19 417.538 1037.19 421.664ZM1089.23 441.732C1083.42 441.732 1078.68 439.95 1075.02 436.386C1071.38 432.821 1069.56 428.073 1069.56 422.14V421.115C1069.56 417.135 1070.33 413.583 1071.87 410.458C1073.41 407.309 1075.58 404.892 1078.39 403.207C1081.22 401.498 1084.44 400.644 1088.05 400.644C1093.47 400.644 1097.73 402.353 1100.83 405.771C1103.96 409.188 1105.52 414.035 1105.52 420.309V424.63H1080.29C1080.63 427.218 1081.66 429.293 1083.37 430.856C1085.1 432.418 1087.29 433.2 1089.92 433.2C1094 433.2 1097.19 431.723 1099.48 428.769L1104.68 434.591C1103.09 436.837 1100.94 438.595 1098.23 439.865C1095.52 441.11 1092.52 441.732 1089.23 441.732ZM1088.02 409.213C1085.92 409.213 1084.21 409.921 1082.89 411.337C1081.6 412.753 1080.77 414.779 1080.4 417.416H1095.12V416.574C1095.07 414.23 1094.44 412.423 1093.22 411.154C1092 409.86 1090.26 409.213 1088.02 409.213ZM1121.49 401.376L1121.82 405.807C1124.63 402.365 1128.42 400.644 1133.21 400.644C1138.31 400.644 1141.81 402.658 1143.72 406.686C1146.5 402.658 1150.47 400.644 1155.62 400.644C1159.92 400.644 1163.12 401.901 1165.21 404.416C1167.31 406.906 1168.36 410.666 1168.36 415.695V441H1157.74V415.731C1157.74 413.485 1157.3 411.85 1156.43 410.824C1155.55 409.774 1154 409.25 1151.77 409.25C1148.6 409.25 1146.4 410.763 1145.18 413.791L1145.22 441H1134.64V415.768C1134.64 413.473 1134.18 411.813 1133.28 410.788C1132.38 409.762 1130.84 409.25 1128.67 409.25C1125.66 409.25 1123.49 410.495 1122.15 412.985V441H1111.56V401.376H1121.49ZM1194.77 441.732C1188.96 441.732 1184.22 439.95 1180.56 436.386C1176.92 432.821 1175.1 428.073 1175.1 422.14V421.115C1175.1 417.135 1175.87 413.583 1177.41 410.458C1178.95 407.309 1181.12 404.892 1183.93 403.207C1186.76 401.498 1189.98 400.644 1193.6 400.644C1199.02 400.644 1203.28 402.353 1206.38 405.771C1209.5 409.188 1211.06 414.035 1211.06 420.309V424.63H1185.83C1186.17 427.218 1187.2 429.293 1188.91 430.856C1190.64 432.418 1192.83 433.2 1195.46 433.2C1199.54 433.2 1202.73 431.723 1205.02 428.769L1210.22 434.591C1208.64 436.837 1206.49 438.595 1203.78 439.865C1201.07 441.11 1198.06 441.732 1194.77 441.732ZM1193.56 409.213C1191.46 409.213 1189.75 409.921 1188.43 411.337C1187.14 412.753 1186.31 414.779 1185.94 417.416H1200.66V416.574C1200.62 414.23 1199.98 412.423 1198.76 411.154C1197.54 409.86 1195.81 409.213 1193.56 409.213ZM1226.85 401.376L1227.18 405.954C1230.01 402.414 1233.81 400.644 1238.57 400.644C1242.77 400.644 1245.89 401.876 1247.94 404.342C1249.99 406.808 1251.04 410.495 1251.09 415.402V441H1240.51V415.658C1240.51 413.412 1240.02 411.789 1239.04 410.788C1238.07 409.762 1236.44 409.25 1234.17 409.25C1231.19 409.25 1228.96 410.519 1227.47 413.058V441H1216.89V401.376H1226.85ZM1271.82 391.635V401.376H1278.59V409.14H1271.82V428.915C1271.82 430.38 1272.1 431.43 1272.66 432.064C1273.22 432.699 1274.3 433.017 1275.88 433.017C1277.06 433.017 1278.09 432.931 1279 432.76V440.78C1276.92 441.415 1274.79 441.732 1272.59 441.732C1265.17 441.732 1261.38 437.985 1261.24 430.49V409.14H1255.45V401.376H1261.24V391.635H1271.82ZM1314.34 441H1303.72V401.376H1314.34V441ZM1303.09 391.122C1303.09 389.535 1303.62 388.229 1304.67 387.204C1305.74 386.178 1307.19 385.666 1309.03 385.666C1310.83 385.666 1312.27 386.178 1313.35 387.204C1314.42 388.229 1314.96 389.535 1314.96 391.122C1314.96 392.733 1314.41 394.052 1313.31 395.077C1312.24 396.103 1310.81 396.615 1309.03 396.615C1307.24 396.615 1305.8 396.103 1304.7 395.077C1303.63 394.052 1303.09 392.733 1303.09 391.122ZM1332.83 401.376L1333.16 405.954C1335.99 402.414 1339.79 400.644 1344.55 400.644C1348.75 400.644 1351.87 401.876 1353.92 404.342C1355.97 406.808 1357.02 410.495 1357.07 415.402V441H1346.49V415.658C1346.49 413.412 1346 411.789 1345.02 410.788C1344.05 409.762 1342.42 409.25 1340.15 409.25C1337.18 409.25 1334.94 410.519 1333.45 413.058V441H1322.87V401.376H1332.83ZM1396.48 391.635V401.376H1403.25V409.14H1396.48V428.915C1396.48 430.38 1396.76 431.43 1397.32 432.064C1397.88 432.699 1398.96 433.017 1400.54 433.017C1401.71 433.017 1402.75 432.931 1403.65 432.76V440.78C1401.58 441.415 1399.44 441.732 1397.25 441.732C1389.82 441.732 1386.04 437.985 1385.89 430.49V409.14H1380.11V401.376H1385.89V391.635H1396.48ZM1419.48 405.697C1422.28 402.328 1425.81 400.644 1430.06 400.644C1438.65 400.644 1443.01 405.636 1443.13 415.622V441H1432.55V415.915C1432.55 413.644 1432.06 411.972 1431.08 410.897C1430.11 409.799 1428.48 409.25 1426.21 409.25C1423.11 409.25 1420.87 410.446 1419.48 412.838V441H1408.89V384.75H1419.48V405.697ZM1469.35 441.732C1463.54 441.732 1458.81 439.95 1455.14 436.386C1451.51 432.821 1449.69 428.073 1449.69 422.14V421.115C1449.69 417.135 1450.46 413.583 1451.99 410.458C1453.53 407.309 1455.71 404.892 1458.51 403.207C1461.35 401.498 1464.57 400.644 1468.18 400.644C1473.6 400.644 1477.86 402.353 1480.96 405.771C1484.09 409.188 1485.65 414.035 1485.65 420.309V424.63H1460.42C1460.76 427.218 1461.78 429.293 1463.49 430.856C1465.23 432.418 1467.41 433.2 1470.05 433.2C1474.13 433.2 1477.31 431.723 1479.61 428.769L1484.81 434.591C1483.22 436.837 1481.07 438.595 1478.36 439.865C1475.65 441.11 1472.65 441.732 1469.35 441.732ZM1468.14 409.213C1466.04 409.213 1464.34 409.921 1463.02 411.337C1461.72 412.753 1460.89 414.779 1460.53 417.416H1475.25V416.574C1475.2 414.23 1474.57 412.423 1473.34 411.154C1472.12 409.86 1470.39 409.213 1468.14 409.213ZM1525.2 428.073L1532.56 401.376H1543.62L1530.25 441H1520.15L1506.78 401.376H1517.84L1525.2 428.073ZM1559.48 441H1548.86V401.376H1559.48V441ZM1548.23 391.122C1548.23 389.535 1548.76 388.229 1549.81 387.204C1550.88 386.178 1552.34 385.666 1554.17 385.666C1555.97 385.666 1557.41 386.178 1558.49 387.204C1559.56 388.229 1560.1 389.535 1560.1 391.122C1560.1 392.733 1559.55 394.052 1558.45 395.077C1557.38 396.103 1555.95 396.615 1554.17 396.615C1552.39 396.615 1550.94 396.103 1549.85 395.077C1548.77 394.052 1548.23 392.733 1548.23 391.122ZM1590.5 411.3C1589.06 411.105 1587.79 411.007 1586.69 411.007C1582.68 411.007 1580.06 412.362 1578.81 415.072V441H1568.23V401.376H1578.23L1578.52 406.1C1580.64 402.462 1583.59 400.644 1587.35 400.644C1588.52 400.644 1589.62 400.802 1590.64 401.12L1590.5 411.3ZM1610.12 391.635V401.376H1616.9V409.14H1610.12V428.915C1610.12 430.38 1610.41 431.43 1610.97 432.064C1611.53 432.699 1612.6 433.017 1614.19 433.017C1615.36 433.017 1616.4 432.931 1617.3 432.76V440.78C1615.23 441.415 1613.09 441.732 1610.89 441.732C1603.47 441.732 1599.69 437.985 1599.54 430.49V409.14H1593.75V401.376H1599.54V391.635H1610.12ZM1646.53 436.972C1643.91 440.146 1640.3 441.732 1635.69 441.732C1631.44 441.732 1628.19 440.512 1625.94 438.07C1623.72 435.629 1622.59 432.052 1622.54 427.34V401.376H1633.12V426.974C1633.12 431.1 1635 433.163 1638.76 433.163C1642.35 433.163 1644.82 431.918 1646.16 429.428V401.376H1656.78V441H1646.82L1646.53 436.972ZM1687.72 441C1687.24 440.048 1686.88 438.864 1686.66 437.448C1684.1 440.304 1680.77 441.732 1676.67 441.732C1672.78 441.732 1669.56 440.609 1667 438.363C1664.46 436.117 1663.19 433.285 1663.19 429.867C1663.19 425.668 1664.74 422.445 1667.84 420.199C1670.96 417.953 1675.47 416.818 1681.35 416.793H1686.22V414.523C1686.22 412.692 1685.75 411.227 1684.79 410.128C1683.87 409.03 1682.39 408.48 1680.36 408.48C1678.58 408.48 1677.18 408.908 1676.15 409.762C1675.15 410.617 1674.65 411.789 1674.65 413.278H1664.07C1664.07 410.983 1664.78 408.859 1666.19 406.906C1667.61 404.953 1669.61 403.427 1672.2 402.328C1674.79 401.205 1677.69 400.644 1680.91 400.644C1685.8 400.644 1689.67 401.876 1692.52 404.342C1695.4 406.784 1696.84 410.226 1696.84 414.669V431.845C1696.87 435.604 1697.39 438.449 1698.42 440.377V441H1687.72ZM1678.97 433.639C1680.53 433.639 1681.98 433.297 1683.29 432.614C1684.61 431.906 1685.59 430.966 1686.22 429.794V422.982H1682.27C1676.97 422.982 1674.15 424.813 1673.81 428.476L1673.77 429.098C1673.77 430.417 1674.24 431.503 1675.16 432.357C1676.09 433.212 1677.36 433.639 1678.97 433.639ZM1716.14 441H1705.52V384.75H1716.14V441ZM565.544 521.2C567.498 521.2 569.084 520.663 570.305 519.588C571.526 518.514 572.161 517.086 572.209 515.304H582.134C582.109 517.989 581.377 520.455 579.937 522.701C578.496 524.923 576.519 526.656 574.004 527.901C571.514 529.122 568.755 529.732 565.728 529.732C560.063 529.732 555.596 527.938 552.324 524.349C549.053 520.736 547.417 515.755 547.417 509.408V508.712C547.417 502.608 549.041 497.738 552.288 494.1C555.535 490.462 559.99 488.644 565.654 488.644C570.61 488.644 574.578 490.06 577.556 492.892C580.559 495.699 582.085 499.447 582.134 504.134H572.209C572.161 502.083 571.526 500.423 570.305 499.154C569.084 497.86 567.473 497.213 565.471 497.213C563.005 497.213 561.138 498.116 559.868 499.923C558.623 501.705 558 504.61 558 508.639V509.737C558 513.814 558.623 516.744 559.868 518.526C561.113 520.309 563.005 521.2 565.544 521.2ZM599.346 529H588.726V472.75H599.346V529ZM631.06 529C630.571 528.048 630.217 526.864 629.998 525.448C627.434 528.304 624.102 529.732 620 529.732C616.118 529.732 612.896 528.609 610.332 526.363C607.793 524.117 606.523 521.285 606.523 517.867C606.523 513.668 608.074 510.445 611.174 508.199C614.299 505.953 618.804 504.818 624.688 504.793H629.558V502.523C629.558 500.692 629.082 499.227 628.13 498.128C627.202 497.03 625.725 496.48 623.699 496.48C621.917 496.48 620.513 496.908 619.487 497.762C618.486 498.617 617.986 499.789 617.986 501.278H607.402C607.402 498.983 608.11 496.859 609.526 494.906C610.942 492.953 612.944 491.427 615.532 490.328C618.12 489.205 621.025 488.644 624.248 488.644C629.131 488.644 633 489.876 635.857 492.342C638.738 494.784 640.178 498.226 640.178 502.669V519.845C640.203 523.604 640.728 526.449 641.753 528.377V529H631.06ZM622.307 521.639C623.87 521.639 625.31 521.297 626.628 520.614C627.947 519.906 628.923 518.966 629.558 517.794V510.982H625.603C620.305 510.982 617.485 512.813 617.144 516.476L617.107 517.098C617.107 518.417 617.571 519.503 618.499 520.357C619.426 521.212 620.696 521.639 622.307 521.639ZM669.768 518.05C669.768 516.756 669.121 515.743 667.827 515.011C666.558 514.254 664.507 513.583 661.675 512.997C652.251 511.019 647.539 507.015 647.539 500.985C647.539 497.469 648.992 494.54 651.897 492.196C654.827 489.828 658.647 488.644 663.359 488.644C668.389 488.644 672.405 489.828 675.408 492.196C678.435 494.564 679.949 497.64 679.949 501.424H669.365C669.365 499.911 668.877 498.666 667.9 497.689C666.924 496.688 665.398 496.188 663.323 496.188C661.541 496.188 660.161 496.59 659.185 497.396C658.208 498.202 657.72 499.227 657.72 500.472C657.72 501.644 658.269 502.596 659.368 503.329C660.491 504.037 662.371 504.659 665.007 505.196C667.644 505.709 669.866 506.295 671.672 506.954C677.263 509.005 680.059 512.557 680.059 517.611C680.059 521.224 678.508 524.154 675.408 526.4C672.307 528.622 668.303 529.732 663.396 529.732C660.076 529.732 657.122 529.146 654.534 527.975C651.97 526.778 649.956 525.155 648.491 523.104C647.026 521.029 646.294 518.795 646.294 516.402H656.328C656.426 518.282 657.122 519.723 658.416 520.724C659.709 521.725 661.443 522.225 663.616 522.225C665.642 522.225 667.168 521.847 668.193 521.09C669.243 520.309 669.768 519.295 669.768 518.05ZM708.367 518.05C708.367 516.756 707.72 515.743 706.426 515.011C705.156 514.254 703.105 513.583 700.273 512.997C690.85 511.019 686.138 507.015 686.138 500.985C686.138 497.469 687.59 494.54 690.496 492.196C693.425 489.828 697.246 488.644 701.958 488.644C706.987 488.644 711.003 489.828 714.006 492.196C717.034 494.564 718.547 497.64 718.547 501.424H707.964C707.964 499.911 707.476 498.666 706.499 497.689C705.522 496.688 703.997 496.188 701.921 496.188C700.139 496.188 698.76 496.59 697.783 497.396C696.807 498.202 696.318 499.227 696.318 500.472C696.318 501.644 696.868 502.596 697.966 503.329C699.089 504.037 700.969 504.659 703.606 505.196C706.243 505.709 708.464 506.295 710.271 506.954C715.862 509.005 718.657 512.557 718.657 517.611C718.657 521.224 717.107 524.154 714.006 526.4C710.906 528.622 706.902 529.732 701.995 529.732C698.674 529.732 695.72 529.146 693.132 527.975C690.569 526.778 688.555 525.155 687.09 523.104C685.625 521.029 684.893 518.795 684.893 516.402H694.927C695.024 518.282 695.72 519.723 697.014 520.724C698.308 521.725 700.042 522.225 702.214 522.225C704.241 522.225 705.767 521.847 706.792 521.09C707.842 520.309 708.367 519.295 708.367 518.05ZM747.771 499.3C746.331 499.105 745.061 499.007 743.962 499.007C739.958 499.007 737.334 500.362 736.089 503.072V529H725.505V489.376H735.503L735.796 494.1C737.92 490.462 740.862 488.644 744.622 488.644C745.793 488.644 746.892 488.802 747.917 489.12L747.771 499.3ZM749.932 508.822C749.932 504.891 750.688 501.388 752.202 498.312C753.716 495.235 755.889 492.855 758.721 491.17C761.577 489.486 764.885 488.644 768.645 488.644C773.992 488.644 778.35 490.279 781.719 493.551C785.112 496.822 787.004 501.266 787.395 506.881L787.468 509.591C787.468 515.67 785.771 520.553 782.378 524.239C778.984 527.901 774.431 529.732 768.718 529.732C763.005 529.732 758.44 527.901 755.022 524.239C751.628 520.577 749.932 515.597 749.932 509.298V508.822ZM760.515 509.591C760.515 513.351 761.223 516.231 762.639 518.233C764.055 520.211 766.082 521.2 768.718 521.2C771.282 521.2 773.284 520.223 774.724 518.27C776.165 516.292 776.885 513.143 776.885 508.822C776.885 505.135 776.165 502.279 774.724 500.252C773.284 498.226 771.257 497.213 768.645 497.213C766.057 497.213 764.055 498.226 762.639 500.252C761.223 502.254 760.515 505.367 760.515 509.591ZM792.339 508.822C792.339 504.891 793.096 501.388 794.609 498.312C796.123 495.235 798.296 492.855 801.128 491.17C803.984 489.486 807.292 488.644 811.052 488.644C816.399 488.644 820.757 490.279 824.126 493.551C827.52 496.822 829.412 501.266 829.802 506.881L829.875 509.591C829.875 515.67 828.179 520.553 824.785 524.239C821.392 527.901 816.838 529.732 811.125 529.732C805.413 529.732 800.847 527.901 797.429 524.239C794.036 520.577 792.339 515.597 792.339 509.298V508.822ZM802.922 509.591C802.922 513.351 803.63 516.231 805.046 518.233C806.462 520.211 808.489 521.2 811.125 521.2C813.689 521.2 815.691 520.223 817.131 518.27C818.572 516.292 819.292 513.143 819.292 508.822C819.292 505.135 818.572 502.279 817.131 500.252C815.691 498.226 813.665 497.213 811.052 497.213C808.464 497.213 806.462 498.226 805.046 500.252C803.63 502.254 802.922 505.367 802.922 509.591ZM846.318 489.376L846.648 493.807C849.456 490.365 853.252 488.644 858.037 488.644C863.14 488.644 866.643 490.658 868.547 494.686C871.331 490.658 875.298 488.644 880.449 488.644C884.746 488.644 887.944 489.901 890.044 492.416C892.144 494.906 893.193 498.666 893.193 503.695V529H882.573V503.731C882.573 501.485 882.134 499.85 881.255 498.824C880.376 497.774 878.826 497.25 876.604 497.25C873.43 497.25 871.233 498.763 870.012 501.791L870.049 529H859.465V503.768C859.465 501.473 859.014 499.813 858.11 498.788C857.207 497.762 855.669 497.25 853.496 497.25C850.493 497.25 848.32 498.495 846.978 500.985V529H836.394V489.376H846.318ZM901.909 523.8C901.909 522.115 902.471 520.748 903.594 519.698C904.741 518.648 906.169 518.124 907.878 518.124C909.612 518.124 911.04 518.648 912.163 519.698C913.311 520.748 913.884 522.115 913.884 523.8C913.884 525.46 913.323 526.815 912.2 527.865C911.077 528.89 909.636 529.403 907.878 529.403C906.145 529.403 904.717 528.89 903.594 527.865C902.471 526.815 901.909 525.46 901.909 523.8Z" fill="white"/>
<defs>
<linearGradient id="paint0_linear_109_27" x1="960" y1="0" x2="960" y2="650" gradientUnits="userSpaceOnUse">
<stop stop-color="#0451E5"/>
<stop offset="1" stop-color="#2072FF"/>
</linearGradient>
<linearGradient id="paint1_linear_109_27" x1="291" y1="150" x2="291" y2="500" gradientUnits="userSpaceOnUse">
<stop stop-color="#0451E5"/>
<stop offset="1" stop-color="#2072FF"/>
</linearGradient>
<linearGradient id="paint2_linear_109_27" x1="317.541" y1="260.793" x2="317.541" y2="268.708" gradientUnits="userSpaceOnUse">
<stop stop-color="#0451E5"/>
<stop offset="1" stop-color="#2072FF"/>
</linearGradient>
<linearGradient id="paint3_linear_109_27" x1="239.212" y1="264.208" x2="239.212" y2="279.792" gradientUnits="userSpaceOnUse">
<stop stop-color="#0451E5"/>
<stop offset="1" stop-color="#2072FF"/>
</linearGradient>
<linearGradient id="paint4_linear_109_27" x1="323.667" y1="284.75" x2="323.667" y2="304" gradientUnits="userSpaceOnUse">
<stop stop-color="#0451E5"/>
<stop offset="1" stop-color="#2072FF"/>
</linearGradient>
<linearGradient id="paint5_linear_109_27" x1="249" y1="290" x2="249" y2="312.167" gradientUnits="userSpaceOnUse">
<stop stop-color="#0451E5"/>
<stop offset="1" stop-color="#2072FF"/>
</linearGradient>
<linearGradient id="paint6_linear_109_27" x1="257.74" y1="430.008" x2="346" y2="465.605" gradientUnits="userSpaceOnUse">
<stop stop-color="#FF6105"/>
<stop offset="1" stop-color="#FF2327"/>
</linearGradient>
</defs>
</svg>
