<svg width="503" height="350" viewBox="0 0 503 350" fill="none" xmlns="http://www.w3.org/2000/svg">
<path d="M62.9848 28.6927C58.5756 56.9949 55.6036 85.6581 53.9552 114.264C53.6061 120.287 53.4761 129.691 60.7355 131.742C66.5902 133.384 73.0538 129.215 77.6335 125.998C92.2011 115.905 104.503 102.16 116.139 88.8256C118.632 85.9699 121.547 83.1307 123.667 79.9632C125.185 77.6984 124.828 74.7278 124.211 72.1676C122.497 65.0859 117.162 59.0381 112.03 54.2705C99.1438 42.3473 82.9847 34.1415 67.1992 26.9449C63.8943 25.435 60.9954 30.3832 64.3328 31.8684C78.1776 38.269 92.2741 45.3343 104.162 55.0747C109.505 59.4402 115.165 64.692 117.893 71.2403C118.183 71.9663 118.429 72.7088 118.632 73.4641C118.79 74.0311 118.901 74.6102 118.965 75.1956C118.965 75.6879 118.965 76.1721 118.965 76.6644C118.965 77.3373 119.29 76.6644 118.965 76.9598C118.803 77.0911 120.37 75.2366 118.916 76.7957C117.601 78.2071 116.415 79.7827 115.157 81.2515C104.771 93.388 93.89 105.36 81.6936 115.716C76.9596 119.721 71.1374 124.849 64.9255 126.162C63.2284 126.523 61.9211 126.532 61.0441 125.457C59.7286 123.816 59.485 120.804 59.4688 118.49C59.3876 108.733 60.6381 98.7957 61.4988 89.0964C62.392 78.9922 63.4395 68.9044 64.6413 58.833C65.77 49.2895 66.9799 39.7461 68.4578 30.2519C69.0343 26.6002 63.5613 25.0411 62.9848 28.6927Z" fill="#18253F"/>
<path d="M220.132 33.7463C224.135 59.4308 226.823 85.4435 228.553 111.341C228.869 116.125 230.023 122.009 228.553 126.76C227.952 128.73 227.302 129.599 225.751 129.854C221.537 130.535 215.073 125.611 211.436 122.879C198.338 113.032 187.075 100.444 176.292 88.1186C174.565 86.1382 172.854 84.1442 171.16 82.1365C170.616 81.4964 169.723 79.8553 168.943 79.4778C166.905 78.4767 170.388 81.119 169.593 80.4871C169.17 80.1671 169.593 80.9056 169.593 80.1917C169.47 79.1087 169.592 78.0117 169.95 76.9832C171.574 70.6482 176.884 65.1995 181.724 60.8914C194.083 49.8873 209.422 42.2476 224.314 35.4531C227.643 33.9351 224.753 28.9869 221.448 30.5296C206.71 37.2502 191.955 44.8325 179.459 55.3442C173.774 60.1201 168.172 65.856 165.354 72.8967C164.29 75.539 163.235 79.1742 164.152 82.038C164.964 84.5572 167.766 86.9616 169.422 88.8653C180.677 101.995 192.516 115.124 206.093 125.923C211.208 129.977 217.55 135.048 224.322 135.565C230.9 136.074 234.066 130.765 234.675 124.799C235.585 115.772 233.936 106.18 233.189 97.1943C232.285 86.3735 231.203 75.5718 229.941 64.7892C228.683 53.9164 227.319 43.0518 225.638 32.2364C225.045 28.593 219.564 30.1357 220.132 33.7463Z" fill="#18253F"/>
<path d="M222.063 146.372C221.606 141.064 220.512 135.996 218.875 131.19L192.453 107.259C192.938 107.701 173.036 84.9516 174.202 85.4602C173.061 84.9537 171.91 84.4692 170.752 84.0073C154.45 77.5046 135.481 75.0801 118.082 78.8242C118.082 78.8242 94.4894 106.551 86.4642 112.904L69.7292 124.619C69.3629 125.945 69.0329 127.283 68.7392 128.631C66.3031 139.676 66.0758 151.23 65.6292 162.489C65.3206 170.366 65.3044 178.244 65.3612 186.13C65.3612 190.159 65.4343 194.139 64.5005 197.963C63.2581 203.091 60.8626 207.916 58.6215 212.659C53.8956 222.662 49.4782 231.902 50.3958 243.325C50.7978 247.914 51.755 252.437 53.246 256.791C54.058 259.252 54.805 263.191 56.2829 265.3C56.3635 265.522 56.4128 265.754 56.4291 265.99C56.1611 265.99 57.9962 263.946 58.0531 264.348C57.3032 264.022 56.5713 263.655 55.8606 263.249C53.2866 261.337 51.1266 258.58 49.2103 256.028C43.9809 249.053 39.5311 240.929 37.4767 232.378C36.6159 228.792 36.1125 224.804 37.2493 221.226C38.7353 216.508 43.4937 213.841 46.0028 209.689C49.9005 203.231 50.2415 194.672 46.0028 188.271C44.2164 185.58 40.7572 184.169 37.7528 183.446C29.795 181.493 21.9347 184.538 15.6822 189.494C8.06556 195.525 1.87803 203.444 0.432643 213.291C-0.801617 221.834 0.749328 230.663 3.25845 238.877C8.40661 255.97 17.5661 272.374 28.7232 286.184C31.8169 290.016 35.4385 294.628 40.0914 296.524C44.9634 298.493 50.6475 298.797 55.8119 299.281C73.9604 300.963 92.3038 300.971 110.509 300.971C118.419 300.971 126.345 300.777 134.27 300.639C138.278 300.569 146.38 322.189 160.54 332.501C177.968 345.193 207.243 347.085 207.243 347.085L216 297.501C224.047 295.515 219.774 292.068 224.207 284.322C226.44 280.424 227.642 275.467 228.949 271.192C229.976 267.938 230.757 264.611 231.288 261.238C232.473 253.246 231.783 245.171 230.996 237.17C229.372 220.57 227.333 204.019 225.709 187.418C224.372 173.742 223.157 160.065 222.063 146.389C221.771 142.729 216.079 142.696 216.379 146.389C218.252 169.606 220.461 192.79 223.005 215.942C224.223 226.962 225.815 238.04 226.205 249.135C226.508 255.534 225.742 261.94 223.939 268.082C222.834 272.063 221.522 275.983 220.009 279.825C218.173 284.344 216.398 324.74 210.162 341.251C207.243 347.085 195.567 344.168 195.567 344.168L169.297 335.418L151.784 320.835C144.825 320.457 134.27 294.585 134.27 294.585C116.008 294.855 100.586 295.35 82.3323 294.874C74.0822 294.661 65.8322 294.357 57.6065 293.66C52.6207 293.241 46.7417 293.126 42.0483 291.124C38.5323 289.622 34.862 284.789 32.3041 281.54C27.0853 274.885 22.4655 267.772 18.4999 260.286C10.8589 246.107 2.08915 226.774 6.88815 210.288C9.51095 201.261 18.5162 192.235 27.3428 189.387C30.3165 188.389 33.5096 188.264 36.551 189.026C38.3212 189.494 39.6204 190.528 41.2525 191.176C41.7316 191.365 40.879 190.75 40.8709 190.733C41.285 191.554 41.8859 192.333 42.2757 193.195C43.0763 195.011 43.4901 196.976 43.4901 198.964C43.4901 200.951 43.0763 202.917 42.2757 204.732C40.1888 209.484 35.5522 212.019 33.173 216.475C31.5894 219.561 30.8335 223.013 30.9806 226.486C31.1917 234.766 34.6509 242.898 38.5973 250.021C42.0158 256.175 46.2383 262.617 51.6788 267.155C54.4965 269.51 61.6259 272.472 62.105 266.268C62.2674 264.135 61.1468 261.862 60.416 259.925C59.0371 256.437 57.9002 252.856 57.0137 249.208C55.7978 244.022 55.6266 238.642 56.5103 233.387C57.5496 227.643 60.2049 222.605 62.6978 217.378C65.1338 212.298 67.6754 207.17 69.3644 201.787C72.2552 192.563 70.9072 182.306 71.0453 172.795C71.2077 161.405 71.6056 149.884 72.8561 138.56C73.2894 134.227 74.1113 129.95 75.3076 125.781C76.3218 122.247 94.8318 110.081 94.8318 110.081L118.082 84.9516C127.176 82.7472 136.869 82.3308 146.384 83.556C155.816 84.7698 165.335 87.509 174.202 91.672C182.605 95.6174 189.664 110.081 189.664 110.081C189.664 110.081 205.925 117.15 209.188 122.997C209.981 124.419 210.723 125.876 211.41 127.367C214.151 133.37 215.838 139.809 216.396 146.397C216.696 150.024 222.38 150.057 222.063 146.372Z" fill="#18253F"/>
<path d="M140.078 153.954C139.518 164.893 122.214 164.909 121.653 153.954C121.467 150.278 115.783 150.254 115.969 153.954C116.903 172.278 144.828 172.286 145.762 153.954C145.949 150.262 140.265 150.27 140.078 153.954Z" fill="#18253F"/>
<path d="M164.231 153.954C163.671 164.893 146.367 164.909 145.807 153.954C145.62 150.278 139.936 150.254 140.123 153.954C141.056 172.278 168.982 172.286 169.915 153.954C170.102 150.262 164.418 150.27 164.231 153.954Z" fill="#18253F"/>
<path d="M189.165 134.581C188.954 130.11 187.031 125.897 183.801 122.834C180.572 119.771 176.289 118.098 171.861 118.169C162.636 118.169 154.938 125.168 154.557 134.581C154.403 138.273 160.087 138.273 160.241 134.581C160.809 120.704 182.912 120.688 183.481 134.581C183.635 138.265 189.319 138.281 189.165 134.581Z" fill="#18253F"/>
<path d="M128.154 134.049C127.944 129.578 126.02 125.365 122.791 122.302C119.561 119.239 115.279 117.566 110.85 117.637C101.626 117.637 93.9277 124.636 93.5461 134.049C93.3918 137.741 99.0759 137.741 99.2301 134.049C99.7986 120.172 121.902 120.156 122.47 134.049C122.624 137.733 128.308 137.749 128.154 134.049Z" fill="#18253F"/>
<path d="M151.58 146.841C151.312 148.884 146.294 150.452 144.759 150.698C141.861 151.166 136.696 150.197 135.015 147.333C134.569 146.562 134.366 147.785 134.837 147.095C135.161 146.62 136.298 146.406 136.81 146.275C138.609 145.741 140.473 145.465 142.348 145.454C143.972 145.454 151.28 145.356 151.662 147.629C152.254 151.264 157.735 149.721 157.143 146.103C156.071 139.587 144.962 139.39 140.269 139.825C135.933 140.227 127.342 142.156 129.144 148.4C130.817 154.218 139.027 156.918 144.305 156.524C149.583 156.13 156.485 152.758 157.256 146.866C157.744 143.189 152.059 143.23 151.58 146.841Z" fill="#18253F"/>
<path d="M129.066 79.9612L128.757 97.1936C128.692 100.894 134.377 100.894 134.441 97.1936L134.75 79.9612C134.815 76.2603 129.131 76.2603 129.066 79.9612Z" fill="#18253F"/>
<path d="M139.527 79.9607L139.218 97.1931C139.153 100.894 144.837 100.894 144.902 97.1931L145.211 79.9607C145.036 79.0321 139.592 76.2598 139.527 79.9607Z" fill="#18253F"/>
<path d="M149.704 81.8553V97.1935C149.639 100.894 155.323 100.894 155.388 97.1935V81.8553C155.453 78.1544 149.769 78.1544 149.704 81.8553Z" fill="#18253F"/>
<path d="M365.676 9.27565C363.037 9.23462 358.49 9.23462 356.744 11.7374C356.701 11.7987 356.658 11.8575 356.614 11.914C352.137 19.4626 352.492 29.1264 352.944 37.6106C353.147 41.5659 352.659 41.8411 352.944 45.7882L347.422 43.9633C347.259 39.4008 347.714 44.2984 347.422 39.7441C346.77 29.7534 346.406 18.3634 351.507 9.42084C351.589 9.21306 351.701 9.00265 351.847 8.7915C358.579 -0.817605 376.086 4.15517 384.912 7.15032C400.519 12.4185 413.666 22.0604 424.425 34.5744C431.595 42.9362 442.598 56.9519 439.212 69.0392C435.939 80.6916 420.933 77.4092 412.813 74.1269C398.133 68.1631 384.952 57.6332 374.453 45.604C373.031 49.5529 371.069 53.3063 368.916 56.8699L364.75 52.611C367.338 48.375 369.256 43.757 370.434 38.9236C370.873 36.9459 373.845 36.0187 375.185 37.6598C385.724 50.7483 399.577 62.8602 415.322 68.9982C421.51 71.4025 434.811 74.8408 433.999 63.9351C433.097 51.9709 422.63 40.4663 414.705 32.5394C405.271 22.9317 393.625 15.8405 380.812 11.9015C375.915 10.3049 370.819 9.42076 365.676 9.27565Z" fill="#18253F"/>
<path d="M273.639 0.232947C282.896 -0.464555 297.512 -0.23479 301.572 10.2852C301.687 10.5859 301.751 10.8717 301.77 11.1406C304.527 21.7873 302.201 32.703 298.966 42.879L292.859 45.1613C295.555 36.5451 298.584 20.7805 296.059 11.8197C296.034 11.7316 296.013 11.6449 295.995 11.5594C294.209 7.64296 288.301 6.59655 284.609 6.14119C277.943 5.3206 271.032 6.02631 264.471 7.27361C250.673 9.82859 237.431 14.8291 225.357 22.0442C220.737 24.8887 212.603 30.2906 211.185 36.6261L223.13 31.0484L226.569 48.4788C230.592 48.4598 234.568 47.8758 237.383 47.4251C250.984 45.2306 264.124 40.7425 276.254 34.1479C276.686 33.9031 277.173 33.7753 277.669 33.7769C278.164 33.7786 278.651 33.9096 279.081 34.1573C279.512 34.405 279.872 34.7609 280.126 35.1906C280.381 35.6203 280.521 36.1092 280.533 36.6097C281.134 46.1039 280.752 44.1595 281.702 53.6291L276.254 56.4517C275.509 48.7632 275.438 46.749 275.103 41.182C260.592 48.5033 243.693 53.9093 227.582 54.0144C226.686 54.0207 225.765 53.9978 224.833 53.9413L221.904 35.1906L206.395 42.3387L205.328 38.686C205.209 27.6854 217.311 19.8117 225.673 15.1923C240.249 7.14231 257.025 1.47204 273.639 0.232947Z" fill="#18253F"/>
<path d="M500.94 206.307C499.974 200.809 495.946 195.91 492.227 192.012C487.172 186.719 481.252 182.344 474.728 179.08C468.427 175.953 461.314 173.746 454.217 174.361C449.986 174.731 443.263 175.929 441.761 180.762C440.526 184.75 443.929 188.484 446.422 191.085C450.433 195.27 454.972 198.93 458.707 203.394C462.978 208.506 464.481 213.241 463.035 219.871C461.108 228.015 457.162 235.529 451.57 241.707C447.29 246.532 441.119 252.203 434.314 252.457C433.605 252.346 432.888 252.302 432.171 252.326L431.472 252.153C432.436 252.837 432.796 253.614 432.552 254.484C432.783 253.898 432.957 253.29 433.072 252.67C433.884 250.159 434.94 247.747 435.776 245.236C440.802 230.252 440.551 213.684 429.572 201.342C418.91 189.354 412.228 174.378 406.99 159.279C404.154 151.207 401.843 142.956 400.072 134.579C398.57 127.333 398.131 120.088 397.27 112.752C394.445 88.659 385.521 63.9264 366.195 48.3927C358.611 42.3461 349.82 38.0324 340.428 35.7488C331.036 33.4653 321.265 33.266 311.79 35.1648C291.619 39.0379 274.047 51.8309 262.338 68.6612C255.529 78.6298 250.576 89.7697 247.722 101.534C244.588 114.056 244.23 126.808 243.467 139.626C240.43 190.757 235.753 241.806 231.027 292.797C230.919 293.946 230.81 295.095 230.702 296.244C230.702 296.872 230.906 297.483 231.283 297.983C231.66 298.483 232.189 298.843 232.789 299.009C246.139 301.225 259.675 302.562 273.162 303.506C298.66 305.295 324.831 305.59 350.011 300.642C356.001 299.508 361.897 297.914 367.648 295.874C368.996 295.382 370.368 294.57 371.619 294.348C372.903 294.271 374.192 294.317 375.468 294.488C386.544 294.865 397.628 295.185 408.712 295.308C433.202 295.661 458.391 294.627 478.277 278.264C499.478 260.819 504.643 232.41 500.956 206.274C500.445 202.631 494.964 204.182 495.475 207.8C498.683 230.547 494.558 255.272 477.294 271.536C458.975 288.768 433.884 289.9 410.214 289.589C399.219 289.449 388.233 289.137 377.238 288.768C375.273 288.702 373.048 288.317 371.083 288.555C368.566 288.858 365.927 290.409 363.507 291.205C360.787 292.1 358.034 292.846 355.257 293.568C331.091 299.559 305.464 299.526 280.755 298.197C265.182 297.479 249.661 295.901 234.259 293.47L236.346 296.235C240.495 252.03 244.36 207.792 247.527 163.505C249.313 138.461 248.112 111.972 257.961 88.4292C266.114 68.9977 281.169 52.1756 300.844 44.3143C318.115 37.4214 337.847 37.8563 354.217 47.0551C374.136 58.2644 385.212 79.69 389.775 101.608C391.294 108.903 391.773 116.223 392.585 123.608C393.439 130.887 394.826 138.093 396.734 145.165C400.916 161.101 406.779 177.037 415.118 191.257C416.782 194.116 418.604 196.877 420.575 199.529C422.93 202.672 425.821 205.38 428.005 208.637C432.828 215.85 434.249 224.467 432.991 232.993C432.106 238.975 429.97 244.546 427.932 250.225C426.6 253.926 426.397 257.044 431.018 257.955C444.27 260.573 456.572 246.426 462.507 236.291C466.194 230.006 468.906 222.875 469.361 215.539C469.718 209.852 467.152 204.937 463.734 200.596C460.144 196.05 455.735 192.316 451.643 188.287C450.189 186.851 446.032 183.495 447.883 181.935C450.019 180.13 454.452 180.007 457.059 180.065C460.751 180.211 464.393 180.979 467.834 182.338C474.966 185.124 481.453 189.364 486.892 194.794C490.481 198.306 494.558 202.721 495.467 207.924C496.1 211.468 501.582 209.926 500.94 206.307Z" fill="#18253F"/>
<path d="M320.744 120.195C320.167 133.571 298.892 133.595 298.308 120.195C298.145 116.511 292.461 116.494 292.624 120.195C292.826 124.564 294.704 128.681 297.861 131.673C301.017 134.665 305.203 136.297 309.53 136.221C318.559 136.221 326.038 129.386 326.428 120.228C326.59 116.535 320.906 116.544 320.744 120.228V120.195Z" fill="#18253F"/>
<path d="M348.923 120.195C348.347 133.571 327.072 133.595 326.487 120.195C326.325 116.511 320.641 116.494 320.803 120.195C321.005 124.562 322.883 128.678 326.037 131.67C329.192 134.662 333.376 136.294 337.701 136.221C346.731 136.221 354.209 129.386 354.599 120.228C354.762 116.535 349.078 116.544 348.915 120.228L348.923 120.195Z" fill="#18253F"/>
<path d="M334.318 136.606C333.741 149.981 312.466 150.006 311.882 136.606C311.719 132.921 306.035 132.905 306.198 136.606C306.4 140.973 308.277 145.089 311.432 148.081C314.586 151.072 318.77 152.705 323.096 152.632C332.125 152.632 339.604 145.796 339.994 136.638C340.156 132.946 334.472 132.954 334.31 136.638L334.318 136.606Z" fill="#18253F"/>
<path d="M378.176 95.6744C377.794 85.0067 368.919 77.0552 358.46 77.0552C348.001 77.0552 339.134 85.015 338.744 95.6744C338.614 99.3753 344.299 99.3671 344.428 95.6744C345.038 78.8769 371.883 78.8687 372.484 95.6744C372.614 99.3589 378.298 99.3753 378.168 95.6744H378.176Z" fill="#18253F"/>
<path d="M310.809 95.1918C310.428 84.5241 301.552 76.5726 291.094 76.5726C280.635 76.5726 271.768 84.5241 271.386 95.1918C271.256 98.8926 276.94 98.8844 277.07 95.1918C277.679 78.3943 304.524 78.3861 305.125 95.1918C305.255 98.8762 310.939 98.8926 310.809 95.1918Z" fill="#18253F"/>
<path d="M334.128 111.899C333.779 114.877 327.226 116.748 325.009 116.962C321.907 117.257 315.07 115.993 313.714 112.432C313.389 111.611 312.959 112.998 313.714 111.849C314.136 111.234 315.476 111.029 316.15 110.783C318.377 110.115 320.688 109.775 323.011 109.773C325.025 109.732 333.795 109.675 334.225 112.662C334.745 116.305 340.218 114.754 339.706 111.135C338.683 103.922 326 103.75 320.892 104.128C316.207 104.513 305.992 106.45 307.9 113.449C309.694 120.014 319.097 123.108 325.001 122.706C330.904 122.304 339.016 118.603 339.804 111.899C340.275 108.231 334.583 108.263 334.128 111.899Z" fill="#18253F"/>
<path d="M319.778 129.845L319.478 135.417C319.478 136.179 319.777 136.909 320.31 137.448C320.843 137.986 321.566 138.289 322.32 138.289C323.073 138.289 323.796 137.986 324.329 137.448C324.862 136.909 325.162 136.179 325.162 135.417L325.47 129.845C325.47 129.083 325.171 128.353 324.638 127.814C324.105 127.276 323.382 126.973 322.628 126.973C321.874 126.973 321.152 127.276 320.619 127.814C320.086 128.353 319.786 129.083 319.786 129.845H319.778Z" fill="#18253F"/>
<path d="M336.347 261.218C336.347 305.833 395.381 349.243 351.232 349.243C330.031 349.243 309.698 340.732 294.706 325.582C279.715 310.432 271.293 289.885 271.293 268.46C271.293 247.035 279.715 226.487 294.706 211.337C309.698 196.188 330.031 187.677 351.232 187.677C395.381 187.668 336.347 216.594 336.347 261.218Z" fill="#A7A7A7"/>
<path d="M210.394 186.289V347.839C231.453 347.624 251.578 339.019 266.394 323.894C281.211 308.77 289.522 288.347 289.522 267.064C289.522 245.781 281.211 225.358 266.394 210.233C251.578 195.108 231.453 186.504 210.394 186.289Z" fill="#A7A7A7"/>
<path d="M333.46 259.111C333.606 274.662 339.956 289.227 347.207 302.603C350.683 309.02 354.516 315.256 358.048 321.624C360.541 326.072 363.334 330.782 364.43 335.828C367.004 347.694 345.705 344.313 339.631 343.378C322.654 340.731 307.026 332.465 295.198 319.876C270.708 293.79 267.354 252.949 287.078 223.046C296.61 208.644 310.605 197.849 326.867 192.356C335.306 189.553 344.156 188.224 353.038 188.426C356.058 188.491 362.563 188.352 364.406 190.748C364.934 191.429 364.739 192.324 364.268 193.669C363.41 195.782 362.297 197.781 360.955 199.619C357.479 204.879 353.566 209.819 349.985 215.005C340.939 228.134 333.582 242.757 333.419 259.07C333.419 262.771 339.104 262.771 339.104 259.07C339.258 243.044 347.11 228.938 356.067 216.219C359.574 211.238 363.375 206.454 366.623 201.284C368.62 198.109 371.056 193.998 370.171 190.059C369.254 185.956 365.202 184.208 361.499 183.494C353.874 181.976 345.673 182.542 338.048 183.732C319.754 186.684 302.97 195.754 290.383 209.49C264.715 237.563 261.15 281.185 282.376 312.942C292.508 328.088 307.223 339.509 324.317 345.495C333.255 348.606 342.659 350.127 352.112 349.992C357.268 349.91 363.716 349.475 367.597 345.536C375.198 337.822 365.973 324.036 361.913 316.938C353.728 302.553 344.552 288.267 340.703 271.929C339.709 267.729 339.186 263.43 339.144 259.111C339.112 255.411 333.428 255.402 333.46 259.111Z" fill="#18253F"/>
<path d="M204.565 184.553V346.094L207.407 343.222C175.601 342.779 146.425 322.453 135.512 292.058C131.285 280.331 129.906 267.749 131.492 255.37C133.077 242.992 137.581 231.179 144.624 220.926C151.667 210.673 161.043 202.278 171.965 196.448C182.886 190.619 195.032 187.524 207.383 187.425C211.037 187.376 211.045 181.632 207.383 181.681C172.946 182.157 141.748 204.223 130.006 237.063C118.346 269.779 128.618 307.617 155.138 329.683C169.871 341.938 188.302 348.744 207.383 348.975C208.134 348.964 208.85 348.658 209.381 348.122C209.912 347.585 210.215 346.861 210.225 346.103V184.553C210.249 180.86 204.565 180.852 204.565 184.553Z" fill="#18253F"/>
<path d="M207.502 184.182V345.732C207.513 346.49 207.816 347.214 208.346 347.751C208.877 348.287 207.596 348.746 208.346 348.756C242.784 348.28 275.979 326.062 287.721 293.222C299.414 260.53 289.15 222.651 262.622 200.561C247.878 188.312 229.438 181.518 210.353 181.302C209.908 181.296 195.576 182.494 195.239 182.638C192.803 183.683 207.135 187.003 210.353 187.046C242.159 187.489 271.335 207.815 282.248 238.21C286.478 249.94 287.857 262.525 286.271 274.906C284.685 287.288 280.179 299.103 273.133 309.358C266.087 319.613 256.707 328.008 245.782 333.837C234.857 339.665 222.706 342.757 210.353 342.851L213.195 345.723V184.182C213.188 181.099 209.241 180.584 207.924 182.638C207.661 183.05 207.502 183.564 207.502 184.182Z" fill="#18253F"/>
<path d="M186.636 242.591C185.702 224.268 157.777 224.259 156.843 242.591C156.657 246.284 162.341 246.276 162.527 242.591C163.088 231.653 180.392 231.637 180.952 242.591C181.139 246.268 186.823 246.292 186.636 242.591Z" fill="#18253F"/>
<path d="M239.66 290.196C251.288 287.636 257.898 275.704 255.713 264.175C253.489 252.424 242.875 244.432 231.15 246.212C227.545 246.762 229.079 252.293 232.66 251.751C252.092 248.797 257.256 280.472 238.141 284.657C234.569 285.478 236.079 290.984 239.652 290.196H239.66Z" fill="#18253F"/>
<path d="M164.173 263.007C159.512 275.751 146.43 283.883 133.21 279.55C129.727 278.41 128.233 283.949 131.7 285.089C148.022 290.44 163.961 280.084 169.654 264.575C170.928 261.104 165.431 259.602 164.173 263.048V263.007Z" fill="#18253F"/>
</svg>
